<svg xmlns="http://www.w3.org/2000/svg" width="357" height="68" viewBox="0 0 357 68">
  <metadata><?xpacket begin="﻿" id="W5M0MpCehiHzreSzNTczkc9d"?>
<x:xmpmeta xmlns:x="adobe:ns:meta/" x:xmptk="Adobe XMP Core 5.6-c138 79.159824, 2016/09/14-01:09:01        ">
   <rdf:RDF xmlns:rdf="http://www.w3.org/1999/02/22-rdf-syntax-ns#">
      <rdf:Description rdf:about=""/>
   </rdf:RDF>
</x:xmpmeta>
                                                                                                    
                                                                                                    
                                                                                                    
                                                                                                    
                                                                                                    
                                                                                                    
                                                                                                    
                                                                                                    
                                                                                                    
                                                                                                    
                                                                                                    
                                                                                                    
                                                                                                    
                                                                                                    
                                                                                                    
                                                                                                    
                                                                                                    
                                                                                                    
                                                                                                    
                                                                                                    
                           
<?xpacket end="w"?></metadata>
<defs>
    <style>
      .cls-1 {
        fill: #ffffff;
        fill-rule: evenodd;
      }
    </style>
  </defs>
  <path id="equifax_logo" data-name="equifax logo" class="cls-1" d="M54.222,10.558L56.394,0.342H11.248l-5.988,28.1L0.185,51.069h46.42l2.357-10.762H23.218l2.353-10.954H47.332l2.355-10.216H27.928l1.815-8.578H54.222ZM92.116,29.353h15.775A117.132,117.132,0,0,0,109.7,17.127a10.389,10.389,0,0,0-5.621-10.4C98.3,3.5,89.791,3.68,83.412,3.444c-8.747-.321-19.151.811-24.658,8.579-2.843,4.005-4.439,10.2-5.068,15.048-0.778,5.924-3.744,15.852,1.621,20.713,3.989,3.622,12.916,4.832,18.109,4.75a83.575,83.575,0,0,0,15.612-1.464l13.6,16.608h21.213L92.116,29.353h0Zm-2.359.369c-1.732,7.871-4.1,14.483-13.239,14.413-9.173-.066-6.132-9.943-5.256-15.693C72.5,20.273,75.637,11.7,85.04,12.384c9.525,0.693,6.165,10.8,4.717,17.338h0Zm87.031-23.73L171.9,28.442,167,51.069h18.494l9.974-45.077H176.789ZM240.8,14.94l2.176-8.947H202.536l-9.791,45.077h18.676l4.171-19.344H233.9l0.735-3.283,1.084-5.108H217.588l1.81-8.395h21.4ZM117.318,5.992h18.859l-7.07,31.936c-0.868,3.91,2.774,5.945,5.9,6.211a8.014,8.014,0,0,0,8.6-6.388l7.434-31.759h18.675l-7.435,33.765c-3.181,8.8-10.556,12.256-18.694,13.123a57.712,57.712,0,0,1-15.208-.715L111.7,32.1l5.623-26.105h0Zm165.359,0h23.752l7.255,11.684L325.472,5.992H343.6l-23.748,20.99,15.59,24.088H312.234l-7.619-13.687L291.566,51.069H263.823l-1.084-9.851H243.516L236.8,51.069H223.75L255.3,5.992h22.667l4.349,36.5L297.367,28.63,282.677,5.992h0Zm-33,25.552,10.153-15.328,1.815,15.328H249.679ZM343.105,8.791a6.862,6.862,0,0,1,1.6-2.227,7.2,7.2,0,0,1,2.327-1.428,7.948,7.948,0,0,1,5.511,0,7.223,7.223,0,0,1,2.322,1.428,6.774,6.774,0,0,1,2.2,5.146,6.954,6.954,0,0,1-.593,2.938,6.933,6.933,0,0,1-3.933,3.668,8.027,8.027,0,0,1-5.511,0,7.043,7.043,0,0,1-2.327-1.424,6.945,6.945,0,0,1-2.2-5.183A6.9,6.9,0,0,1,343.105,8.791Zm1.752,5.16a6.01,6.01,0,0,0,1.131,1.775,5.2,5.2,0,0,0,1.7,1.168,5.508,5.508,0,0,0,4.174,0,5.207,5.207,0,0,0,1.7-1.168,5.987,5.987,0,0,0,1.145-1.775,5.778,5.778,0,0,0,.424-2.24,5.614,5.614,0,0,0-1.569-3.974,5.308,5.308,0,0,0-7.578,0,5.673,5.673,0,0,0-1.131,1.752,5.756,5.756,0,0,0-.411,2.222A5.849,5.849,0,0,0,344.857,13.951Zm5.1-6.214a4.212,4.212,0,0,1,2.3.525,2.036,2.036,0,0,1,.808,1.825,2.412,2.412,0,0,1-.165.94,1.682,1.682,0,0,1-.442.63,1.964,1.964,0,0,1-.666.378,3.438,3.438,0,0,1-.812.173L353.1,15.68h-1.642l-1.934-3.395h-0.99V15.68H346.96V7.737h3Zm-0.018,3.312a2.892,2.892,0,0,0,1.118-.183A0.9,0.9,0,0,0,351.5,9.95a0.8,0.8,0,0,0-.151-0.511,1.059,1.059,0,0,0-.392-0.3A2,2,0,0,0,350.423,9a3.936,3.936,0,0,0-.557-0.027h-1.332v2.076h1.405Z"/>
</svg>
