<?xml version="1.0" encoding="UTF-8"?>
<svg id="Layer_2" data-name="Layer 2" xmlns="http://www.w3.org/2000/svg" viewBox="0 0 295.5 26.27">
  <defs>
    <style>
      .cls-1 {
        fill: #211f1f;
      }

      .cls-2 {
        fill: #241f21;
      }

      .cls-3 {
        fill: #a31f36;
      }
    </style>
  </defs>
  <g id="Layer_1-2" data-name="Layer 1">
    <path class="cls-2" d="M80.72,15.21c-.69-.71-.72-1.96-.61-2.77.06-.64.27-1.18.6-1.54.34-.37.79-.56,1.37-.56s.99.18,1.3.54c.3.36.56.92.56,1.6l1.05.29c0-.96-.26-1.86-.77-2.45-.52-.59-1.22-.88-2.11-.88-.95,0-1.71.34-2.27,1.01-.56.67-.85,1.58-.85,2.73s.3,2.02.91,2.66c.61.64,1.43.96,2.49.96.48,0,.89-.04,1.23-.11.34-.07.7-.19,1.08-.35v-.96c-.75.32-1.5.48-2.27.48s-1.28-.23-1.69-.65"/>
    <rect class="cls-1" x="76.82" y="6.63" width="1.07" height="10.04"/>
    <g>
      <path class="cls-3" d="M67.7,17.16c2.33,1.59,4.9-.94,6.85-2.02,1.47-.81,3.02-1.45,4.68-1.74,1.78-.31,3.6-.2,5.39,0,.55.06.55-.8,0-.86-3.22-.35-6.3-.16-9.26,1.23-1.2.56-2.26,1.28-3.36,1.99-1.11.72-2.6,1.52-3.85.67-.46-.31-.89.43-.44.75"/>
      <path class="cls-3" d="M191.95,13.45c0-2.07,1.31-5.03,3.72-5.03.99,0,1.61.46,1.61,1.51,0,.62-.16,1.69-.97,1.69-.12,0-.22-.06-.22-.2,0-.3.36-.78.36-1.35,0-.36-.02-.77-.48-.77-1.51,0-2.34,3.2-2.34,4.37,0,1.01.4,2.07,1.59,2.07,1.77,0,3.18-1.37,4.03-2.8.12-.2.34-.52.6-.52.18,0,.32.14.32.32,0,.14-.08.28-.16.42-1.11,2.01-3.14,3.68-5.48,3.68-1.83,0-2.56-1.81-2.56-3.38"/>
      <path class="cls-3" d="M200.71,14.17c0,.64.18,1.63.99,1.63.34,0,.65-.18.91-.38.99-.78,1.41-2.25,1.41-3.46,0-.65-.18-1.79-1.03-1.79-1.49,0-2.29,2.8-2.29,3.99M203,8.86c1.47,0,1.87,1.53,1.87,2.72,0,1.75-.62,3.66-2.13,4.67-.46.3-.99.52-1.55.52-1.43,0-1.91-1.45-1.91-2.64,0-1.99,1.35-5.26,3.71-5.26"/>
      <path class="cls-3" d="M205.17,16.61c0-1.95.52-4.09.91-6,.12-.62.22-1.25.36-1.87.1-.48.65-.95,1.15-.95.46,0,.6.26.6.68,0,.68-.28,1.49-.52,2.13-.28.74-.44,1.51-.54,2.29,0,0,2.42-3.54,3.46-3.54.78,0,.79,1.35.79,1.93v2.78c0,.46.02,1.19.64,1.19,1.05,0,2.28-1.87,2.74-2.74.1-.18.26-.46.48-.46.2,0,.34.22.34.4,0,.1-.1.3-.14.4-.58,1.23-2.32,3.38-3.82,3.38-1.23,0-1.45-1.33-1.45-2.32v-.3l.08-2.26c0-.1-.02-.4-.18-.4-.14,0-.36.22-.46.32-.66.63-1.25,1.55-1.73,2.32-.58.93-1.03,1.91-1.49,2.9-.16.32-.44.64-.81.64-.28,0-.42-.24-.42-.5"/>
      <path class="cls-3" d="M214.05,16.61c0-1.95.52-4.09.91-6,.12-.62.22-1.25.36-1.87.1-.48.65-.95,1.15-.95.46,0,.6.26.6.68,0,.68-.28,1.49-.52,2.13-.28.74-.44,1.51-.54,2.29,0,0,2.42-3.54,3.46-3.54.77,0,.79,1.35.79,1.93v2.78c0,.46.02,1.19.64,1.19,1.05,0,2.28-1.87,2.74-2.74.1-.18.26-.46.48-.46.2,0,.34.22.34.4,0,.1-.1.3-.14.4-.58,1.23-2.32,3.38-3.82,3.38-1.23,0-1.45-1.33-1.45-2.32v-.3l.08-2.26c0-.1-.02-.4-.18-.4-.14,0-.36.22-.46.32-.66.63-1.25,1.55-1.73,2.32-.58.93-1.03,1.91-1.49,2.9-.16.32-.44.64-.82.64-.28,0-.42-.24-.42-.5"/>
      <path class="cls-3" d="M231.93,13.99c-.73,1.03-2.19,2.84-3.58,2.84-1.31,0-1.47-2.15-1.47-3.08-.52.82-1.73,2.62-2.78,2.62-.97,0-1.19-1.31-1.19-2.07,0-2.09,2.17-5.72,4.49-5.72.28,0,.65.34.65.62,0,.12-.1.18-.2.24-.72.42-1.37.87-1.95,1.47-1.03,1.05-1.69,2.4-1.69,3.89,0,.16.02.48.26.48.89,0,2.56-3.52,2.94-4.33.14-.3.3-.6.68-.6.2,0,.46.06.46.32,0,.28-.26.85-.36,1.15-.22.68-.3,1.51-.3,2.21,0,.42.02,1.95.64,1.95.93,0,2.42-1.97,2.96-2.68,0,0,.28-.5.56-.5.24,0,.32.16.32.38,0,.24-.3.62-.44.82"/>
      <path class="cls-3" d="M234.63,7.43c0,.52-.42,1.05-.95,1.05-.42,0-.68-.36-.68-.75,0-.5.4-1.05.93-1.05.42,0,.7.36.7.75M233.84,15.84c1.07,0,2.62-2.29,3.22-3.22.12-.18.28-.42.5-.42.26,0,.26.24.26.44,0,.26-.38.79-.54,1.01-.76,1.07-2.44,3.18-3.86,3.18-1.57,0-1.81-2.24-1.81-3.4,0-.74.2-1.75.42-2.44.24-.71.6-1.27,1.43-1.27.3,0,.46.12.46.44,0,.54-.46,1.51-.6,2.11-.12.58-.18,1.17-.18,1.77,0,.46.02,1.81.7,1.81"/>
      <path class="cls-3" d="M241.39,14.64c0,.54-.14,1.07-.46,1.53.91,0,2.78-2.05,3.3-2.82.12-.18.3-.44.52-.44.24,0,.3.2.3.4,0,.14-.12.3-.18.42-1.49,2.35-3.2,3.72-6.08,3.72-.76,0-1.77-.1-2.34-.66-.12-.12-.22-.26-.22-.44,0-.2.14-.3.32-.3.16,0,.4.18.36.14.42.32.89.38,1.41.38,1.05,0,1.61-.71,1.61-1.73,0-1.19-.73-2.88-1.39-3.86-.38,1.07-1.15,2.7-1.95,3.5-.12.12-.32.32-.52.32-.16,0-.28-.12-.28-.28,0-.2.12-.36.24-.52.89-1.11,1.59-2.42,2.03-3.79-.12-.34-.18-.7-.18-1.05,0-.77.52-2.32,1.47-2.32.5,0,.63.68.63,1.07,0,.65-.22,1.35-.46,1.97.64,1.53,1.87,3.06,1.87,4.77"/>
      <path class="cls-3" d="M249.04,14.64c0,.54-.14,1.07-.46,1.53.91,0,2.78-2.05,3.3-2.82.12-.18.3-.44.52-.44.24,0,.3.2.3.4,0,.14-.12.3-.18.42-1.49,2.35-3.2,3.72-6.08,3.72-.76,0-1.77-.1-2.34-.66-.12-.12-.22-.26-.22-.44,0-.2.14-.3.32-.3.16,0,.4.18.36.14.42.32.89.38,1.41.38,1.05,0,1.61-.71,1.61-1.73,0-1.19-.73-2.88-1.39-3.86-.38,1.07-1.15,2.7-1.95,3.5-.12.12-.32.32-.52.32-.16,0-.28-.12-.28-.28,0-.2.12-.36.24-.52.89-1.11,1.59-2.42,2.03-3.79-.12-.34-.18-.7-.18-1.05,0-.77.52-2.32,1.47-2.32.5,0,.63.68.63,1.07,0,.65-.22,1.35-.46,1.97.64,1.53,1.87,3.06,1.87,4.77"/>
      <path class="cls-3" d="M260.66,13.99c-.73,1.03-2.19,2.84-3.58,2.84-1.31,0-1.47-2.15-1.47-3.08-.52.82-1.73,2.62-2.78,2.62-.97,0-1.19-1.31-1.19-2.07,0-2.09,2.17-5.72,4.49-5.72.28,0,.65.34.65.62,0,.12-.1.18-.2.24-.72.42-1.37.87-1.95,1.47-1.03,1.05-1.69,2.4-1.69,3.89,0,.16.02.48.26.48.89,0,2.56-3.52,2.94-4.33.14-.3.3-.6.68-.6.2,0,.46.06.46.32,0,.28-.26.85-.36,1.15-.22.68-.3,1.51-.3,2.21,0,.42.02,1.95.64,1.95.93,0,2.42-1.97,2.96-2.68,0,0,.28-.5.56-.5.24,0,.32.16.32.38,0,.24-.3.62-.44.82"/>
      <path class="cls-3" d="M259.94,16.61c0-1.95.52-4.09.91-6,.12-.62.22-1.25.36-1.87.1-.48.65-.95,1.15-.95.46,0,.6.26.6.68,0,.68-.28,1.49-.52,2.13-.28.74-.44,1.51-.54,2.29,0,0,2.42-3.54,3.46-3.54.77,0,.79,1.35.79,1.93v2.78c0,.46.02,1.19.64,1.19,1.05,0,2.28-1.87,2.74-2.74.1-.18.26-.46.48-.46.2,0,.34.22.34.4,0,.1-.1.3-.14.4-.58,1.23-2.32,3.38-3.81,3.38-1.23,0-1.45-1.33-1.45-2.32v-.3l.08-2.26c0-.1-.02-.4-.18-.4-.14,0-.36.22-.46.32-.66.63-1.25,1.55-1.73,2.32-.58.93-1.03,1.91-1.49,2.9-.16.32-.44.64-.82.64-.28,0-.42-.24-.42-.5"/>
      <path class="cls-3" d="M269.22,13.45c0-2.07,1.31-5.03,3.72-5.03.99,0,1.61.46,1.61,1.51,0,.62-.16,1.69-.97,1.69-.12,0-.22-.06-.22-.2,0-.3.36-.78.36-1.35,0-.36-.02-.77-.48-.77-1.51,0-2.34,3.2-2.34,4.37,0,1.01.4,2.07,1.59,2.07,1.77,0,3.18-1.37,4.03-2.8.12-.2.34-.52.6-.52.18,0,.32.14.32.32,0,.14-.08.28-.16.42-1.11,2.01-3.14,3.68-5.48,3.68-1.83,0-2.56-1.81-2.56-3.38"/>
      <path class="cls-3" d="M277.92,12.68c.85-.52,2.15-1.87,2.15-2.92,0-.22-.08-.46-.34-.46-.8,0-1.69,2.68-1.81,3.38M276.23,13.95c0-1.79,1.45-5.58,3.6-5.58.72,0,1.11.5,1.11,1.19,0,1.33-1.87,3.44-3.08,3.87-.06.28-.1.56-.1.83,0,.89.36,1.45,1.29,1.45,1.67,0,3-1.43,3.79-2.76.12-.2.32-.52.6-.52.12,0,.28.08.28.22,0,.26-.06.38-.18.6-1.03,1.81-2.94,3.4-5.11,3.4-1.57,0-2.2-1.29-2.2-2.7"/>
      <path class="cls-3" d="M287.4,14.64c0,.54-.14,1.07-.46,1.53.91,0,2.78-2.05,3.3-2.82.12-.18.3-.44.52-.44.24,0,.3.2.3.4,0,.14-.12.3-.18.42-1.49,2.35-3.2,3.72-6.08,3.72-.76,0-1.77-.1-2.34-.66-.12-.12-.22-.26-.22-.44,0-.2.14-.3.32-.3.16,0,.4.18.36.14.42.32.89.38,1.41.38,1.05,0,1.61-.71,1.61-1.73,0-1.19-.73-2.88-1.39-3.86-.38,1.07-1.15,2.7-1.95,3.5-.12.12-.32.32-.52.32-.16,0-.28-.12-.28-.28,0-.2.12-.36.24-.52.89-1.11,1.59-2.42,2.03-3.79-.12-.34-.18-.7-.18-1.05,0-.77.52-2.32,1.47-2.32.5,0,.63.68.63,1.07,0,.65-.22,1.35-.46,1.97.64,1.53,1.87,3.06,1.87,4.77"/>
      <path class="cls-3" d="M3.97,15.22s.08-.06.14-.06c.24,0,.42.28.97.28,1.61,0,2.92-3.54,2.92-4.87,0-.4-.1-.97-.6-.97-.91,0-2.64,2.24-3.08,3.04-.16.26-.3,1.93-.36,2.48v.1ZM.85,24.32c0,.16,0,.89.24.89.34,0,.63-1.93.68-2.19.36-2.25.58-4.53.72-6.79-.79,1.91-1.63,6.02-1.63,8.09M3.91,15.82l-.04.5c-.22,2.5-.6,6.64-1.41,8.64-.22.54-.69,1.31-1.37,1.31-.91,0-1.09-1.39-1.09-2.05,0-2.98,1.27-7.03,2.23-9.89.08-.24.1-.79.4-3.83.04-.48-.02-1.55.67-1.55.54,0,1.01.74,1.01,1.21s-.1.91-.14,1.37c.69-.93,2.21-2.76,3.48-2.76s1.63,1.11,1.63,2.18c0,1.43-.7,3.56-1.75,4.57-.26.26-.58.48-.93.54.2.04.4.06.6.06,1.85,0,3.5-1.49,4.35-3.02.1-.16.22-.5.46-.5.22,0,.34.14.34.36,0,.24-.06.38-.18.56-1.17,1.93-2.8,3.34-5.13,3.34-.93,0-2.54-.2-3.12-1.03"/>
      <path class="cls-3" d="M13.25,11.05c-.42,1.15-1.03,2.66-1.91,3.56-.14.14-.32.3-.54.3-.16,0-.26-.1-.26-.26s.08-.3.18-.44c.75-1.09,1.55-2.24,1.71-3.6-.36-.48-.52-1.07-.52-1.67s.38-2.22,1.17-2.22c.56,0,.66,1.15.66,1.55,0,.32-.02.64-.06.95.62.93,2.36,1.01,2.36,2.78,0,.26-.04.52-.1.77-.22.93-.4,1.85-.4,2.8,0,.26,0,.74.38.74.91,0,2.54-2.07,3.06-2.84.12-.18.3-.44.52-.44.24,0,.28.22.28.42,0,.16-.08.3-.16.42-.64,1.03-2.64,3.38-3.91,3.38s-1.39-1.85-1.39-2.78c0-.74.1-1.45.1-2.19,0-.66-.6-1.05-1.17-1.23"/>
      <path class="cls-3" d="M19.82,14.29c0,.64.18,1.63.99,1.63.34,0,.65-.18.91-.38.99-.78,1.41-2.25,1.41-3.46,0-.65-.18-1.79-1.03-1.79-1.49,0-2.28,2.8-2.28,3.99M22.1,8.98c1.47,0,1.87,1.53,1.87,2.72,0,1.75-.62,3.66-2.13,4.67-.46.3-.99.52-1.55.52-1.43,0-1.91-1.45-1.91-2.64,0-1.99,1.35-5.26,3.72-5.26"/>
      <path class="cls-3" d="M26.82,15.22s.08-.06.14-.06c.24,0,.42.28.97.28,1.61,0,2.92-3.54,2.92-4.87,0-.4-.1-.97-.6-.97-.91,0-2.64,2.24-3.08,3.04-.16.26-.3,1.93-.36,2.48v.1ZM23.7,24.32c0,.16,0,.89.24.89.34,0,.64-1.93.68-2.19.36-2.25.58-4.53.71-6.79-.79,1.91-1.63,6.02-1.63,8.09M26.76,15.82l-.04.5c-.22,2.5-.6,6.64-1.41,8.64-.22.54-.69,1.31-1.37,1.31-.91,0-1.09-1.39-1.09-2.05,0-2.98,1.27-7.03,2.22-9.89.08-.24.1-.79.4-3.83.04-.48-.02-1.55.68-1.55.54,0,1.01.74,1.01,1.21s-.1.91-.14,1.37c.69-.93,2.2-2.76,3.48-2.76s1.63,1.11,1.63,2.18c0,1.43-.7,3.56-1.75,4.57-.26.26-.58.48-.93.54.2.04.4.06.6.06,1.85,0,3.5-1.49,4.35-3.02.1-.16.22-.5.46-.5.22,0,.34.14.34.36,0,.24-.06.38-.18.56-1.17,1.93-2.8,3.34-5.13,3.34-.93,0-2.54-.2-3.12-1.03"/>
      <path class="cls-3" d="M34.84,10.29c.2-.6.74-.97,1.35-.97.3,0,.46.14.46.44,0,.22-.08.44-.14.65-.42,1.31-.93,3.32-.93,4.69,0,.26,0,.79.38.79,1.33,0,3.72-4.07,4.23-5.24.22-.5.4-1.27,1.07-1.27.24,0,.44.06.44.34,0,.26-.12.52-.2.76-.44,1.15-.79,3.08-.79,4.31,0,.38.06,1.41.6,1.41.79,0,2.62-2.54,3.08-3.28.12-.2.38-.56.6-.56.24,0,.28.18.28.38,0,.14-.08.3-.14.42-.64,1.25-2.72,3.91-4.23,3.91-1.21,0-1.31-1.93-1.31-2.8,0-.26,0-.5.04-.76-.77,1.11-2.38,3.22-3.87,3.22-1.41,0-1.43-1.79-1.43-2.8,0-1.19.16-2.5.54-3.64"/>
      <path class="cls-3" d="M46.74,3.68c-.58,1.91-1.13,4.09-1.13,6,0,.2,0,.38.02.58,1.29-2.17,3.06-6.04,3.06-8.56,0-.18,0-.74-.3-.74-.83,0-1.43,1.99-1.65,2.72M44.08,11.01c0-2.76.42-5.54,1.51-8.09.42-.95,1.55-2.92,2.74-2.92.93,0,1.19,1.03,1.19,1.79,0,2.48-1.29,6.02-2.48,8.19-.28.54-.64,1.01-.95,1.53-.1.16-.28.4-.34.58-.08.22-.08.64-.08.87,0,.77.16,3.14,1.25,3.14.97,0,2.32-1.65,2.82-2.42l.52-.81c.1-.16.22-.28.42-.28.22,0,.28.18.28.36,0,.24-.14.48-.28.7l-.02.02c-.77,1.29-2.5,3.64-4.15,3.64-2.21,0-2.42-4.73-2.42-6.28"/>
      <path class="cls-3" d="M54.69,14.76c0,.54-.14,1.07-.46,1.53.91,0,2.78-2.05,3.3-2.82.12-.18.3-.44.52-.44.24,0,.3.2.3.4,0,.14-.12.3-.18.42-1.49,2.35-3.2,3.72-6.08,3.72-.76,0-1.77-.1-2.34-.66-.12-.12-.22-.26-.22-.44,0-.2.14-.3.32-.3.16,0,.4.18.36.14.42.32.89.38,1.41.38,1.05,0,1.61-.71,1.61-1.73,0-1.19-.74-2.88-1.39-3.86-.38,1.07-1.15,2.7-1.95,3.5-.12.12-.32.32-.52.32-.16,0-.28-.12-.28-.28,0-.2.12-.36.24-.52.89-1.11,1.59-2.42,2.03-3.79-.12-.34-.18-.7-.18-1.05,0-.77.52-2.32,1.47-2.32.5,0,.63.68.63,1.07,0,.65-.22,1.35-.46,1.97.64,1.53,1.87,3.06,1.87,4.77"/>
      <path class="cls-3" d="M59.16,12.79c.85-.52,2.15-1.87,2.15-2.92,0-.22-.08-.46-.34-.46-.79,0-1.69,2.68-1.81,3.38M57.47,14.07c0-1.79,1.45-5.58,3.6-5.58.72,0,1.11.5,1.11,1.19,0,1.33-1.87,3.44-3.08,3.87-.06.28-.1.56-.1.83,0,.89.36,1.45,1.29,1.45,1.67,0,3-1.43,3.79-2.76.12-.2.32-.52.6-.52.12,0,.28.08.28.22,0,.26-.06.38-.18.6-1.03,1.81-2.94,3.4-5.11,3.4-1.57,0-2.21-1.29-2.21-2.7"/>
      <path class="cls-3" d="M68.22,17.25c-1.31,0-1.39-1.85-1.39-2.78,0-.74.1-1.45.1-2.19,0-.66-.6-1.05-1.17-1.23-.42,1.15-1.03,2.66-1.91,3.56-.14.14-.32.3-.54.3-.16,0-.26-.1-.26-.26s.08-.3.18-.44c.75-1.09,1.55-2.25,1.71-3.6-.36-.48-.52-1.07-.52-1.67s.38-2.22,1.17-2.22c.56,0,.65,1.15.65,1.55,0,.32-.02.63-.06.95.62.93,2.36,1.01,2.36,2.78,0,.26-.04.52-.1.77-.22.93-.4,1.85-.4,2.8,0,.26.08.84.39,1.01"/>
      <path class="cls-2" d="M98.47,16.7v-4.81c0-.59-.13-1.03-.38-1.33-.25-.3-.64-.44-1.17-.44-.7,0-1.21.2-1.55.6-.33.4-.5,1.02-.5,1.85v4.13h-1.12v-4.81c0-.59-.13-1.03-.38-1.33-.25-.3-.65-.44-1.18-.44-.7,0-1.22.21-1.54.63-.33.42-.49,1.11-.49,2.07v3.88h-1.12v-7.4h.91l.18,1.01h.05c.21-.36.51-.64.89-.84.38-.2.82-.3,1.29-.3,1.16,0,1.91.42,2.27,1.26h.05c.22-.39.54-.69.96-.92.42-.23.89-.34,1.43-.34.84,0,1.46.22,1.88.65.42.43.62,1.12.62,2.06v4.82h-1.12Z"/>
      <path class="cls-2" d="M101.82,12.99c0,.95.19,1.66.57,2.16.38.5.93.74,1.67.74s1.29-.25,1.67-.74c.38-.49.57-1.21.57-2.16s-.19-1.65-.57-2.14c-.38-.49-.94-.73-1.68-.73s-1.29.24-1.66.72c-.37.48-.56,1.2-.56,2.15M107.45,12.99c0,1.21-.3,2.15-.91,2.82-.61.68-1.45,1.02-2.52,1.02-.66,0-1.25-.16-1.76-.47-.51-.31-.91-.76-1.19-1.34-.28-.58-.42-1.26-.42-2.04,0-1.21.3-2.15.9-2.82.6-.67,1.44-1.01,2.51-1.01s1.86.34,2.47,1.03c.61.69.91,1.62.91,2.79"/>
      <path class="cls-2" d="M113.65,16.7v-4.78c0-.6-.14-1.05-.41-1.35-.27-.3-.7-.44-1.29-.44-.77,0-1.34.21-1.7.63-.36.42-.54,1.11-.54,2.07v3.88h-1.12v-7.4h.91l.18,1.01h.05c.23-.36.55-.65.96-.85.41-.2.88-.3,1.38-.3.89,0,1.56.22,2.01.65.45.43.67,1.12.67,2.06v4.82h-1.12Z"/>
      <path class="cls-2" d="M119.03,15.89c.76,0,1.32-.21,1.66-.62.34-.42.52-1.09.52-2.01v-.24c0-1.05-.17-1.8-.52-2.24-.35-.45-.9-.67-1.67-.67-.66,0-1.16.26-1.51.77-.35.51-.52,1.23-.52,2.16s.17,1.66.52,2.14c.35.48.85.72,1.52.72M121.28,15.71h-.06c-.52.75-1.29,1.13-2.32,1.13-.97,0-1.72-.33-2.26-.99-.54-.66-.81-1.6-.81-2.82s.27-2.17.81-2.84c.54-.68,1.29-1.01,2.25-1.01s1.77.37,2.31,1.09h.09l-.05-.53-.03-.52v-3.01h1.12v10.5h-.91l-.15-.99Z"/>
      <path class="cls-2" d="M126.7,10.1c-.59,0-1.07.19-1.42.58-.35.39-.56.92-.62,1.61h3.87c0-.71-.16-1.25-.47-1.62-.32-.38-.76-.56-1.35-.56M127.01,16.83c-1.09,0-1.96-.33-2.59-1s-.95-1.59-.95-2.77.29-2.14.88-2.84c.59-.7,1.38-1.05,2.37-1.05.93,0,1.66.31,2.2.91.54.61.81,1.41.81,2.41v.71h-5.1c.02.87.24,1.53.66,1.98s1,.68,1.76.68c.8,0,1.58-.17,2.36-.5v1c-.39.17-.77.29-1.12.37-.35.07-.78.11-1.28.11"/>
      <path class="cls-2" d="M136.91,8.32h-.74c-.29-.23-.64-.57-1.04-1-.4-.43-.69-.79-.87-1.07v-.14h1.37c.14.31.34.67.6,1.08.26.41.48.73.68.97v.17ZM135.58,15.91c.7,0,1.25-.19,1.64-.57.4-.38.6-.92.6-1.61v-.67l-1.12.05c-.89.03-1.53.17-1.93.41-.39.25-.59.63-.59,1.14,0,.4.12.71.37.92.25.21.59.32,1.03.32M138.11,16.7l-.22-1.05h-.05c-.37.46-.74.78-1.1.94-.37.16-.82.25-1.37.25-.73,0-1.31-.19-1.72-.57-.42-.38-.62-.91-.62-1.61,0-1.49,1.19-2.28,3.58-2.35l1.26-.04v-.46c0-.58-.12-1.01-.38-1.29-.25-.28-.65-.42-1.2-.42-.62,0-1.31.19-2.09.57l-.34-.86c.36-.2.76-.35,1.2-.47.43-.11.87-.17,1.31-.17.88,0,1.54.19,1.96.59.42.39.64,1.02.64,1.88v5.05h-.83Z"/>
    </g>
    <rect class="cls-2" x="143.18" y="6.2" width="1.12" height="10.5"/>
    <g>
      <path class="cls-2" d="M146.75,6.83l.1.15c-.12.45-.29.97-.51,1.57-.22.6-.45,1.15-.69,1.66h-.82c.32-1.28.54-2.41.69-3.38h1.23Z"/>
      <path class="cls-2" d="M149.39,15.91c.7,0,1.25-.19,1.64-.57.4-.38.6-.92.6-1.61v-.67l-1.12.05c-.89.03-1.53.17-1.93.41-.39.25-.59.63-.59,1.14,0,.4.12.71.37.92.25.21.59.32,1.03.32M151.92,16.7l-.22-1.05h-.05c-.37.46-.74.78-1.1.94-.37.16-.82.25-1.37.25-.73,0-1.31-.19-1.72-.57-.42-.38-.62-.91-.62-1.61,0-1.49,1.19-2.28,3.58-2.35l1.26-.04v-.46c0-.58-.12-1.01-.37-1.29-.25-.28-.65-.42-1.2-.42-.62,0-1.31.19-2.09.57l-.34-.86c.36-.2.76-.35,1.2-.47.43-.11.87-.17,1.31-.17.88,0,1.54.19,1.96.59.43.39.64,1.02.64,1.88v5.05h-.83Z"/>
      <path class="cls-2" d="M155.35,16.7h-1.12v-7.4h1.12v7.4ZM154.13,7.3c0-.26.06-.44.19-.56.13-.12.28-.18.47-.18.18,0,.33.06.46.18.13.12.2.31.2.56s-.07.44-.2.56c-.13.12-.29.19-.46.19-.19,0-.35-.06-.47-.19-.13-.12-.19-.31-.19-.56"/>
      <path class="cls-2" d="M159.69,15.89c.76,0,1.32-.21,1.66-.62.34-.42.52-1.09.52-2.01v-.24c0-1.05-.17-1.8-.52-2.24-.35-.45-.9-.67-1.67-.67-.66,0-1.16.26-1.51.77-.35.51-.52,1.23-.52,2.16s.17,1.66.52,2.14c.35.48.85.72,1.52.72M161.93,15.71h-.06c-.52.75-1.29,1.13-2.32,1.13-.97,0-1.72-.33-2.26-.99-.54-.66-.81-1.6-.81-2.82s.27-2.17.81-2.84c.54-.68,1.29-1.01,2.25-1.01s1.77.37,2.31,1.09h.09l-.05-.53-.03-.52v-3.01h1.12v10.5h-.91l-.15-.99Z"/>
      <path class="cls-2" d="M167.35,10.1c-.59,0-1.07.19-1.42.58-.35.39-.56.92-.62,1.61h3.87c0-.71-.16-1.25-.47-1.62-.32-.38-.76-.56-1.35-.56M167.66,16.83c-1.09,0-1.96-.33-2.59-1s-.95-1.59-.95-2.77.29-2.14.88-2.84c.59-.7,1.38-1.05,2.37-1.05.93,0,1.66.31,2.2.91.54.61.81,1.41.81,2.41v.71h-5.1c.02.87.24,1.53.66,1.98.42.45,1,.68,1.76.68.8,0,1.58-.17,2.36-.5v1c-.4.17-.77.29-1.12.37-.35.07-.78.11-1.28.11"/>
      <path class="cls-2" d="M177.01,15.89c.76,0,1.32-.21,1.66-.62.34-.42.52-1.09.52-2.01v-.24c0-1.05-.17-1.8-.52-2.24-.35-.45-.9-.67-1.67-.67-.66,0-1.16.26-1.51.77-.35.51-.52,1.23-.52,2.16s.17,1.66.52,2.14c.35.48.85.72,1.52.72M179.25,15.71h-.06c-.52.75-1.29,1.13-2.32,1.13-.97,0-1.72-.33-2.26-.99-.54-.66-.81-1.6-.81-2.82s.27-2.17.81-2.84c.54-.68,1.29-1.01,2.25-1.01s1.77.37,2.31,1.09h.09l-.05-.53-.03-.52v-3.01h1.12v10.5h-.91l-.15-.99Z"/>
      <path class="cls-2" d="M184.68,10.1c-.59,0-1.07.19-1.42.58-.35.39-.56.92-.62,1.61h3.87c0-.71-.16-1.25-.47-1.62-.32-.38-.76-.56-1.35-.56M184.98,16.83c-1.09,0-1.96-.33-2.59-1s-.95-1.59-.95-2.77.29-2.14.88-2.84c.59-.7,1.38-1.05,2.37-1.05.93,0,1.66.31,2.2.91.54.61.81,1.41.81,2.41v.71h-5.1c.02.87.24,1.53.66,1.98.42.45,1,.68,1.76.68.8,0,1.58-.17,2.36-.5v1c-.4.17-.77.29-1.12.37-.35.07-.78.11-1.28.11"/>
      <path class="cls-3" d="M291.73,9.47l-.84-2.19h-.01c.02.17.02.38.02.62v1.57h-.27v-2.47h.43l.78,2.03h.01l.79-2.03h.43v2.47h-.29v-1.59c0-.18,0-.38.02-.59h-.01l-.84,2.18h-.23Z"/>
      <path class="cls-3" d="M294.82,7.22c-.27,0-.48.09-.64.27-.16.18-.24.43-.24.74s.08.57.23.75c.15.18.37.26.65.26.17,0,.37-.03.59-.09v.25c-.17.06-.38.1-.63.1-.36,0-.64-.11-.84-.33-.2-.22-.3-.53-.3-.94,0-.25.05-.48.14-.67.1-.19.23-.34.41-.44.18-.1.39-.15.63-.15.26,0,.49.05.68.14l-.12.25c-.19-.09-.37-.13-.56-.13"/>
    </g>
  </g>
</svg>