<?xml version="1.0" encoding="UTF-8"?>
<svg id="Layer_2" data-name="Layer 2" xmlns="http://www.w3.org/2000/svg" viewBox="0 0 128 36.74">
  <defs>
    <style>
      .cls-1 {
        fill: #a32136;
      }

      .cls-2 {
        fill: #a61f38;
      }

      .cls-3 {
        fill: #a31f36;
      }
    </style>
  </defs>
  <g id="Layer_1-2" data-name="Layer 1">
    <g>
      <path class="cls-1" d="M4.22,9.04s.08-.06.15-.06c.25,0,.44.3,1.04.3,1.71,0,3.1-3.76,3.1-5.17,0-.42-.1-1.03-.63-1.03-.97,0-2.81,2.39-3.27,3.23-.17.27-.32,2.05-.38,2.64v.11ZM.91,18.71c0,.17,0,.95.25.95.36,0,.68-2.05.72-2.32.38-2.39.61-4.81.76-7.22-.84,2.03-1.73,6.4-1.73,8.59M4.16,9.67l-.04.53c-.23,2.66-.63,7.05-1.5,9.18-.23.57-.74,1.39-1.46,1.39-.97,0-1.16-1.48-1.16-2.17,0-3.17,1.35-7.47,2.36-10.51.08-.25.1-.85.42-4.07.04-.51-.02-1.65.72-1.65.57,0,1.08.78,1.08,1.29s-.1.97-.15,1.46c.74-.99,2.34-2.93,3.69-2.93s1.73,1.18,1.73,2.32c0,1.52-.74,3.78-1.86,4.86-.27.27-.61.51-.99.57.21.04.42.06.63.06,1.96,0,3.72-1.58,4.62-3.21.11-.17.23-.53.49-.53.23,0,.36.15.36.38,0,.25-.06.4-.19.59-1.25,2.05-2.98,3.55-5.45,3.55-.99,0-2.7-.21-3.32-1.1"/>
      <path class="cls-1" d="M13.91,8.04c0,.68.19,1.73,1.06,1.73.36,0,.7-.19.97-.4,1.06-.82,1.5-2.39,1.5-3.67,0-.7-.19-1.9-1.1-1.9-1.58,0-2.43,2.98-2.43,4.24M16.34,2.41c1.56,0,1.98,1.63,1.98,2.89,0,1.86-.65,3.89-2.26,4.96-.49.32-1.06.55-1.65.55-1.52,0-2.03-1.54-2.03-2.81,0-2.11,1.44-5.6,3.95-5.6"/>
      <path class="cls-1" d="M26.44,11.23c-.49,0-.91-.23-1.25-.57-.72-.72-.99-3.21-1.03-4.22,0,0-3.08,3.95-4.41,3.95-1.06,0-1.14-1.08-1.14-1.88,0-1.18.97-4.27,1.63-5.26.21-.32.59-.44.95-.44.3,0,.68.11.68.46,0,.15-.09.3-.15.42-.72,1.37-1.46,3.48-1.46,5.05,0,.08,0,.3.13.3.34,0,.99-.65,1.22-.89.74-.74,1.42-1.56,2.01-2.43.23-.36.51-.87.72-1.16.17-.25.51-.28.78-.28.57,0,.61.53.61.97,0,.72.38,4.81,1.2,4.81,1.12,0,1.52-3.55,1.52-4.39,0-.32-.02-1.1-.15-1.35-.17-.34-.38-.38-.38-.82,0-.28.19-.59.49-.59.78,0,.85,1.96.85,2.51,0,1.73-.42,5.81-2.81,5.81"/>
      <path class="cls-1" d="M31.9,6.46c.91-.55,2.28-1.98,2.28-3.1,0-.23-.08-.49-.36-.49-.85,0-1.79,2.85-1.92,3.59M30.11,7.81c0-1.9,1.54-5.93,3.82-5.93.76,0,1.18.53,1.18,1.27,0,1.41-1.99,3.65-3.27,4.12-.06.3-.1.59-.1.89,0,.95.38,1.54,1.37,1.54,1.77,0,3.19-1.52,4.03-2.93.13-.21.34-.55.63-.55.13,0,.29.09.29.23,0,.27-.06.4-.19.63-1.1,1.92-3.12,3.61-5.43,3.61-1.67,0-2.34-1.37-2.34-2.87"/>
      <path class="cls-1" d="M39,4.6c-.44,1.22-1.1,2.83-2.03,3.78-.15.15-.34.32-.57.32-.17,0-.27-.11-.27-.27s.08-.32.19-.46c.8-1.16,1.65-2.39,1.82-3.82-.38-.51-.55-1.14-.55-1.77s.4-2.36,1.24-2.36c.59,0,.7,1.23.7,1.65,0,.34-.02.68-.06,1.01.65.99,2.51,1.08,2.51,2.95,0,.27-.04.55-.11.82-.23.99-.42,1.96-.42,2.98,0,.27,0,.78.4.78.97,0,2.7-2.2,3.25-3.02.13-.19.32-.46.55-.46.25,0,.3.23.3.44,0,.17-.08.32-.17.44-.67,1.1-2.81,3.59-4.16,3.59s-1.48-1.96-1.48-2.96c0-.78.11-1.54.11-2.32,0-.7-.63-1.12-1.25-1.31"/>
      <path class="cls-1" d="M48.58.89c0,.55-.44,1.12-1.01,1.12-.44,0-.72-.38-.72-.8,0-.53.42-1.12.99-1.12.44,0,.74.38.74.8M47.74,9.82c1.14,0,2.79-2.43,3.42-3.42.13-.19.3-.44.53-.44.27,0,.27.25.27.46,0,.27-.4.84-.57,1.08-.8,1.14-2.6,3.38-4.09,3.38-1.67,0-1.92-2.39-1.92-3.61,0-.78.21-1.86.44-2.6.25-.76.63-1.35,1.52-1.35.32,0,.49.13.49.46,0,.57-.49,1.6-.63,2.24-.13.61-.19,1.24-.19,1.88,0,.48.02,1.92.74,1.92"/>
      <path class="cls-1" d="M50.5,10.64c0-2.07.55-4.35.97-6.38.13-.65.23-1.33.38-1.98.11-.51.7-1.01,1.23-1.01.49,0,.63.27.63.72,0,.72-.29,1.58-.55,2.26-.29.78-.46,1.61-.57,2.43,0,0,2.58-3.76,3.67-3.76.82,0,.84,1.44.84,2.05v2.96c0,.48.02,1.27.68,1.27,1.12,0,2.43-1.98,2.91-2.91.11-.19.27-.49.51-.49.21,0,.36.23.36.42,0,.11-.11.32-.15.42-.61,1.31-2.47,3.59-4.05,3.59-1.31,0-1.54-1.42-1.54-2.47v-.32l.08-2.41c0-.11-.02-.42-.19-.42-.15,0-.38.23-.49.34-.7.68-1.33,1.65-1.84,2.47-.61.99-1.1,2.03-1.58,3.08-.17.34-.47.68-.87.68-.29,0-.44-.25-.44-.53"/>
      <path class="cls-3" d="M63.21,4.48c-.78.82-1.86,2.43-1.86,3.61,0,.44.15.82.65.82,1.31,0,3.65-3.08,4.12-4.22.21-.48.65-1.1,1.24-1.1.51,0,.78.34.78.82,0,3.63-.34,13.66-5.53,13.66-.68,0-1.22-.27-1.56-.87-.06-.13-.13-.25-.13-.4,0-.25.08-.07.36-.07.53,0,.48.34,1.25.47,2.44.41,3.78-7.33,3.78-9.37,0-.57,0-1.14-.06-1.71-.8,1.35-2.72,3.89-4.43,3.89-1.16,0-1.54-.97-1.54-1.99,0-1.54.91-3.25,1.99-4.33s2.43-1.67,3.93-1.67c.59,0,2.3.38,2.3,1.16,0,.13-.13.21-.23.21-.28,0-.91-.59-1.69-.59-1.31,0-2.49.76-3.36,1.67"/>
      <path d="M75.2,1.71v6.01c0,.61.11,1.09.32,1.42.21.33.5.49.87.49.2,0,.39-.02.57-.06.18-.04.33-.08.44-.13v1.18c-.12.08-.3.15-.54.2-.24.05-.45.08-.64.08-1.43,0-2.15-1.04-2.15-3.12V1.71"/>
      <path d="M83.31,10.77v-4.79c0-.6-.14-1.05-.41-1.35-.27-.3-.71-.44-1.29-.44-.78,0-1.35.21-1.71.63-.36.42-.54,1.12-.54,2.08v3.87h-1.12V.26h1.12v3.18c0,.38-.02.7-.05.95h.07c.22-.35.54-.64.94-.84.41-.2.87-.31,1.4-.31.9,0,1.58.21,2.04.64.45.43.68,1.11.68,2.05v4.83h-1.12Z"/>
      <path d="M88.56,4.17c-.59,0-1.07.19-1.42.58-.35.39-.56.92-.62,1.61h3.87c0-.71-.16-1.25-.47-1.62-.32-.38-.77-.56-1.35-.56M88.87,10.91c-1.09,0-1.96-.33-2.59-1-.63-.67-.95-1.59-.95-2.78s.29-2.14.88-2.84c.59-.7,1.38-1.05,2.37-1.05.93,0,1.66.3,2.2.92.54.61.81,1.42.81,2.42v.71h-5.1c.02.87.24,1.53.66,1.98.42.45,1,.68,1.76.68.8,0,1.59-.17,2.36-.5v1c-.4.17-.77.29-1.12.37-.35.08-.78.11-1.28.11"/>
      <path d="M102.23,10.77l-1.36-4.34c-.08-.27-.24-.87-.48-1.81h-.05c-.18.79-.34,1.4-.47,1.82l-1.4,4.33h-1.3l-2.02-7.4h1.18c.48,1.86.84,3.28,1.09,4.25.25.97.39,1.63.43,1.96h.05c.05-.26.13-.59.24-1,.11-.41.21-.73.29-.97l1.36-4.25h1.22l1.32,4.25c.25.77.42,1.42.51,1.95h.05c.02-.16.07-.41.15-.75.08-.34.55-2.15,1.41-5.45h1.16l-2.05,7.4h-1.33Z"/>
      <path d="M107.06,7.06c0,.95.19,1.67.57,2.16.38.5.93.74,1.67.74s1.29-.25,1.67-.74c.38-.49.57-1.21.57-2.17s-.19-1.66-.57-2.14c-.38-.49-.94-.73-1.68-.73s-1.29.24-1.66.72c-.37.48-.56,1.2-.56,2.15M112.7,7.06c0,1.21-.3,2.15-.91,2.83-.61.68-1.45,1.02-2.52,1.02-.66,0-1.25-.15-1.76-.47-.51-.31-.91-.76-1.19-1.34-.28-.58-.42-1.26-.42-2.04,0-1.21.3-2.15.9-2.82.6-.67,1.44-1.01,2.51-1.01s1.86.35,2.47,1.03.91,1.62.91,2.8"/>
      <path d="M117.41,3.24c.33,0,.62.03.88.08l-.16,1.04c-.31-.07-.58-.1-.81-.1-.6,0-1.11.24-1.54.73-.43.49-.64,1.09-.64,1.82v3.97h-1.12V3.37h.93l.13,1.37h.05c.27-.48.6-.85.99-1.11.39-.26.81-.39,1.28-.39"/>
    </g>
    <rect x="119.04" y=".26" width="1.12" height="10.51"/>
    <g>
      <path d="M124.7,9.97c.76,0,1.32-.21,1.67-.62.34-.42.52-1.09.52-2.02v-.24c0-1.05-.17-1.8-.52-2.25s-.91-.67-1.67-.67c-.66,0-1.16.26-1.51.77-.35.51-.52,1.23-.52,2.16s.17,1.66.52,2.14c.35.48.85.72,1.53.72M126.94,9.78h-.06c-.52.75-1.29,1.13-2.32,1.13-.97,0-1.72-.33-2.26-.99-.54-.66-.81-1.6-.81-2.82s.27-2.17.81-2.84c.54-.67,1.29-1.01,2.26-1.01s1.77.37,2.31,1.09h.09l-.05-.53-.03-.52V.26h1.12v10.51h-.91l-.15-.99Z"/>
      <path d="M21.57,29.21l-1.36-4.34c-.08-.27-.24-.87-.48-1.81h-.05c-.18.79-.34,1.4-.47,1.82l-1.4,4.33h-1.3l-2.02-7.4h1.18c.48,1.86.84,3.28,1.09,4.25.25.97.39,1.63.43,1.96h.05c.05-.26.13-.59.24-1,.11-.41.21-.73.29-.97l1.36-4.25h1.22l1.32,4.25c.25.77.42,1.42.51,1.95h.05c.02-.16.07-.41.15-.75.08-.34.55-2.15,1.41-5.45h1.16l-2.05,7.4h-1.33Z"/>
      <path d="M26.7,29.21h-1.12v-7.4h1.12v7.4ZM25.48,19.8c0-.26.06-.45.19-.56.13-.12.28-.18.47-.18s.33.06.47.18c.13.12.2.31.2.56s-.07.44-.2.56c-.13.12-.29.19-.47.19-.19,0-.35-.06-.47-.19-.13-.12-.19-.31-.19-.56"/>
      <path d="M30.76,28.42c.2,0,.39-.02.57-.04s.33-.06.44-.09v.86c-.12.06-.3.11-.54.15-.24.04-.45.06-.64.06-1.43,0-2.15-.75-2.15-2.26v-4.4h-1.06v-.54l1.06-.47.47-1.58h.65v1.72h2.15v.87h-2.15v4.36c0,.45.11.79.32,1.03.21.24.5.36.87.36"/>
      <path d="M37.61,29.21v-4.79c0-.6-.14-1.05-.41-1.35-.27-.3-.71-.44-1.29-.44-.78,0-1.35.21-1.71.63-.36.42-.54,1.12-.54,2.08v3.87h-1.12v-10.51h1.12v3.18c0,.38-.02.7-.05.95h.07c.22-.35.54-.64.94-.84.41-.2.87-.31,1.4-.31.9,0,1.58.21,2.04.64.45.43.68,1.11.68,2.05v4.83h-1.12Z"/>
      <path class="cls-3" d="M43.88,30.46c0,.37-.02.98-.54.98-.35,0-.48-.27-.54-.58-.19-1-.19-2.39-.19-3.78,0-2.53.23-5.06.62-7.58.29-1.87.6-3.78,1.16-5.6.25-.83.75-1.58,1.7-1.58.35,0,.52.21.52.56,0,.31-.1.62-.21.91-.29.81-.5,1.66-.87,3.17-.56,2.37-1,4.75-1.27,7.16,1.2-1.27,2.51-2.41,3.78-3.61.19-.17.48-.5.75-.5.23,0,.44.25.44.48,0,.31-.33.58-.56.77-1.43,1.16-2.76,2.43-4.09,3.69.56.21,1.06.52,1.58.81.85.48,1.72.93,2.51,1.49.29.21.64.54.64.93,0,.25-.25.29-.44.29-.23,0-.44-.1-.64-.21l-2.8-1.47c-.4-.21-.77-.41-1.18-.56-.14.85-.37,2.82-.37,4.21"/>
      <path class="cls-3" d="M49.9,29.44c0-2.03.54-4.27.96-6.27.12-.64.23-1.31.37-1.95.1-.5.68-1,1.2-1,.48,0,.62.27.62.71,0,.71-.29,1.56-.54,2.22-.29.77-.46,1.58-.56,2.39,0,0,2.53-3.69,3.61-3.69.81,0,.83,1.41.83,2.01v2.9c0,.48.02,1.24.66,1.24,1.1,0,2.39-1.95,2.86-2.86.1-.19.27-.48.5-.48.21,0,.35.23.35.42,0,.1-.1.31-.15.42-.6,1.29-2.43,3.53-3.98,3.53-1.29,0-1.51-1.39-1.51-2.43v-.31l.08-2.37c0-.1-.02-.42-.19-.42-.15,0-.37.23-.48.33-.68.66-1.31,1.62-1.8,2.43-.6.97-1.08,1.99-1.56,3.03-.17.33-.46.66-.85.66-.29,0-.44-.25-.44-.52"/>
      <path class="cls-3" d="M60.9,26.89c0,.66.19,1.7,1.04,1.7.35,0,.68-.19.96-.39,1.04-.81,1.47-2.35,1.47-3.61,0-.68-.19-1.87-1.08-1.87-1.56,0-2.39,2.93-2.39,4.17M63.28,21.35c1.54,0,1.95,1.6,1.95,2.84,0,1.83-.64,3.82-2.22,4.88-.48.31-1.04.54-1.62.54-1.49,0-1.99-1.52-1.99-2.76,0-2.07,1.41-5.5,3.88-5.5"/>
      <path class="cls-3" d="M73.29,30.02c-.48,0-.89-.23-1.22-.56-.71-.7-.98-3.15-1.02-4.15,0,0-3.03,3.88-4.34,3.88-1.04,0-1.12-1.06-1.12-1.85,0-1.16.96-4.19,1.6-5.17.21-.31.58-.44.93-.44.29,0,.66.1.66.46,0,.14-.08.29-.14.42-.71,1.35-1.43,3.42-1.43,4.96,0,.08,0,.29.12.29.33,0,.98-.64,1.2-.87.73-.73,1.39-1.54,1.97-2.39.23-.35.5-.85.71-1.14.17-.25.5-.27.77-.27.56,0,.6.52.6.95,0,.71.37,4.73,1.18,4.73,1.1,0,1.49-3.49,1.49-4.32,0-.31-.02-1.08-.14-1.33-.17-.33-.37-.37-.37-.81,0-.27.19-.58.48-.58.77,0,.83,1.93.83,2.47,0,1.7-.41,5.71-2.76,5.71"/>
      <path class="cls-3" d="M79.54,15.81c-.6,1.99-1.18,4.28-1.18,6.27,0,.21,0,.39.02.6,1.35-2.26,3.2-6.31,3.2-8.94,0-.19,0-.77-.31-.77-.87,0-1.49,2.08-1.72,2.84M76.76,23.46c0-2.88.44-5.79,1.58-8.45.44-1,1.62-3.05,2.86-3.05.98,0,1.25,1.08,1.25,1.87,0,2.59-1.35,6.29-2.59,8.55-.29.56-.66,1.06-1,1.6-.1.17-.29.41-.35.6-.08.23-.08.67-.08.91,0,.81.17,3.28,1.31,3.28,1.02,0,2.43-1.72,2.95-2.53l.54-.85c.1-.17.23-.29.44-.29.23,0,.29.19.29.37,0,.25-.14.5-.29.73l-.02.02c-.81,1.35-2.62,3.8-4.34,3.8-2.3,0-2.53-4.94-2.53-6.56"/>
      <path class="cls-3" d="M84.25,25.33c.89-.54,2.24-1.95,2.24-3.05,0-.23-.08-.48-.35-.48-.83,0-1.76,2.8-1.89,3.53M82.48,26.66c0-1.87,1.51-5.83,3.76-5.83.75,0,1.16.52,1.16,1.24,0,1.39-1.95,3.59-3.22,4.05-.06.29-.1.58-.1.87,0,.93.37,1.51,1.35,1.51,1.74,0,3.13-1.49,3.96-2.88.12-.21.33-.54.62-.54.12,0,.29.08.29.23,0,.27-.06.39-.19.62-1.08,1.89-3.07,3.55-5.33,3.55-1.64,0-2.3-1.35-2.3-2.82"/>
      <path class="cls-3" d="M95.31,23.55c1.1-2.35,2.72-6.43,2.72-9.01,0-.1,0-.58-.21-.58-1.16,0-2.51,7.45-2.51,9.38v.21ZM90.04,27.7c0,.14,0,.42.21.42.87,0,3.15-2.3,3.53-3.01-.04-.6-.04-1.18-.04-1.79-1.87,0-3.69,2.66-3.69,4.38M90.12,29.02c-.89,0-1.24-1.24-1.24-1.95,0-2.24,1.7-5.15,3.86-5.15.41,0,.79.17,1.06.48,0-2.97,1.64-9.84,3.96-9.84,1,0,1.16,1.51,1.16,2.24,0,2.9-2.14,7.84-3.49,10.46,0,.6.04,3.22.89,3.22,1.91,0,3.28-3.53,3.84-3.53.25,0,.35.14.35.33,0,.29-.25.66-.41.91-.93,1.39-2.32,3.36-4.11,3.36-1.43,0-1.91-2.05-2.1-3.15-.77.85-2.57,2.61-3.78,2.61"/>
      <path class="cls-3" d="M101.9,23.38c-.77.81-1.83,2.39-1.83,3.55,0,.44.15.81.64.81,1.29,0,3.59-3.03,4.05-4.15.21-.48.64-1.08,1.22-1.08.5,0,.77.33.77.81,0,3.57-.33,13.43-5.44,13.43-.66,0-1.2-.27-1.54-.85-.06-.12-.12-.25-.12-.39,0-.25.19-.5.46-.5.52,0,.35.89,1.12.89,2.66,0,3.71-7.2,3.71-9.21,0-.56,0-1.12-.06-1.68-.79,1.33-2.68,3.82-4.36,3.82-1.14,0-1.51-.96-1.51-1.95,0-1.51.89-3.2,1.95-4.25,1.04-1.04,2.39-1.64,3.86-1.64.58,0,2.26.37,2.26,1.14,0,.12-.12.21-.23.21-.27,0-.89-.58-1.66-.58-1.29,0-2.45.75-3.3,1.64"/>
      <path class="cls-3" d="M109.25,25.33c.89-.54,2.24-1.95,2.24-3.05,0-.23-.08-.48-.35-.48-.83,0-1.76,2.8-1.89,3.53M107.48,26.66c0-1.87,1.51-5.83,3.76-5.83.75,0,1.16.52,1.16,1.24,0,1.39-1.95,3.59-3.22,4.05-.06.29-.1.58-.1.87,0,.93.37,1.51,1.35,1.51,1.74,0,3.13-1.49,3.96-2.88.12-.21.33-.54.62-.54.12,0,.29.08.29.23,0,.27-.06.39-.19.62-1.08,1.89-3.07,3.55-5.33,3.55-1.64,0-2.3-1.35-2.3-2.82"/>
      <path class="cls-2" d="M61.83,16.76c-1.35-3.78,2.6-7.01,5.46-8.67,3.09-1.8,6.67-2.67,10.25-2.49.62.03.62-.93,0-.96-3.92-.19-7.88.83-11.21,2.91-3.08,1.92-6.87,5.43-5.42,9.47.21.58,1.13.33.93-.26"/>
    </g>
    <path class="cls-3" d="M117.72,21.54l-.62-1.74h-.02l.02.4v1.34h-.37v-2.24h.58l.61,1.74.63-1.74h.56v2.24h-.39v-1.31l.02-.43h-.03l-.66,1.73h-.32ZM115.85,21.54h-.38v-1.91h-.65v-.33h1.69v.33h-.66v1.91Z"/>
  </g>
</svg>