<?xml version="1.0" encoding="UTF-8"?>
<svg id="Layer_2" data-name="Layer 2" xmlns="http://www.w3.org/2000/svg" viewBox="0 0 172.17 34.78">
  <defs>
    <style>
      .cls-1 {
        fill: #211f1f;
      }

      .cls-2 {
        fill: #241f21;
      }

      .cls-3 {
        fill: #a31f36;
      }
    </style>
  </defs>
  <g id="Layer_1-2" data-name="Layer 1">
    <path class="cls-2" d="M81.58,15.37c-.7-.71-.73-1.98-.61-2.8.06-.65.27-1.19.6-1.56.34-.38.8-.56,1.38-.56s1,.18,1.31.55c.3.36.56.93.56,1.61l1.06.29c0-.97-.26-1.88-.78-2.47-.52-.59-1.24-.89-2.14-.89-.96,0-1.73.34-2.29,1.02-.57.68-.85,1.6-.85,2.76s.31,2.05.92,2.69c.61.65,1.45.97,2.51.97.48,0,.9-.04,1.24-.11s.71-.19,1.09-.36v-.97c-.76.32-1.52.49-2.29.49-.73,0-1.29-.23-1.71-.65"/>
    <rect class="cls-1" x="77.63" y="6.7" width="1.08" height="10.15"/>
    <g>
      <path class="cls-3" d="M68.42,17.34c2.36,1.61,4.95-.95,6.92-2.04,1.48-.82,3.05-1.46,4.72-1.75,1.8-.31,3.64-.21,5.44,0,.56.06.55-.81,0-.87-3.26-.36-6.36-.17-9.36,1.24-1.21.57-2.28,1.29-3.4,2.01-1.12.72-2.63,1.54-3.89.68-.46-.32-.9.44-.44.75"/>
      <path class="cls-3" d="M46.74,30.75c0-2.09,1.33-5.08,3.76-5.08,1,0,1.63.46,1.63,1.53,0,.62-.16,1.71-.98,1.71-.12,0-.22-.06-.22-.2,0-.3.36-.78.36-1.37,0-.36-.02-.78-.48-.78-1.53,0-2.37,3.23-2.37,4.42,0,1.02.4,2.09,1.61,2.09,1.79,0,3.21-1.38,4.08-2.83.12-.2.34-.52.6-.52.18,0,.32.14.32.32,0,.14-.08.28-.16.42-1.12,2.03-3.17,3.71-5.54,3.71-1.85,0-2.59-1.83-2.59-3.41"/>
      <path class="cls-3" d="M55.59,31.47c0,.64.18,1.65,1,1.65.34,0,.66-.18.92-.38,1-.78,1.43-2.27,1.43-3.49,0-.66-.18-1.81-1.04-1.81-1.51,0-2.31,2.83-2.31,4.04M57.9,26.11c1.49,0,1.89,1.55,1.89,2.75,0,1.77-.62,3.69-2.15,4.72-.46.3-1,.52-1.57.52-1.45,0-1.93-1.47-1.93-2.67,0-2.01,1.37-5.32,3.75-5.32"/>
      <path class="cls-3" d="M60.1,33.94c0-1.97.52-4.14.92-6.06.12-.62.22-1.26.36-1.89.1-.48.66-.96,1.16-.96.46,0,.6.26.6.68,0,.68-.28,1.51-.52,2.15-.28.74-.44,1.53-.54,2.31,0,0,2.45-3.57,3.49-3.57.78,0,.8,1.37.8,1.95v2.81c0,.46.02,1.2.64,1.2,1.06,0,2.31-1.89,2.77-2.77.1-.18.26-.46.48-.46.2,0,.34.22.34.4,0,.1-.1.3-.14.4-.58,1.25-2.35,3.41-3.85,3.41-1.24,0-1.47-1.35-1.47-2.35v-.3l.08-2.29c0-.1-.02-.4-.18-.4-.14,0-.36.22-.46.32-.66.64-1.26,1.57-1.75,2.35-.58.94-1.04,1.93-1.51,2.93-.16.32-.44.64-.82.64-.28,0-.42-.24-.42-.5"/>
      <path class="cls-3" d="M69.08,33.94c0-1.97.52-4.14.92-6.06.12-.62.22-1.26.36-1.89.1-.48.66-.96,1.16-.96.46,0,.6.26.6.68,0,.68-.28,1.51-.52,2.15-.28.74-.44,1.53-.54,2.31,0,0,2.45-3.57,3.49-3.57.78,0,.8,1.37.8,1.95v2.81c0,.46.02,1.2.64,1.2,1.06,0,2.31-1.89,2.77-2.77.1-.18.26-.46.48-.46.2,0,.34.22.34.4,0,.1-.1.3-.14.4-.58,1.25-2.35,3.41-3.85,3.41-1.24,0-1.47-1.35-1.47-2.35v-.3l.08-2.29c0-.1-.02-.4-.18-.4-.14,0-.36.22-.46.32-.66.64-1.26,1.57-1.75,2.35-.58.94-1.04,1.93-1.51,2.93-.16.32-.44.64-.82.64-.28,0-.42-.24-.42-.5"/>
      <path class="cls-3" d="M87.15,31.29c-.74,1.04-2.21,2.87-3.61,2.87-1.32,0-1.49-2.17-1.49-3.11-.52.82-1.75,2.65-2.81,2.65-.98,0-1.21-1.32-1.21-2.09,0-2.11,2.19-5.78,4.54-5.78.28,0,.66.34.66.62,0,.12-.1.18-.2.24-.72.42-1.39.88-1.97,1.49-1.04,1.06-1.71,2.43-1.71,3.93,0,.16.02.48.26.48.9,0,2.59-3.55,2.97-4.38.14-.3.3-.6.68-.6.2,0,.46.06.46.32,0,.28-.26.86-.36,1.16-.22.68-.3,1.53-.3,2.23,0,.42.02,1.97.64,1.97.94,0,2.45-1.99,2.99-2.71,0,0,.28-.5.56-.5.24,0,.32.16.32.38,0,.24-.3.62-.44.82"/>
      <path class="cls-3" d="M89.87,24.66c0,.52-.42,1.06-.96,1.06-.42,0-.68-.36-.68-.76,0-.5.4-1.06.94-1.06.42,0,.7.36.7.76M89.07,33.16c1.08,0,2.65-2.31,3.25-3.25.12-.18.28-.42.5-.42.26,0,.26.24.26.44,0,.26-.38.8-.54,1.02-.76,1.08-2.47,3.21-3.9,3.21-1.59,0-1.83-2.27-1.83-3.43,0-.74.2-1.77.42-2.47.24-.72.6-1.28,1.44-1.28.3,0,.46.12.46.44,0,.54-.46,1.52-.6,2.13-.12.58-.18,1.18-.18,1.79,0,.46.02,1.83.7,1.83"/>
      <path class="cls-3" d="M96.7,31.95c0,.54-.14,1.08-.46,1.55.92,0,2.81-2.07,3.33-2.85.12-.18.3-.44.52-.44.24,0,.3.2.3.4,0,.14-.12.3-.18.42-1.51,2.37-3.23,3.76-6.14,3.76-.76,0-1.79-.1-2.37-.66-.12-.12-.22-.26-.22-.44,0-.2.14-.3.32-.3.16,0,.4.18.36.14.42.32.9.38,1.43.38,1.06,0,1.63-.72,1.63-1.75,0-1.2-.74-2.91-1.41-3.89-.38,1.08-1.16,2.73-1.97,3.53-.12.12-.32.32-.52.32-.16,0-.28-.12-.28-.28,0-.2.12-.36.24-.52.9-1.12,1.61-2.45,2.05-3.83-.12-.34-.18-.7-.18-1.07,0-.78.52-2.35,1.49-2.35.5,0,.64.68.64,1.08,0,.66-.22,1.37-.46,1.99.64,1.55,1.89,3.09,1.89,4.82"/>
      <path class="cls-3" d="M104.43,31.95c0,.54-.14,1.08-.46,1.55.92,0,2.81-2.07,3.33-2.85.12-.18.3-.44.52-.44.24,0,.3.2.3.4,0,.14-.12.3-.18.42-1.51,2.37-3.23,3.76-6.15,3.76-.76,0-1.79-.1-2.37-.66-.12-.12-.22-.26-.22-.44,0-.2.14-.3.32-.3.16,0,.4.18.36.14.42.32.9.38,1.43.38,1.06,0,1.63-.72,1.63-1.75,0-1.2-.74-2.91-1.41-3.89-.38,1.08-1.16,2.73-1.97,3.53-.12.12-.32.32-.52.32-.16,0-.28-.12-.28-.28,0-.2.12-.36.24-.52.9-1.12,1.61-2.45,2.05-3.83-.12-.34-.18-.7-.18-1.07,0-.78.52-2.35,1.49-2.35.5,0,.64.68.64,1.08,0,.66-.22,1.37-.46,1.99.64,1.55,1.89,3.09,1.89,4.82"/>
      <path class="cls-3" d="M116.17,31.29c-.74,1.04-2.21,2.87-3.61,2.87-1.32,0-1.49-2.17-1.49-3.11-.52.82-1.75,2.65-2.81,2.65-.98,0-1.21-1.32-1.21-2.09,0-2.11,2.19-5.78,4.54-5.78.28,0,.66.34.66.62,0,.12-.1.18-.2.24-.72.42-1.39.88-1.97,1.49-1.04,1.06-1.71,2.43-1.71,3.93,0,.16.02.48.26.48.9,0,2.59-3.55,2.97-4.38.14-.3.3-.6.68-.6.2,0,.46.06.46.32,0,.28-.26.86-.36,1.16-.22.68-.3,1.53-.3,2.23,0,.42.02,1.97.64,1.97.94,0,2.45-1.99,2.99-2.71,0,0,.28-.5.56-.5.24,0,.32.16.32.38,0,.24-.3.62-.44.82"/>
      <path class="cls-3" d="M115.45,33.94c0-1.97.52-4.14.92-6.06.12-.62.22-1.26.36-1.89.1-.48.66-.96,1.16-.96.46,0,.6.26.6.68,0,.68-.28,1.51-.52,2.15-.28.74-.44,1.53-.54,2.31,0,0,2.45-3.57,3.49-3.57.78,0,.8,1.37.8,1.95v2.81c0,.46.02,1.2.64,1.2,1.06,0,2.31-1.89,2.77-2.77.1-.18.26-.46.48-.46.2,0,.34.22.34.4,0,.1-.1.3-.14.4-.58,1.25-2.35,3.41-3.85,3.41-1.24,0-1.47-1.35-1.47-2.35v-.3l.08-2.29c0-.1-.02-.4-.18-.4-.14,0-.36.22-.46.32-.66.64-1.26,1.57-1.75,2.35-.58.94-1.04,1.93-1.51,2.93-.16.32-.44.64-.82.64-.28,0-.42-.24-.42-.5"/>
      <path class="cls-3" d="M124.83,30.75c0-2.09,1.33-5.08,3.76-5.08,1,0,1.63.46,1.63,1.53,0,.62-.16,1.71-.98,1.71-.12,0-.22-.06-.22-.2,0-.3.36-.78.36-1.37,0-.36-.02-.78-.48-.78-1.53,0-2.37,3.23-2.37,4.42,0,1.02.4,2.09,1.61,2.09,1.79,0,3.21-1.38,4.08-2.83.12-.2.34-.52.6-.52.18,0,.32.14.32.32,0,.14-.08.28-.16.42-1.12,2.03-3.17,3.71-5.54,3.71-1.85,0-2.59-1.83-2.59-3.41"/>
      <path class="cls-3" d="M133.62,29.96c.86-.52,2.17-1.89,2.17-2.95,0-.22-.08-.46-.34-.46-.8,0-1.71,2.71-1.83,3.41M131.91,31.25c0-1.81,1.47-5.64,3.63-5.64.72,0,1.12.5,1.12,1.2,0,1.35-1.89,3.47-3.11,3.92-.06.28-.1.56-.1.84,0,.9.36,1.47,1.3,1.47,1.69,0,3.03-1.45,3.84-2.79.12-.2.32-.52.6-.52.12,0,.28.08.28.22,0,.26-.06.38-.18.6-1.04,1.83-2.97,3.43-5.16,3.43-1.59,0-2.23-1.31-2.23-2.73"/>
      <path class="cls-3" d="M143.2,31.95c0,.54-.14,1.08-.46,1.55.92,0,2.81-2.07,3.33-2.85.12-.18.3-.44.52-.44.24,0,.3.2.3.4,0,.14-.12.3-.18.42-1.51,2.37-3.23,3.76-6.15,3.76-.76,0-1.79-.1-2.37-.66-.12-.12-.22-.26-.22-.44,0-.2.14-.3.32-.3.16,0,.4.18.36.14.42.32.9.38,1.43.38,1.06,0,1.63-.72,1.63-1.75,0-1.2-.74-2.91-1.41-3.89-.38,1.08-1.16,2.73-1.97,3.53-.12.12-.32.32-.52.32-.16,0-.28-.12-.28-.28,0-.2.12-.36.24-.52.9-1.12,1.61-2.45,2.05-3.83-.12-.34-.18-.7-.18-1.07,0-.78.52-2.35,1.49-2.35.5,0,.64.68.64,1.08,0,.66-.22,1.37-.46,1.99.64,1.55,1.89,3.09,1.89,4.82"/>
      <path class="cls-3" d="M4.02,15.38s.08-.06.14-.06c.24,0,.42.28.98.28,1.63,0,2.95-3.57,2.95-4.92,0-.4-.1-.98-.6-.98-.92,0-2.67,2.27-3.11,3.07-.16.26-.3,1.95-.36,2.51v.1ZM.86,24.58c0,.16,0,.9.24.9.34,0,.64-1.95.68-2.21.36-2.27.58-4.58.72-6.87-.8,1.93-1.65,6.08-1.65,8.17M3.96,15.98l-.04.5c-.22,2.53-.6,6.71-1.43,8.73-.22.54-.7,1.32-1.38,1.32-.92,0-1.1-1.4-1.1-2.07,0-3.01,1.29-7.11,2.25-10,.08-.24.1-.8.4-3.88.04-.48-.02-1.57.68-1.57.54,0,1.02.74,1.02,1.22s-.1.92-.14,1.39c.7-.94,2.23-2.79,3.51-2.79s1.65,1.12,1.65,2.21c0,1.44-.7,3.59-1.77,4.62-.26.26-.58.48-.94.54.2.04.4.06.6.06,1.87,0,3.53-1.51,4.4-3.05.1-.16.22-.5.46-.5.22,0,.34.14.34.36,0,.24-.06.38-.18.56-1.18,1.95-2.83,3.37-5.18,3.37-.94,0-2.57-.2-3.15-1.04"/>
      <path class="cls-3" d="M13.39,11.16c-.42,1.16-1.04,2.69-1.93,3.59-.14.14-.32.3-.54.3-.16,0-.26-.1-.26-.26s.08-.3.18-.44c.76-1.1,1.57-2.27,1.73-3.63-.36-.48-.52-1.08-.52-1.69s.38-2.25,1.18-2.25c.56,0,.66,1.16.66,1.57,0,.32-.02.64-.06.96.62.94,2.39,1.02,2.39,2.81,0,.26-.04.52-.1.78-.22.94-.4,1.87-.4,2.83,0,.26,0,.74.38.74.92,0,2.57-2.09,3.09-2.87.12-.18.3-.44.52-.44.24,0,.28.22.28.42,0,.16-.08.3-.16.42-.64,1.04-2.67,3.41-3.96,3.41s-1.4-1.87-1.4-2.81c0-.74.1-1.47.1-2.21,0-.66-.6-1.06-1.18-1.25"/>
      <path class="cls-3" d="M20.03,14.44c0,.64.18,1.65,1,1.65.34,0,.66-.18.92-.38,1-.78,1.43-2.27,1.43-3.49,0-.66-.18-1.81-1.04-1.81-1.51,0-2.31,2.83-2.31,4.04M22.34,9.08c1.49,0,1.89,1.55,1.89,2.75,0,1.77-.62,3.69-2.15,4.72-.46.3-1,.52-1.57.52-1.45,0-1.93-1.47-1.93-2.67,0-2.01,1.36-5.32,3.75-5.32"/>
      <path class="cls-3" d="M27.1,15.38s.08-.06.14-.06c.24,0,.42.28.98.28,1.63,0,2.95-3.57,2.95-4.92,0-.4-.1-.98-.6-.98-.92,0-2.67,2.27-3.11,3.07-.16.26-.3,1.95-.36,2.51v.1ZM23.95,24.58c0,.16,0,.9.24.9.34,0,.64-1.95.68-2.21.36-2.27.58-4.58.72-6.87-.8,1.93-1.65,6.08-1.65,8.17M27.04,15.98l-.04.5c-.22,2.53-.6,6.71-1.43,8.73-.22.54-.7,1.32-1.38,1.32-.92,0-1.1-1.4-1.1-2.07,0-3.01,1.29-7.11,2.25-10,.08-.24.1-.8.4-3.88.04-.48-.02-1.57.68-1.57.54,0,1.02.74,1.02,1.22s-.1.92-.14,1.39c.7-.94,2.23-2.79,3.51-2.79s1.65,1.12,1.65,2.21c0,1.44-.7,3.59-1.77,4.62-.26.26-.58.48-.94.54.2.04.4.06.6.06,1.87,0,3.53-1.51,4.4-3.05.1-.16.22-.5.46-.5.22,0,.34.14.34.36,0,.24-.06.38-.18.56-1.18,1.95-2.83,3.37-5.18,3.37-.94,0-2.57-.2-3.15-1.04"/>
      <path class="cls-3" d="M35.21,10.4c.2-.6.74-.98,1.37-.98.3,0,.46.14.46.44,0,.22-.08.44-.14.66-.42,1.33-.94,3.35-.94,4.74,0,.26,0,.8.38.8,1.35,0,3.76-4.12,4.28-5.3.22-.5.4-1.29,1.08-1.29.24,0,.44.06.44.34,0,.26-.12.52-.2.76-.44,1.16-.8,3.11-.8,4.36,0,.38.06,1.43.6,1.43.8,0,2.65-2.57,3.11-3.31.12-.2.38-.56.6-.56.24,0,.28.18.28.38,0,.14-.08.3-.14.42-.64,1.26-2.75,3.96-4.28,3.96-1.23,0-1.32-1.95-1.32-2.83,0-.26,0-.5.04-.76-.78,1.12-2.41,3.25-3.91,3.25-1.43,0-1.45-1.81-1.45-2.83,0-1.21.16-2.53.54-3.67"/>
      <path class="cls-3" d="M47.23,3.72c-.58,1.93-1.14,4.14-1.14,6.06,0,.2,0,.38.02.58,1.31-2.19,3.09-6.1,3.09-8.65,0-.18,0-.74-.3-.74-.84,0-1.45,2.01-1.67,2.75M44.54,11.12c0-2.79.42-5.6,1.53-8.17.42-.96,1.57-2.95,2.77-2.95.94,0,1.21,1.04,1.21,1.81,0,2.51-1.31,6.08-2.51,8.27-.28.54-.64,1.02-.96,1.55-.1.16-.28.4-.34.58-.08.22-.08.64-.08.88,0,.78.16,3.17,1.26,3.17.98,0,2.35-1.67,2.85-2.45l.52-.82c.1-.16.22-.28.42-.28.22,0,.28.18.28.36,0,.24-.14.48-.28.7l-.02.02c-.78,1.31-2.53,3.68-4.2,3.68-2.23,0-2.45-4.78-2.45-6.35"/>
      <path class="cls-3" d="M55.27,14.92c0,.54-.14,1.08-.46,1.55.92,0,2.81-2.07,3.33-2.85.12-.18.3-.44.52-.44.24,0,.3.2.3.4,0,.14-.12.3-.18.42-1.51,2.37-3.23,3.76-6.15,3.76-.76,0-1.79-.1-2.37-.66-.12-.12-.22-.26-.22-.44,0-.2.14-.3.32-.3.16,0,.4.18.36.14.42.32.9.38,1.43.38,1.06,0,1.63-.72,1.63-1.75,0-1.2-.74-2.91-1.41-3.89-.38,1.08-1.16,2.73-1.97,3.53-.12.12-.32.32-.52.32-.16,0-.28-.12-.28-.28,0-.2.12-.36.24-.52.9-1.12,1.61-2.45,2.05-3.83-.12-.34-.18-.7-.18-1.07,0-.78.52-2.35,1.49-2.35.5,0,.64.68.64,1.08,0,.66-.22,1.37-.46,1.99.64,1.55,1.89,3.09,1.89,4.82"/>
      <path class="cls-3" d="M59.78,12.93c.86-.52,2.17-1.89,2.17-2.95,0-.22-.08-.46-.34-.46-.8,0-1.71,2.71-1.83,3.41M58.08,14.22c0-1.81,1.47-5.64,3.63-5.64.72,0,1.12.5,1.12,1.2,0,1.35-1.89,3.47-3.11,3.92-.06.28-.1.56-.1.84,0,.9.36,1.47,1.3,1.47,1.69,0,3.03-1.45,3.84-2.79.12-.2.32-.52.6-.52.12,0,.28.08.28.22,0,.26-.06.38-.18.6-1.04,1.83-2.97,3.43-5.16,3.43-1.59,0-2.23-1.31-2.23-2.73"/>
      <path class="cls-3" d="M68.94,17.43c-1.32,0-1.4-1.87-1.4-2.81,0-.74.1-1.47.1-2.21,0-.66-.6-1.07-1.19-1.25-.42,1.16-1.04,2.69-1.93,3.59-.14.14-.32.3-.54.3-.16,0-.26-.1-.26-.26s.08-.3.18-.44c.76-1.1,1.57-2.27,1.73-3.63-.36-.48-.52-1.08-.52-1.69s.38-2.25,1.19-2.25c.56,0,.66,1.17.66,1.57,0,.32-.02.64-.06.96.62.94,2.39,1.02,2.39,2.81,0,.26-.04.52-.1.78-.22.94-.4,1.87-.4,2.83,0,.26.08.85.4,1.02"/>
      <path class="cls-2" d="M99.51,16.87v-4.86c0-.6-.13-1.04-.38-1.34-.25-.3-.65-.45-1.19-.45-.71,0-1.23.2-1.56.61-.34.4-.5,1.03-.5,1.87v4.17h-1.13v-4.86c0-.6-.13-1.04-.38-1.34-.25-.3-.65-.45-1.19-.45-.71,0-1.23.21-1.56.64-.33.43-.5,1.12-.5,2.09v3.92h-1.13v-7.47h.92l.18,1.02h.05c.21-.36.51-.65.9-.85.39-.2.82-.31,1.31-.31,1.17,0,1.93.42,2.29,1.27h.06c.22-.39.55-.7.97-.93.42-.23.9-.34,1.45-.34.85,0,1.48.22,1.9.65.42.43.63,1.13.63,2.08v4.88h-1.13Z"/>
      <path class="cls-2" d="M102.89,13.13c0,.96.19,1.68.57,2.18.38.5.94.75,1.68.75s1.3-.25,1.69-.75c.38-.5.58-1.23.58-2.19s-.19-1.67-.58-2.17c-.38-.49-.95-.74-1.7-.74s-1.3.24-1.68.73c-.38.49-.57,1.21-.57,2.18M108.59,13.13c0,1.22-.31,2.17-.92,2.85-.61.68-1.46,1.03-2.54,1.03-.67,0-1.26-.16-1.78-.47-.52-.31-.92-.76-1.2-1.35-.28-.59-.42-1.27-.42-2.06,0-1.22.31-2.17.91-2.85.61-.68,1.45-1.02,2.54-1.02s1.88.35,2.49,1.04c.62.69.92,1.64.92,2.82"/>
      <path class="cls-2" d="M114.85,16.87v-4.83c0-.61-.14-1.06-.42-1.36-.28-.3-.71-.45-1.3-.45-.78,0-1.35.21-1.72.63-.36.42-.55,1.12-.55,2.09v3.92h-1.13v-7.47h.92l.18,1.02h.05c.23-.37.56-.65.98-.86.42-.2.88-.3,1.4-.3.9,0,1.58.22,2.03.65s.68,1.13.68,2.08v4.88h-1.13Z"/>
      <path class="cls-2" d="M120.29,16.06c.77,0,1.33-.21,1.68-.63.35-.42.52-1.1.52-2.03v-.24c0-1.06-.18-1.82-.53-2.27-.35-.45-.92-.68-1.69-.68-.66,0-1.17.26-1.52.77-.35.52-.53,1.24-.53,2.19s.18,1.67.53,2.16c.35.49.86.73,1.54.73M122.56,15.87h-.06c-.52.76-1.3,1.14-2.35,1.14-.98,0-1.74-.33-2.28-1-.54-.67-.82-1.62-.82-2.85s.27-2.19.82-2.87c.55-.68,1.3-1.02,2.28-1.02s1.79.37,2.33,1.11h.09l-.05-.54-.03-.53v-3.04h1.13v10.61h-.92l-.15-1Z"/>
      <path class="cls-2" d="M128.04,10.21c-.6,0-1.08.2-1.43.59-.36.39-.57.93-.63,1.62h3.91c0-.71-.16-1.26-.48-1.64-.32-.38-.77-.57-1.36-.57M128.35,17.01c-1.1,0-1.98-.34-2.62-1.01-.64-.67-.96-1.61-.96-2.8s.3-2.16.89-2.87c.59-.71,1.39-1.06,2.39-1.06.94,0,1.68.31,2.22.92.55.62.82,1.43.82,2.44v.72h-5.15c.02.88.24,1.54.66,2,.42.45,1.01.68,1.78.68.8,0,1.6-.17,2.39-.5v1.01c-.4.17-.78.3-1.14.37-.36.07-.79.11-1.29.11"/>
      <path class="cls-2" d="M138.36,8.41h-.75c-.3-.24-.65-.57-1.05-1.01-.4-.44-.7-.8-.88-1.08v-.14h1.38c.15.31.35.68.61,1.09.26.41.49.74.69.98v.17ZM137.01,16.08c.7,0,1.26-.19,1.66-.58.4-.39.6-.93.6-1.62v-.68l-1.13.05c-.9.03-1.55.17-1.95.42-.4.25-.6.63-.6,1.15,0,.41.12.72.37.94.25.21.59.32,1.04.32M139.57,16.87l-.23-1.06h-.05c-.37.47-.74.79-1.12.95-.37.17-.83.25-1.39.25-.74,0-1.32-.19-1.74-.57-.42-.38-.63-.93-.63-1.63,0-1.51,1.21-2.3,3.62-2.37l1.27-.04v-.46c0-.59-.13-1.02-.38-1.3-.25-.28-.66-.42-1.21-.42-.62,0-1.33.19-2.11.57l-.35-.87c.37-.2.77-.36,1.21-.47.44-.11.88-.17,1.32-.17.89,0,1.55.2,1.98.59.43.39.65,1.03.65,1.9v5.1h-.84Z"/>
    </g>
    <rect class="cls-2" x="144.69" y="6.26" width="1.13" height="10.61"/>
    <g>
      <path class="cls-2" d="M148.3,6.9l.1.15c-.12.46-.29.98-.51,1.59-.22.6-.46,1.16-.7,1.68h-.83c.32-1.3.55-2.43.7-3.42h1.24Z"/>
      <path class="cls-2" d="M150.96,16.08c.7,0,1.26-.19,1.66-.58.4-.39.6-.93.6-1.62v-.68l-1.13.05c-.9.03-1.55.17-1.95.42-.4.25-.6.63-.6,1.15,0,.41.12.72.37.94.25.21.59.32,1.04.32M153.52,16.87l-.23-1.06h-.05c-.37.47-.74.79-1.11.95-.37.17-.83.25-1.39.25-.74,0-1.32-.19-1.74-.57-.42-.38-.63-.93-.63-1.63,0-1.51,1.21-2.3,3.62-2.37l1.27-.04v-.46c0-.59-.13-1.02-.38-1.3-.25-.28-.66-.42-1.21-.42-.62,0-1.33.19-2.11.57l-.35-.87c.37-.2.77-.36,1.21-.47.44-.11.88-.17,1.32-.17.89,0,1.55.2,1.98.59.43.39.64,1.03.64,1.9v5.1h-.84Z"/>
      <path class="cls-2" d="M156.98,16.87h-1.13v-7.47h1.13v7.47ZM155.76,7.38c0-.26.06-.45.19-.57.13-.12.29-.18.48-.18s.34.06.47.18c.13.12.2.31.2.57s-.07.44-.2.57c-.13.13-.29.19-.47.19-.19,0-.35-.06-.48-.19-.13-.12-.19-.31-.19-.57"/>
      <path class="cls-2" d="M161.37,16.06c.77,0,1.33-.21,1.68-.63.35-.42.52-1.1.52-2.03v-.24c0-1.06-.18-1.82-.53-2.27-.35-.45-.92-.68-1.69-.68-.66,0-1.17.26-1.52.77-.35.52-.53,1.24-.53,2.19s.17,1.67.52,2.16c.35.49.86.73,1.54.73M163.64,15.87h-.06c-.52.76-1.3,1.14-2.35,1.14-.98,0-1.74-.33-2.28-1-.54-.67-.82-1.62-.82-2.85s.27-2.19.82-2.87c.55-.68,1.3-1.02,2.28-1.02s1.79.37,2.33,1.11h.09l-.05-.54-.03-.53v-3.04h1.13v10.61h-.92l-.15-1Z"/>
      <path class="cls-2" d="M169.12,10.21c-.6,0-1.08.2-1.43.59-.36.39-.57.93-.63,1.62h3.91c0-.71-.16-1.26-.48-1.64-.32-.38-.77-.57-1.36-.57M169.43,17.01c-1.11,0-1.98-.34-2.61-1.01-.64-.67-.96-1.61-.96-2.8s.3-2.16.89-2.87c.59-.71,1.39-1.06,2.39-1.06.94,0,1.68.31,2.22.92.55.62.82,1.43.82,2.44v.72h-5.15c.02.88.24,1.54.67,2,.42.45,1.01.68,1.78.68.81,0,1.6-.17,2.39-.5v1.01c-.4.17-.78.3-1.14.37-.36.07-.79.11-1.29.11"/>
      <path class="cls-2" d="M31.64,33.22c.77,0,1.33-.21,1.68-.63.35-.42.52-1.1.52-2.03v-.24c0-1.06-.18-1.82-.53-2.27-.35-.45-.92-.68-1.69-.68-.66,0-1.17.26-1.52.77-.35.52-.53,1.24-.53,2.19s.18,1.67.53,2.16c.35.49.86.73,1.54.73M33.91,33.03h-.06c-.52.76-1.3,1.14-2.35,1.14-.98,0-1.74-.33-2.28-1-.54-.67-.82-1.62-.82-2.85s.27-2.19.82-2.87c.55-.68,1.3-1.02,2.28-1.02s1.79.37,2.33,1.11h.09l-.05-.54-.03-.53v-3.04h1.13v10.61h-.92l-.15-1Z"/>
      <path class="cls-2" d="M39.39,27.37c-.6,0-1.08.2-1.43.59-.36.39-.57.93-.63,1.62h3.91c0-.71-.16-1.26-.48-1.64-.32-.38-.77-.57-1.36-.57M39.7,34.16c-1.1,0-1.98-.34-2.62-1.01-.64-.67-.96-1.61-.96-2.8s.3-2.16.89-2.87c.59-.71,1.39-1.06,2.39-1.06.94,0,1.68.31,2.22.92.55.62.82,1.43.82,2.44v.72h-5.15c.02.88.24,1.54.66,2,.42.45,1.01.68,1.78.68.8,0,1.6-.17,2.39-.5v1.01c-.4.17-.78.3-1.14.37-.36.07-.79.11-1.29.11"/>
      <path class="cls-3" d="M147.98,26.41l-.85-2.21h-.01c.02.18.02.38.02.62v1.58h-.27v-2.49h.44l.79,2.06h.01l.8-2.06h.43v2.49h-.29v-1.61c0-.18,0-.38.02-.6h-.01l-.85,2.21h-.23Z"/>
      <path class="cls-3" d="M151.09,24.14c-.27,0-.49.09-.65.27-.16.18-.24.43-.24.75s.08.58.23.76.37.27.65.27c.17,0,.37-.03.6-.09v.25c-.17.06-.39.1-.64.1-.37,0-.65-.11-.85-.33-.2-.22-.3-.54-.3-.95,0-.26.05-.48.14-.68.1-.19.24-.34.42-.45.18-.11.39-.16.64-.16.26,0,.49.05.69.14l-.12.25c-.19-.09-.38-.13-.57-.13"/>
    </g>
  </g>
</svg>