<?xml version="1.0" encoding="UTF-8"?>
<svg id="Layer_2" data-name="Layer 2" xmlns="http://www.w3.org/2000/svg" viewBox="0 0 222.95 25.68">
  <defs>
    <style>
      .cls-1 {
        fill: #a31f36;
      }
    </style>
  </defs>
  <g id="Layer_1-2" data-name="Layer 1">
    <g>
      <path class="cls-1" d="M3.98,14.61s.08-.06.14-.06c.24,0,.42.28.98.28,1.61,0,2.92-3.54,2.92-4.87,0-.4-.1-.97-.6-.97-.92,0-2.65,2.25-3.08,3.04-.16.26-.3,1.93-.36,2.49v.1ZM.85,23.73c0,.16,0,.89.24.89.34,0,.64-1.93.68-2.19.36-2.25.58-4.54.72-6.8-.8,1.91-1.63,6.03-1.63,8.1M3.92,15.21l-.04.5c-.22,2.51-.6,6.65-1.41,8.65-.22.54-.7,1.31-1.37,1.31-.92,0-1.09-1.39-1.09-2.05,0-2.98,1.27-7.04,2.23-9.91.08-.24.1-.8.4-3.84.04-.48-.02-1.55.68-1.55.54,0,1.01.74,1.01,1.21s-.1.92-.14,1.37c.7-.93,2.21-2.77,3.48-2.77s1.63,1.11,1.63,2.19c0,1.43-.7,3.56-1.75,4.58-.26.26-.58.48-.94.54.2.04.4.06.6.06,1.85,0,3.5-1.49,4.36-3.02.1-.16.22-.5.46-.5.22,0,.34.14.34.36,0,.24-.06.38-.18.56-1.17,1.93-2.81,3.34-5.13,3.34-.94,0-2.55-.2-3.12-1.04"/>
      <path class="cls-1" d="M13.11,13.68c0,.64.18,1.63,1,1.63.34,0,.66-.18.92-.38.99-.77,1.41-2.25,1.41-3.46,0-.66-.18-1.79-1.03-1.79-1.49,0-2.29,2.81-2.29,4M15.4,8.37c1.47,0,1.87,1.53,1.87,2.73,0,1.75-.62,3.66-2.13,4.68-.46.3-.99.52-1.55.52-1.43,0-1.91-1.45-1.91-2.65,0-1.99,1.35-5.27,3.72-5.27"/>
      <path class="cls-1" d="M24.91,16.68c-.46,0-.86-.22-1.17-.54-.68-.68-.93-3.02-.97-3.98,0,0-2.9,3.72-4.16,3.72-.99,0-1.07-1.01-1.07-1.77,0-1.11.91-4.02,1.53-4.95.2-.3.56-.42.89-.42.28,0,.64.1.64.44,0,.14-.08.28-.14.4-.68,1.29-1.37,3.28-1.37,4.75,0,.08,0,.28.12.28.32,0,.93-.62,1.15-.84.7-.7,1.33-1.47,1.89-2.29.22-.34.48-.82.68-1.09.16-.24.48-.26.74-.26.54,0,.58.5.58.92,0,.68.36,4.54,1.13,4.54,1.05,0,1.43-3.34,1.43-4.14,0-.3-.02-1.04-.14-1.27-.16-.32-.36-.36-.36-.78,0-.26.18-.56.46-.56.74,0,.8,1.85.8,2.37,0,1.63-.4,5.47-2.65,5.47"/>
      <path class="cls-1" d="M30.06,12.19c.86-.52,2.15-1.87,2.15-2.92,0-.22-.08-.46-.34-.46-.8,0-1.69,2.68-1.81,3.38M28.37,13.46c0-1.79,1.45-5.59,3.6-5.59.72,0,1.11.5,1.11,1.19,0,1.33-1.87,3.44-3.08,3.88-.06.28-.1.56-.1.83,0,.9.36,1.45,1.29,1.45,1.67,0,3-1.43,3.8-2.77.12-.2.32-.52.6-.52.12,0,.28.08.28.22,0,.26-.06.38-.18.6-1.03,1.81-2.94,3.4-5.11,3.4-1.57,0-2.21-1.29-2.21-2.71"/>
      <path class="cls-1" d="M36.75,10.44c-.42,1.15-1.03,2.67-1.91,3.56-.14.14-.32.3-.54.3-.16,0-.26-.1-.26-.26s.08-.3.18-.44c.76-1.09,1.55-2.25,1.71-3.6-.36-.48-.52-1.07-.52-1.67s.38-2.23,1.17-2.23c.56,0,.66,1.15.66,1.55,0,.32-.02.64-.06.96.62.93,2.37,1.01,2.37,2.78,0,.26-.04.52-.1.78-.22.93-.4,1.85-.4,2.81,0,.26,0,.74.38.74.92,0,2.55-2.07,3.06-2.85.12-.18.3-.44.52-.44.24,0,.28.22.28.42,0,.16-.08.3-.16.42-.64,1.03-2.65,3.38-3.92,3.38s-1.39-1.85-1.39-2.79c0-.74.1-1.45.1-2.19,0-.66-.6-1.05-1.17-1.23"/>
      <path class="cls-1" d="M45.78,6.93c0,.52-.42,1.05-.95,1.05-.42,0-.68-.36-.68-.76,0-.5.4-1.05.93-1.05.42,0,.7.36.7.76M44.98,15.35c1.07,0,2.63-2.29,3.22-3.22.12-.18.28-.42.5-.42.26,0,.26.24.26.44,0,.26-.38.8-.54,1.02-.76,1.07-2.45,3.18-3.86,3.18-1.57,0-1.81-2.25-1.81-3.4,0-.74.2-1.75.42-2.45.24-.72.6-1.27,1.43-1.27.3,0,.46.12.46.44,0,.54-.46,1.51-.6,2.11-.12.58-.18,1.17-.18,1.77,0,.46.02,1.81.7,1.81"/>
      <path class="cls-1" d="M47.59,16.13c0-1.95.52-4.1.92-6.01.12-.62.22-1.25.36-1.87.1-.48.66-.96,1.15-.96.46,0,.6.26.6.68,0,.68-.28,1.49-.52,2.13-.28.74-.44,1.51-.54,2.29,0,0,2.43-3.54,3.46-3.54.78,0,.8,1.35.8,1.93v2.79c0,.46.02,1.19.64,1.19,1.05,0,2.29-1.87,2.74-2.75.1-.18.26-.46.48-.46.2,0,.34.22.34.4,0,.1-.1.3-.14.4-.58,1.23-2.33,3.38-3.82,3.38-1.23,0-1.45-1.33-1.45-2.33v-.3l.08-2.27c0-.1-.02-.4-.18-.4-.14,0-.36.22-.46.32-.66.64-1.25,1.55-1.73,2.33-.58.93-1.03,1.91-1.49,2.9-.16.32-.44.64-.82.64-.28,0-.42-.24-.42-.5"/>
      <path class="cls-1" d="M59.57,10.32c-.74.78-1.75,2.29-1.75,3.4,0,.42.14.78.62.78,1.23,0,3.44-2.9,3.88-3.98.2-.46.62-1.03,1.17-1.03.48,0,.74.32.74.77,0,3.42-.32,12.87-5.21,12.87-.64,0-1.15-.26-1.47-.82-.06-.12-.12-.24-.12-.38,0-.24.08-.07.34-.07.5,0,.45.32,1.17.45,2.3.39,3.56-6.9,3.56-8.83,0-.54,0-1.07-.06-1.61-.76,1.27-2.57,3.66-4.18,3.66-1.09,0-1.45-.92-1.45-1.87,0-1.45.85-3.06,1.87-4.08.99-.99,2.29-1.57,3.7-1.57.56,0,2.17.36,2.17,1.09,0,.12-.12.2-.22.2-.26,0-.86-.56-1.59-.56-1.23,0-2.35.72-3.16,1.57"/>
      <path d="M70.87,7.71v5.66c0,.58.1,1.02.3,1.33.2.31.47.47.82.47.19,0,.37-.02.54-.06.17-.04.31-.08.41-.12v1.12c-.11.08-.28.14-.51.19-.22.05-.42.07-.6.07-1.35,0-2.02-.98-2.02-2.94v-5.73"/>
      <path d="M78.51,16.25v-4.51c0-.57-.13-.99-.39-1.27-.26-.28-.66-.42-1.22-.42-.73,0-1.27.2-1.61.6-.34.4-.51,1.05-.51,1.96v3.65h-1.06V6.35h1.06v3c0,.36-.02.66-.05.9h.06c.21-.33.5-.6.89-.79.38-.19.82-.29,1.31-.29.85,0,1.49.2,1.92.61.43.41.64,1.05.64,1.93v4.55h-1.06Z"/>
      <path d="M83.46,10.03c-.56,0-1.01.18-1.34.55-.33.36-.53.87-.59,1.52h3.65c0-.67-.15-1.18-.45-1.53-.3-.35-.72-.53-1.27-.53M83.74,16.38c-1.03,0-1.85-.31-2.44-.94-.6-.63-.89-1.5-.89-2.62s.28-2.02.83-2.68c.55-.66,1.3-.99,2.23-.99.87,0,1.57.29,2.07.86.51.58.76,1.33.76,2.28v.67h-4.81c.02.82.23,1.44.62,1.87.39.42.94.64,1.66.64.75,0,1.49-.16,2.23-.47v.94c-.37.16-.73.28-1.06.35-.33.07-.74.11-1.21.11"/>
      <path d="M96.34,16.25l-1.28-4.09c-.08-.25-.23-.82-.45-1.71h-.05c-.17.74-.32,1.32-.45,1.72l-1.32,4.08h-1.22l-1.9-6.98h1.11c.45,1.75.79,3.09,1.03,4,.24.92.37,1.53.4,1.85h.05c.05-.24.12-.55.23-.94.1-.38.19-.69.27-.91l1.28-4h1.15l1.25,4c.24.73.4,1.34.48,1.84h.05c.02-.15.06-.39.14-.71.07-.32.52-2.03,1.33-5.14h1.09l-1.93,6.98h-1.25Z"/>
      <path d="M100.89,12.76c0,.89.18,1.57.54,2.04.36.47.88.7,1.57.7s1.22-.23,1.57-.7c.36-.46.54-1.15.54-2.04s-.18-1.56-.54-2.02c-.36-.46-.89-.69-1.59-.69s-1.21.23-1.57.68c-.35.45-.53,1.13-.53,2.03M106.2,12.76c0,1.14-.29,2.02-.86,2.66-.57.64-1.37.96-2.37.96-.62,0-1.18-.15-1.66-.44-.48-.29-.86-.71-1.12-1.26-.26-.55-.39-1.19-.39-1.92,0-1.14.28-2.02.85-2.66.57-.63,1.36-.95,2.37-.95s1.75.33,2.33.97c.57.65.86,1.53.86,2.64"/>
      <path d="M110.64,9.15c.31,0,.59.02.83.08l-.15.98c-.29-.06-.54-.1-.76-.1-.57,0-1.05.23-1.45.69-.4.46-.6,1.03-.6,1.71v3.74h-1.06v-6.98h.87l.12,1.29h.05c.26-.45.57-.8.94-1.05.37-.25.77-.37,1.2-.37"/>
    </g>
    <rect x="112.17" y="6.35" width="1.06" height="9.9"/>
    <g>
      <path d="M117.51,15.49c.72,0,1.24-.2,1.57-.59.32-.39.49-1.03.49-1.9v-.22c0-.99-.16-1.69-.49-2.12-.33-.42-.85-.63-1.58-.63-.62,0-1.09.24-1.42.72-.33.48-.49,1.16-.49,2.04s.16,1.56.49,2.02c.33.45.8.68,1.44.68M119.62,15.31h-.06c-.49.71-1.22,1.06-2.19,1.06-.91,0-1.62-.31-2.13-.94-.51-.62-.76-1.51-.76-2.66s.25-2.04.76-2.68c.51-.64,1.22-.95,2.13-.95s1.67.34,2.18,1.03h.08l-.04-.5-.03-.49v-2.84h1.06v9.9h-.86l-.14-.94Z"/>
      <path d="M130.74,16.25l-1.28-4.09c-.08-.25-.23-.82-.45-1.71h-.05c-.17.74-.32,1.32-.45,1.72l-1.32,4.08h-1.22l-1.9-6.98h1.11c.45,1.75.79,3.09,1.03,4,.24.92.37,1.53.4,1.85h.05c.05-.24.12-.55.23-.94.1-.38.19-.69.27-.91l1.28-4h1.15l1.25,4c.24.73.4,1.34.48,1.84h.05c.02-.15.06-.39.14-.71.07-.32.52-2.03,1.33-5.14h1.09l-1.93,6.98h-1.25Z"/>
      <path d="M135.58,16.25h-1.06v-6.98h1.06v6.98ZM134.43,7.38c0-.24.06-.42.18-.53.12-.11.27-.17.45-.17s.32.06.44.17c.12.11.18.29.18.53s-.06.42-.18.53c-.12.12-.27.17-.44.17-.18,0-.33-.06-.45-.17-.12-.12-.18-.29-.18-.53"/>
      <path d="M139.41,15.51c.19,0,.37-.01.54-.04.17-.03.31-.06.41-.09v.81c-.12.05-.28.1-.51.14-.22.04-.42.05-.6.05-1.35,0-2.02-.71-2.02-2.13v-4.15h-1v-.51l1-.44.45-1.49h.61v1.62h2.02v.82h-2.02v4.11c0,.42.1.74.3.97.2.23.47.34.82.34"/>
      <path d="M145.86,16.25v-4.51c0-.57-.13-.99-.39-1.27-.26-.28-.66-.42-1.22-.42-.73,0-1.27.2-1.61.6-.34.4-.51,1.05-.51,1.96v3.65h-1.06V6.35h1.06v3c0,.36-.02.66-.05.9h.06c.21-.33.5-.6.89-.79.38-.19.82-.29,1.32-.29.85,0,1.49.2,1.92.61.43.41.64,1.05.64,1.93v4.55h-1.06Z"/>
      <path class="cls-1" d="M151.77,17.42c0,.35-.02.92-.51.92-.33,0-.45-.25-.51-.55-.18-.94-.18-2.25-.18-3.56,0-2.39.22-4.77.59-7.14.27-1.76.57-3.56,1.1-5.28.24-.78.7-1.49,1.6-1.49.33,0,.49.2.49.53,0,.29-.1.59-.19.86-.27.76-.47,1.56-.82,2.99-.53,2.23-.94,4.48-1.19,6.75,1.13-1.19,2.37-2.27,3.56-3.4.18-.16.45-.47.7-.47.22,0,.41.23.41.45,0,.29-.31.55-.53.72-1.35,1.1-2.6,2.29-3.85,3.48.53.2,1,.49,1.49.76.8.45,1.62.88,2.37,1.41.27.19.61.51.61.88,0,.23-.24.27-.41.27-.21,0-.41-.1-.61-.2l-2.64-1.39c-.37-.2-.72-.39-1.11-.53-.14.8-.35,2.66-.35,3.97"/>
      <path class="cls-1" d="M157.44,16.46c0-1.92.51-4.03.9-5.9.12-.61.22-1.23.35-1.84.1-.47.65-.94,1.13-.94.45,0,.59.25.59.67,0,.66-.27,1.47-.51,2.09-.27.72-.43,1.49-.53,2.25,0,0,2.39-3.48,3.4-3.48.76,0,.78,1.33.78,1.9v2.74c0,.45.02,1.17.63,1.17,1.04,0,2.25-1.84,2.7-2.7.1-.18.25-.45.47-.45.2,0,.33.21.33.39,0,.1-.1.29-.14.39-.57,1.21-2.29,3.32-3.76,3.32-1.21,0-1.43-1.31-1.43-2.29v-.29l.08-2.23c0-.1-.02-.39-.18-.39-.14,0-.35.22-.45.31-.65.63-1.23,1.53-1.7,2.29-.57.92-1.02,1.88-1.47,2.86-.16.31-.43.63-.8.63-.27,0-.41-.24-.41-.49"/>
      <path class="cls-1" d="M167.8,14.06c0,.63.18,1.6.98,1.6.33,0,.64-.18.9-.37.98-.76,1.39-2.21,1.39-3.4,0-.64-.18-1.76-1.02-1.76-1.47,0-2.25,2.76-2.25,3.93M170.05,8.84c1.45,0,1.84,1.51,1.84,2.68,0,1.72-.61,3.6-2.09,4.6-.45.29-.98.51-1.53.51-1.41,0-1.88-1.43-1.88-2.6,0-1.96,1.33-5.18,3.66-5.18"/>
      <path class="cls-1" d="M179.48,17.01c-.45,0-.84-.21-1.15-.53-.67-.66-.92-2.97-.96-3.91,0,0-2.85,3.66-4.09,3.66-.98,0-1.06-1-1.06-1.74,0-1.1.9-3.95,1.51-4.87.2-.29.55-.41.88-.41.27,0,.63.1.63.43,0,.14-.08.27-.14.39-.66,1.27-1.35,3.23-1.35,4.67,0,.08,0,.27.12.27.31,0,.92-.61,1.13-.82.68-.68,1.31-1.45,1.86-2.25.21-.33.47-.8.66-1.07.16-.24.47-.26.72-.26.53,0,.57.49.57.9,0,.67.35,4.46,1.12,4.46,1.04,0,1.41-3.29,1.41-4.07,0-.29-.02-1.02-.14-1.25-.16-.31-.35-.35-.35-.76,0-.25.18-.55.45-.55.72,0,.78,1.82.78,2.33,0,1.6-.39,5.38-2.6,5.38"/>
      <path class="cls-1" d="M185.37,3.62c-.57,1.88-1.11,4.03-1.11,5.91,0,.2,0,.37.02.57,1.27-2.13,3.01-5.94,3.01-8.43,0-.18,0-.72-.29-.72-.82,0-1.41,1.96-1.62,2.68M182.75,10.83c0-2.72.41-5.46,1.49-7.96.41-.94,1.52-2.88,2.7-2.88.92,0,1.17,1.02,1.17,1.76,0,2.44-1.27,5.92-2.44,8.06-.27.53-.63,1-.94,1.51-.1.16-.27.39-.33.57-.08.21-.08.63-.08.86,0,.76.16,3.09,1.23,3.09.96,0,2.29-1.62,2.78-2.39l.51-.8c.1-.16.21-.27.41-.27.21,0,.27.18.27.35,0,.23-.14.47-.27.68l-.02.02c-.76,1.27-2.46,3.58-4.09,3.58-2.17,0-2.39-4.65-2.39-6.18"/>
      <path class="cls-1" d="M189.81,12.59c.84-.51,2.11-1.84,2.11-2.88,0-.21-.08-.45-.33-.45-.78,0-1.66,2.64-1.78,3.32M188.14,13.84c0-1.76,1.43-5.49,3.54-5.49.7,0,1.1.49,1.1,1.17,0,1.31-1.84,3.38-3.03,3.81-.06.27-.1.55-.1.82,0,.88.35,1.43,1.27,1.43,1.64,0,2.95-1.41,3.73-2.72.12-.2.31-.51.59-.51.12,0,.27.08.27.21,0,.25-.06.37-.18.59-1.02,1.78-2.89,3.34-5.03,3.34-1.54,0-2.17-1.27-2.17-2.66"/>
      <path class="cls-1" d="M200.23,10.91c1.04-2.21,2.56-6.06,2.56-8.49,0-.1,0-.55-.2-.55-1.1,0-2.37,7.02-2.37,8.84v.2ZM195.26,14.82c0,.14,0,.39.2.39.82,0,2.97-2.17,3.32-2.84-.04-.57-.04-1.11-.04-1.68-1.76,0-3.48,2.5-3.48,4.13M195.34,16.07c-.84,0-1.17-1.17-1.17-1.84,0-2.11,1.6-4.85,3.64-4.85.39,0,.74.16,1,.45,0-2.8,1.55-9.27,3.74-9.27.94,0,1.09,1.43,1.09,2.11,0,2.74-2.01,7.39-3.28,9.86,0,.57.04,3.03.84,3.03,1.8,0,3.09-3.32,3.62-3.32.23,0,.33.14.33.31,0,.27-.23.63-.39.86-.88,1.31-2.19,3.17-3.87,3.17-1.35,0-1.8-1.94-1.98-2.97-.72.8-2.42,2.46-3.56,2.46"/>
      <path class="cls-1" d="M206.45,10.76c-.72.76-1.72,2.25-1.72,3.34,0,.41.14.76.61.76,1.21,0,3.38-2.85,3.81-3.91.2-.45.61-1.02,1.15-1.02.47,0,.72.31.72.76,0,3.36-.31,12.65-5.12,12.65-.62,0-1.13-.25-1.45-.8-.06-.12-.12-.23-.12-.37,0-.24.18-.47.43-.47.49,0,.33.84,1.06.84,2.5,0,3.5-6.79,3.5-8.68,0-.53,0-1.06-.06-1.58-.74,1.25-2.52,3.6-4.11,3.6-1.08,0-1.43-.9-1.43-1.84,0-1.43.84-3.01,1.84-4.01.98-.98,2.25-1.55,3.64-1.55.55,0,2.13.35,2.13,1.08,0,.12-.12.2-.21.2-.26,0-.84-.55-1.57-.55-1.21,0-2.31.7-3.11,1.55"/>
      <path class="cls-1" d="M213.37,12.59c.84-.51,2.11-1.84,2.11-2.88,0-.21-.08-.45-.33-.45-.78,0-1.66,2.64-1.78,3.32M211.7,13.84c0-1.76,1.43-5.49,3.54-5.49.7,0,1.1.49,1.1,1.17,0,1.31-1.84,3.38-3.03,3.81-.06.27-.1.55-.1.82,0,.88.35,1.43,1.27,1.43,1.64,0,2.95-1.41,3.73-2.72.12-.2.31-.51.59-.51.12,0,.27.08.27.21,0,.25-.06.37-.18.59-1.02,1.78-2.89,3.34-5.03,3.34-1.54,0-2.17-1.27-2.17-2.66"/>
      <path class="cls-1" d="M58.26,21.89c-1.27-3.56,2.44-6.6,5.14-8.17,2.92-1.7,6.29-2.52,9.66-2.35.58.03.58-.88,0-.9-3.71-.18-7.44.79-10.59,2.76-2.89,1.81-6.44,5.11-5.08,8.91.19.55,1.07.31.87-.24"/>
    </g>
    <path class="cls-1" d="M221.65,9.06l-.59-1.64h-.02l.02.38v1.26h-.35v-2.11h.55l.57,1.64.6-1.64h.53v2.11h-.37v-1.23l.02-.4h-.02l-.62,1.63h-.3ZM219.89,9.06h-.36v-1.8h-.61v-.31h1.59v.31h-.62v1.8Z"/>
  </g>
</svg>