<?xml version="1.0" encoding="UTF-8"?>
<svg id="Layer_2" data-name="Layer 2" xmlns="http://www.w3.org/2000/svg" viewBox="0 0 133.49 38.69">
  <defs>
    <style>
      .cls-1 {
        fill: #fff;
      }
    </style>
  </defs>
  <g id="Layer_1-2" data-name="Layer 1">
    <path class="cls-1" d="M128.88,7h.51c.58,0,1.07-.21,1.07-.75,0-.38-.28-.77-1.07-.77-.23,0-.39.02-.51.03v1.49ZM128.88,9.44h-.7v-4.39c.37-.05.72-.1,1.24-.1.66,0,1.1.14,1.36.33.26.19.4.49.4.91,0,.58-.38.93-.86,1.07v.04c.39.07.65.42.74,1.06.11.68.21.95.28,1.09h-.74c-.11-.14-.21-.54-.3-1.12-.1-.56-.38-.77-.94-.77h-.49v1.89ZM129.61,3.82c-1.73,0-3.15,1.49-3.15,3.32s1.41,3.34,3.17,3.34c1.75.02,3.15-1.47,3.15-3.32s-1.4-3.34-3.15-3.34h-.02ZM129.63,3.21c2.15,0,3.86,1.75,3.86,3.93s-1.71,3.95-3.88,3.95-3.9-1.73-3.9-3.95,1.75-3.93,3.9-3.93h.02Z"/>
    <polygon class="cls-1" points="52.93 38.69 38.74 38.69 46.2 4.39 77.16 4.39 75.52 11.1 59.22 11.1 57.67 17.42 71.57 17.42 70.11 24.01 56.35 24.01 52.93 38.69"/>
    <polygon class="cls-1" points="87.29 21.61 75.96 4.39 94.19 4.39 99.68 13.12 108.55 4.39 122.52 4.39 104.39 20.32 116.23 38.69 98.65 38.69 92.72 28.45 82.88 38.69 68.2 38.69 87.29 21.61"/>
    <polygon class="cls-1" points="0 38.69 8.73 0 42.12 0 40.51 7.8 21.52 7.8 20.1 14.34 36.66 14.34 34.96 22.06 18.37 22.06 16.54 30.48 36.06 30.48 34.35 38.69 0 38.69"/>
  </g>
</svg>