<?xml version="1.0" encoding="utf-8"?>
<!-- Generator: Adobe Illustrator 23.1.1, SVG Export Plug-In . SVG Version: 6.00 Build 0)  -->
<svg version="1.1" id="Layer_1" xmlns="http://www.w3.org/2000/svg" xmlns:xlink="http://www.w3.org/1999/xlink" x="0px" y="0px"
	 viewBox="0 0 200 200" style="enable-background:new 0 0 200 200;" xml:space="preserve">
<style type="text/css">
	.st0{fill:#333E48;}
	.st1{fill-rule:evenodd;clip-rule:evenodd;fill:#FFFFFF;}
	.st2{fill-rule:evenodd;clip-rule:evenodd;fill:#EDB700;}
</style>
<title>icons/product_families/efx_complete_family_plan</title>
<desc>Created with Sketch.</desc>
<g id="Product-Details">
	<g id="Public-Product-Page---Family---Desktop-" transform="translate(-339.000000, -209.000000)">
		<g id="hero" transform="translate(0.000000, 105.000000)">
			<g transform="translate(339.000000, 104.000000)">
				<g id="Combined-Shape">
					<path class="st0" d="M70.5,63.4c5.8,0,10.7,3.8,12.5,9l33.3,0c1.8-5.2,6.7-9,12.5-9h44.5c7.4,0,13.3,6.1,13.3,13.5v35.4
						c0,7.5-5.9,13.5-13.3,13.5h-1.5v26.9c0,7.5-5.9,13.5-13.3,13.5h-14.8c-7.4,0-13.3-6.1-13.3-13.5l0-11.1
						c-1.7,0.9-3.5,1.6-5.5,1.9v22.7c0,10-8,18.1-17.8,18.1H92.3c-9.8,0-17.8-8.1-17.8-18.1v-22.7c-2-0.3-3.8-1-5.5-1.9l0,11.1
						c0,7.5-5.9,13.5-13.3,13.5H40.8c-7.4,0-13.3-6.1-13.3-13.5v-26.9H26c-7.4,0-13.3-6.1-13.3-13.5V76.9c0-7.5,5.9-13.5,13.3-13.5
						H70.5z M77.5,79.9L77.5,79.9l-0.3,0c-5.6,0.2-10,4.8-10,10.5l0,0v35.4l0,0.3c0.1,5.7,4.7,10.2,10.3,10.2l0,0H82v30l0,0.3
						c0.1,5.7,4.7,10.2,10.3,10.2l0,0h14.8l0.3,0c5.6-0.2,10-4.8,10-10.5l0,0v-30h4.5l0.3,0c5.6-0.2,10-4.8,10-10.5l0,0V90.5l0-0.3
						c-0.1-5.7-4.7-10.2-10.3-10.2l0,0H77.5z M70.5,69.4H26c-4,0-7.3,3.3-7.3,7.5v35.4c0,4.2,3.3,7.5,7.3,7.5h7.6v33
						c0,4.2,3.3,7.5,7.3,7.5h14.8c4,0,7.3-3.3,7.3-7.5l0-16.5c-2.1-3-3.3-6.6-3.3-10.5V90.5c0-9.6,7.4-17.4,16.7-18
						C75,70.6,72.9,69.4,70.5,69.4z M173.4,69.4h-44.5c-2.4,0-4.5,1.2-5.8,3c9.3,0.6,16.7,8.5,16.7,18v35.4c0,3.9-1.2,7.5-3.3,10.5
						l0,16.5c0,4.2,3.3,7.5,7.3,7.5h14.8c4,0,7.3-3.3,7.3-7.5v-33h7.6c4,0,7.3-3.3,7.3-7.5V76.9C180.7,72.8,177.4,69.4,173.4,69.4z
						 M99.7,19.2c13.5,0,24.5,11.2,24.5,24.9S113.2,69,99.7,69S75.2,57.8,75.2,44.1c0-13.6,10.8-24.7,24.1-24.9L99.7,19.2z M99.7,26
						C89.9,26,82,34.1,82,44.1s7.9,18.1,17.7,18.1s17.7-8.1,17.7-18.1S109.5,26,99.7,26z M48.3,16.4c11.5,0,20.7,9.5,20.7,21.1
						c0,11.7-9.3,21.1-20.7,21.1s-20.7-9.5-20.7-21.1C27.5,25.8,36.8,16.4,48.3,16.4z M151.2,16.4c11.5,0,20.7,9.5,20.7,21.1
						c0,11.7-9.3,21.1-20.7,21.1c-11.5,0-20.7-9.5-20.7-21.1C130.5,25.8,139.7,16.4,151.2,16.4z M48.3,22.4
						c-8.1,0-14.7,6.7-14.7,15.1c0,8.4,6.6,15.1,14.7,15.1S63,45.8,63,37.5C63,29.1,56.4,22.4,48.3,22.4z M151.2,22.4
						c-8.1,0-14.7,6.7-14.7,15.1c0,8.4,6.6,15.1,14.7,15.1c8.1,0,14.7-6.7,14.7-15.1C165.9,29.1,159.3,22.4,151.2,22.4z"/>
					<path class="st1" d="M122,79.9c5.7,0,10.3,4.7,10.3,10.5l0,0v35.4c0,5.8-4.6,10.5-10.3,10.5l0,0h-4.5v30
						c0,5.8-4.6,10.5-10.3,10.5l0,0H92.3c-5.7,0-10.3-4.7-10.3-10.5l0,0v-30h-4.5c-5.7,0-10.3-4.7-10.3-10.5l0,0V90.5
						c0-5.8,4.6-10.5,10.3-10.5l0,0H122z M99.7,26c9.8,0,17.7,8.1,17.7,18.1s-7.9,18.1-17.7,18.1S82,54.1,82,44.1S89.9,26,99.7,26z"
						/>
					<path class="st2" d="M122,86c2.4,0,4.3,2,4.3,4.5v35.4c0,2.5-1.9,4.5-4.3,4.5h-10.6v36c0,2.5-1.9,4.5-4.3,4.5H92.3
						c-2.4,0-4.3-2-4.3-4.5v-36H77.5c-2.4,0-4.3-2-4.3-4.5V90.5c0-2.5,1.9-4.5,4.3-4.5H122z M99.7,32c6.4,0,11.7,5.4,11.7,12.1
						s-5.2,12.1-11.7,12.1S88,50.8,88,44.1S93.3,32,99.7,32z"/>
				</g>
			</g>
		</g>
	</g>
</g>
</svg>
