<?xml version="1.0" encoding="utf-8"?>
<!-- Generator: Adobe Illustrator 23.1.1, SVG Export Plug-In . SVG Version: 6.00 Build 0)  -->
<svg version="1.1" id="Layer_1" xmlns="http://www.w3.org/2000/svg" xmlns:xlink="http://www.w3.org/1999/xlink" x="0px" y="0px"
	 viewBox="0 0 200 200" style="enable-background:new 0 0 200 200;" xml:space="preserve">
<style type="text/css">
	.st0{fill-rule:evenodd;clip-rule:evenodd;fill:#0093C9;}
	.st1{fill-rule:evenodd;clip-rule:evenodd;fill:#FFFFFF;}
	.st2{fill-rule:evenodd;clip-rule:evenodd;fill:#333E48;}
</style>
<title>icons/product_families/efx_complete_family_plan</title>
<desc>Created with Sketch.</desc>
<g id="Product-Details">
	<g id="Public-Product-Page---Desktop--premier" transform="translate(-280.000000, -206.000000)">
		<g id="hero" transform="translate(0.000000, 105.000000)">
			<g transform="translate(280.000000, 101.000000)">
				<g>
					<path id="Combined-Shape" class="st0" d="M160.1,31.1c6.2,0,11.3,5.1,11.3,11.4v115.1c0,6.3-5.1,11.4-11.3,11.4H45.3
						c-6.2,0-11.3-5.1-11.3-11.4l0-7.9c3.8-1.2,6.5-4.8,6.5-8.9v-20.6c0-4.2-2.7-7.7-6.5-8.9l0-23.3c3.8-1.2,6.5-4.8,6.5-8.9V58.4
						c0-4.2-2.7-7.7-6.5-8.9l0-7c0-6.3,5.1-11.4,11.3-11.4H160.1z M152.3,147.6c-3.1,0-5.6,2.5-5.6,5.7s2.5,5.7,5.6,5.7
						c3.1,0,5.6-2.5,5.6-5.7S155.4,147.6,152.3,147.6z M52.1,147.6c-3.1,0-5.6,2.5-5.6,5.7s2.5,5.7,5.6,5.7c3.1,0,5.6-2.5,5.6-5.7
						S55.2,147.6,52.1,147.6z M52.1,41.8c-3.1,0-5.6,2.5-5.6,5.7c0,3.1,2.5,5.7,5.6,5.7c3.1,0,5.6-2.5,5.6-5.7
						C57.7,44.4,55.2,41.8,52.1,41.8z M152.3,41.8c-3.1,0-5.6,2.5-5.6,5.7c0,3.1,2.5,5.7,5.6,5.7c3.1,0,5.6-2.5,5.6-5.7
						C158,44.4,155.4,41.8,152.3,41.8z"/>
					<path class="st1" d="M53.7,104.4C51.3,73.9,76.6,48.5,107,51c23.9,1.9,43.3,21.3,45.2,45.3c2.4,30.5-22.9,55.8-53.3,53.4
						C75,147.8,55.6,128.4,53.7,104.4z M106.1,57.1v6c0,1.7-1.4,3.1-3.1,3.1c-1.7,0-3.1-1.4-3.1-3.1l0,0v-6
						c-9.6,0.7-18.3,4.5-25.2,10.5l0,0l2.1,2.1c1.2,1.2,1.2,3.2,0,4.4c-1.2,1.2-3.2,1.2-4.4,0l0,0L70.4,72
						c-6,6.9-9.8,15.6-10.4,25.2l0,0h6c1.7,0,3.1,1.4,3.1,3.1c0,1.7-1.4,3.1-3.1,3.1l0,0h-6c0.7,9.6,4.5,18.4,10.4,25.2l0,0l2.1-2.1
						c1.2-1.2,3.2-1.2,4.4,0c1.2,1.2,1.2,3.2,0,4.4l0,0l-2.1,2.1c6.9,6,15.6,9.8,25.2,10.5l0,0v-6c0-1.7,1.4-3.1,3.1-3.1
						c1.7,0,3.1,1.4,3.1,3.1l0,0v6c9.6-0.7,18.3-4.5,25.2-10.5l0,0l-2.1-2.1c-1.2-1.2-1.2-3.2,0-4.4c1.2-1.2,3.2-1.2,4.4,0l0,0
						l2.1,2.1c5.9-6.9,9.8-15.6,10.4-25.2l0,0h-6c-1.7,0-3.1-1.4-3.1-3.1c0-1.7,1.4-3.1,3.1-3.1l0,0h6c-0.7-9.6-4.5-18.4-10.4-25.2
						l0,0l-2.1,2.1c-1.2,1.2-3.2,1.2-4.4,0c-1.2-1.2-1.2-3.2,0-4.4l0,0l2.1-2.1C124.4,61.6,115.7,57.8,106.1,57.1L106.1,57.1z
						 M103,74.2c14.5,0,26.3,11.8,26.3,26.3s-11.8,26.3-26.3,26.3s-26.3-11.8-26.3-26.3S88.5,74.2,103,74.2z M113.1,90.6l-0.1,0.1
						l-13.9,13.9l-6-6c-1-1-2.7-1-3.8,0c-1,1-1,2.6-0.1,3.7l0.1,0.1l7.9,7.9c1,1,2.6,1,3.7,0.1l0.1-0.1l15.8-15.8c1-1,1-2.7,0-3.8
						C115.7,89.8,114.1,89.7,113.1,90.6z"/>
					<path id="Shape" class="st2" d="M17.9,142.9h-3.1c-1.2,0-2.2-1-2.2-2.2v-20.6c0-1.2,1-2.2,2.2-2.2h3.1V81.2h-3.1
						c-1.2,0-2.2-1-2.2-2.2V58.4c0-1.2,1-2.2,2.2-2.2h3.1V41.8C17.9,27,29.8,15,44.6,15h116.1c14.8,0,26.8,12,26.8,26.8v116.3
						c0,14.8-12,26.8-26.8,26.8H44.6c-14.8,0-26.8-12-26.8-26.8V142.9z M26.8,142.9v14.9c0,10.1,8.2,18.2,18.2,18.2h115.4
						c10.1,0,18.2-8.2,18.2-18.2V42.2c0-10.1-8.2-18.2-18.2-18.2H45c-10.1,0-18.2,8.2-18.2,18.2v14H31c1.2,0,2.2,1,2.2,2.2V79
						c0,1.2-1,2.2-2.2,2.2h-4.3v36.7H31c1.2,0,2.2,1,2.2,2.2v20.6c0,1.2-1,2.2-2.2,2.2H26.8L26.8,142.9z"/>
				</g>
			</g>
		</g>
	</g>
</g>
</svg>
