<?xml version="1.0" encoding="utf-8"?>
<!-- Generator: Adobe Illustrator 24.1.2, SVG Export Plug-In . SVG Version: 6.00 Build 0)  -->
<svg version="1.1" id="Layer_1" xmlns="http://www.w3.org/2000/svg" xmlns:xlink="http://www.w3.org/1999/xlink" x="0px" y="0px"
	 viewBox="0 0 200 200" style="enable-background:new 0 0 200 200;" xml:space="preserve">
<style type="text/css">
	.st0{fill-rule:evenodd;clip-rule:evenodd;fill:#333E48;}
	.st1{fill:#FFFFFF;}
	.st2{fill:#0093C9;}
	.st3{fill-rule:evenodd;clip-rule:evenodd;fill:#FFFFFF;}
	.st4{fill-rule:evenodd;clip-rule:evenodd;fill:#0093C9;}
</style>
<g id="Product-Details">
	<g id="PublicProductPage_EquifaxComplete_Desktop">
		<g id="hero">
			<g id="icons_product_families_efx_equifax_complete">
				<g>
					<path id="Combined-Shape" class="st0" d="M100.8,14.8c6.5,0,12.4,4.1,14.7,10.2h7.8c4.5,0,8.2,3.6,8.2,8.1c0,0,0,0,0,0v3.1
						h22.9c4.1,0,7.4,3.3,7.6,7.4v133.6c0,4.2-3.4,7.6-7.6,7.6H46.1c-4.2,0-7.6-3.4-7.6-7.6l0,0V43.8c0-4.2,3.4-7.6,7.6-7.6h24.4
						v-3.1c0-4.5,3.6-8.2,8.1-8.2c0,0,0,0,0,0h7.5C88.5,18.9,94.3,14.8,100.8,14.8z"/>
					<path id="Combined-Shape-2" class="st1" d="M70.5,43.8v8.7c0,1,0.8,1.9,1.8,2h57.2c1,0,1.9-0.8,2-1.8v-8.9h19.8
						c1.7,0,3,1.4,3,3.1v127.3c0,1.7-1.3,3-3,3.1H49.1c-1.7,0-3-1.4-3-3.1V46.8c0-1.7,1.3-3,3-3.1H70.5z M100.9,22.3
						c4.2-0.1,7.8,2.8,8.8,6.9c0.3,1.3,1.4,2.2,2.7,2.1h9.6c1,0,1.9,0.8,1.9,1.8l0,0v14.2c0,0.6-0.4,1-1,1H79.1c-0.6,0-1-0.4-1-1
						l0,0V33.2c0-1,0.9-1.9,1.9-1.8h9.5c1.3,0,2.4-0.9,2.7-2.1C93.1,25.1,96.8,22.2,100.9,22.3z"/>
					<path id="Combined-Shape-3" class="st2" d="M147.4,49.4c0.6,0,1,0.4,1,1l0,0v119.9c0,0.6-0.4,1-1,1H53.1c-0.6,0-1-0.4-1-1l0,0
						V50.4c0-0.6,0.4-1,1-1h12.8v6.3c0,1.6,1.2,2.9,2.8,3h64.5c1.7,0,3-1.3,3-3l0,0v-6.3H147.4z"/>
					<g id="icons_product_families_efx_identity_basic">
						<path id="Fill-3" class="st0" d="M101.6,80.9c-18.2,0-33,14.8-33,33s14.8,33,33,33s33-14.8,33-33l0,0
							C134.6,95.7,119.9,81,101.6,80.9 M101.6,83.6c16.8,0,30.3,13.6,30.3,30.3s-13.6,30.4-30.3,30.4S71.3,130.7,71.3,114
							c0,0,0,0,0,0C71.3,97.2,84.9,83.6,101.6,83.6"/>
						<path id="Fill-8" class="st3" d="M101.6,83.6c-16.8,0-30.3,13.6-30.3,30.4s13.6,30.3,30.4,30.3S132,130.7,132,114c0,0,0,0,0,0
							C132,97.2,118.4,83.6,101.6,83.6 M101.6,86.3c15.3,0,27.7,12.4,27.7,27.7s-12.4,27.7-27.7,27.7S74,129.2,74,113.9c0,0,0,0,0,0
							C74,98.7,86.4,86.3,101.6,86.3"/>
					</g>
				</g>
				<path id="Fill-6" class="st4" d="M101.7,142.6c-15.8,0-28.6-12.8-28.6-28.6s12.8-28.6,28.6-28.6s28.6,12.8,28.6,28.6v0
					C130.3,129.8,117.5,142.6,101.7,142.6"/>
				<path id="Combined-Shape-4" class="st3" d="M127.3,114c0,14.1-11.4,25.6-25.6,25.6s-25.6-11.4-25.6-25.6s11.4-25.6,25.6-25.6
					c0,0,0,0,0,0C115.8,88.5,127.3,99.9,127.3,114 M112.9,105.2c1-1,2.7-1,3.7,0c1,0.9,1,2.5,0.1,3.5c0,0-0.1,0.1-0.1,0.1
					l-15.4,14.9c-1,1-2.7,1-3.7,0l-7.7-7.4c-1-0.9-1-2.5-0.1-3.5c0,0,0.1-0.1,0.1-0.1c1-1,2.7-1,3.7,0l5.9,5.6L112.9,105.2z"/>
			</g>
		</g>
	</g>
</g>
</svg>
