<?xml version="1.0" encoding="UTF-8"?>
<svg width="70px" height="59px" viewBox="0 0 70 59" version="1.1" xmlns="http://www.w3.org/2000/svg" xmlns:xlink="http://www.w3.org/1999/xlink">
    <title>Icons / business / circle</title>
    <g id="Page-1" stroke="none" stroke-width="1" fill="none" fill-rule="evenodd">
        <g id="4" transform="translate(-1144.000000, -592.000000)" fill-rule="nonzero">
            <g id="Hero" transform="translate(0.000000, 185.000000)">
                <g id="Elements-/-Cards-/-Business-Category-/-Large-/-Standard-Insurance" transform="translate(1023.000000, 365.000000)">
                    <g id="Card-1" transform="translate(11.000000, 0.000000)">
                        <g id="Group" transform="translate(110.000000, 36.000000)">
                            <g id="Insurance-Icon" transform="translate(0.000000, 6.250000)">
                                <path d="M12.9823661,20.0975272 C13.6130228,20.0975272 14.124271,20.6087755 14.124271,21.2394322 C14.124271,21.8448626 13.6531046,22.3402462 13.0574466,22.3789082 L12.9823661,22.3813371 L3.47853376,22.3813371 L8.27397408,28.5468608 C8.57731257,28.9368825 8.59369096,29.4744746 8.32336566,29.8803955 L8.27268509,29.9506049 L3.48355815,36.0841966 L17.4991354,36.0841966 C18.1045659,36.0841966 18.5999495,36.555363 18.6386115,37.151021 L18.6410404,37.2261016 C18.6410404,37.831532 18.169874,38.3269156 17.574216,38.3655776 L17.4991354,38.3680065 L1.14402327,38.3680065 C0.21785891,38.3680065 -0.313001308,37.330033 0.20003595,36.5832851 L0.243933946,36.5234024 L5.92449418,29.2464697 L0.242644957,21.9404772 C-0.325370502,21.2101434 0.166440496,20.1548097 1.06988202,20.0997716 L1.14402327,20.0975272 L12.9823661,20.0975272 Z" id="Path" fill="#333D47"></path>
                                <path d="M63.8943769,20.0975272 C64.5250336,20.0975272 65.0362819,20.6087755 65.0362819,21.2394322 C65.0362819,21.8448626 64.5651155,22.3402462 63.9694575,22.3789082 L63.8943769,22.3813371 L55.1159326,22.3813371 L59.911273,28.5468608 C60.2146115,28.9368825 60.2309899,29.4744746 59.9606646,29.8803955 L59.909984,29.9506049 L55.120957,36.0841966 L68.858095,36.0841966 C69.4635255,36.0841966 69.9589091,36.555363 69.9975711,37.151021 L70,37.2261016 C70,37.831532 69.5288336,38.3269156 68.9331756,38.3655776 L68.858095,38.3680065 L52.7813222,38.3680065 C51.8551579,38.3680065 51.3242976,37.330033 51.8373349,36.5832851 L51.8812329,36.5234024 L57.561893,29.2464697 L51.8799439,21.9404772 C51.3119284,21.2101434 51.8037394,20.1548097 52.707181,20.0997716 L52.7813222,20.0975272 L63.8943769,20.0975272 Z" id="Path" fill="#333D47" transform="translate(60.818649, 29.232767) scale(-1, 1) translate(-60.818649, -29.232767) "></path>
                                <path d="M34.5795156,0.311846656 C28.7155273,5.85177896 21.0177477,9.05145796 12.9504642,9.30195186 C12.3391457,9.32093365 11.8513277,9.81820339 11.8440792,10.4297735 C11.8126969,13.0775533 11.9828286,16.1330782 12.3707945,19.3553422 C13.1015764,25.4248772 14.5170885,31.151616 16.634222,36.3642752 C20.544732,45.992461 26.5886074,53.2461959 34.8043464,57.8623902 C35.1517126,58.0575656 35.5756938,58.0575656 35.92306,57.8623902 C44.138799,53.2461959 50.1826744,45.992461 54.0931843,36.3642752 C56.2103179,31.151616 57.62583,25.4248772 58.3566119,19.3553422 C58.7445778,16.1330782 58.9147095,13.0775533 58.8833272,10.4297735 C58.8760787,9.81820339 58.3882606,9.32093365 57.7769422,9.30195186 C49.7096587,9.05145796 42.0118791,5.85177896 36.1478908,0.311846656 C35.7077734,-0.103948885 35.019633,-0.103948885 34.5795156,0.311846656 Z M35.3637175,2.69032808 L35.5345564,2.84167052 C41.3506692,7.94632213 48.6912799,10.9975333 56.4153609,11.520918 L56.6004091,11.5323265 L56.6004091,11.6294479 C56.5757298,13.89347 56.4088835,16.4270133 56.0891779,19.0823394 C55.3817542,24.9578717 54.0148143,30.488102 51.9772387,35.504879 L51.8311636,35.8608912 C48.2536219,44.491984 42.8953886,51.0372108 35.708406,55.3464971 L35.3637175,55.5504788 L35.3237641,55.5272485 C27.8841118,51.1629794 22.3769718,44.4345441 18.7501677,35.504879 C16.7125921,30.488102 15.3456522,24.9578717 14.6382285,19.0823394 L14.5833945,18.6150467 C14.2993871,16.129882 14.1502456,13.7602923 14.1273496,11.6294479 L14.1265691,11.5323265 L14.3120455,11.520918 C22.0361265,10.9975333 29.3767372,7.94632213 35.19285,2.84167052 L35.3637175,2.69032808 Z" id="Path-Copy-6" fill="#333D47"></path>
                                <path d="M35.3637032,15.7582884 C42.6793208,15.7582884 48.6098007,21.6887682 48.6098007,29.0043859 C48.6098007,36.3200035 42.6793208,42.2504834 35.3637032,42.2504834 C28.0480856,42.2504834 22.1176057,36.3200035 22.1176057,29.0043859 C22.1176057,21.6887682 28.0480856,15.7582884 35.3637032,15.7582884 Z M35.3637032,18.0420983 C29.3093989,18.0420983 24.4014156,22.9500816 24.4014156,29.0043859 C24.4014156,35.0586901 29.3093989,39.9666735 35.3637032,39.9666735 C41.4180074,39.9666735 46.3259908,35.0586901 46.3259908,29.0043859 C46.3259908,22.9500816 41.4180074,18.0420983 35.3637032,18.0420983 Z" id="Oval" fill="#333D47"></path>
                                <path d="M40.1630837,24.8219949 C40.6963039,24.2820163 41.553683,24.2893701 42.0780933,24.8384201 C42.6025037,25.38747 42.5953619,26.2703021 42.0621417,26.8102807 L35.3440191,33.6135532 C34.8170896,34.1471614 33.9719706,34.1471848 33.4450131,33.6136059 L29.6716573,29.7928359 C29.1384089,29.2528868 29.1312209,28.3700551 29.6556025,27.8209761 C30.1799842,27.271897 31.0373628,27.2644957 31.5706113,27.8044447 L34.3944389,30.6637553 L40.1630837,24.8219949 Z" id="Check" fill="#0093C9"></path>
                            </g>
                        </g>
                    </g>
                </g>
            </g>
        </g>
    </g>
</svg>