<?xml version="1.0" encoding="UTF-8"?>
<svg width="70px" height="70px" viewBox="0 0 70 70" version="1.1" xmlns="http://www.w3.org/2000/svg" xmlns:xlink="http://www.w3.org/1999/xlink">
    <title>Icons / business / circle</title>
    <g id="Page-1" stroke="none" stroke-width="1" fill="none" fill-rule="evenodd">
        <g id="4" transform="translate(-838.000000, -586.000000)" fill-rule="nonzero">
            <g id="Hero" transform="translate(0.000000, 185.000000)">
                <g id="Elements-/-Cards-/-Business-Category-/-Large-/-Standard-Auto-Loans" transform="translate(728.000000, 365.000000)">
                    <g id="Auto-Loans_" transform="translate(110.000000, 36.000000)">
                        <g id="Group" transform="translate(0.000000, 29.920844)" fill="#333E48">
                            <path d="M26.9915567,21.0978892 C29.2762533,21.0978892 31.5609499,21.0941953 33.8456464,21.0997361 C31.5609499,21.0923483 29.2762533,21.0978892 26.9915567,21.0978892 C25.2240106,21.0978892 23.4546174,21.0868074 21.6870712,21.0905013 C23.4564644,21.0849604 25.2240106,21.0978892 26.9915567,21.0978892 Z" id="Path"></path>
                            <path d="M49.6686016,16.2292876 C49.1883905,16.0390501 48.9630607,15.7453826 48.8060686,15.2670185 C47.6203166,11.6469657 46.4234828,8.03060686 45.1915567,4.42532982 C44.5432718,2.52480211 43.1986807,1.29841689 41.2168865,0.984432718 C39.3255937,0.685224274 37.4047493,0.54116095 35.4931398,0.398944591 C28.2271768,-0.140369393 20.9759894,0.0646437995 13.730343,0.82005277 C11.0559367,1.09894459 9.37335092,2.41398417 8.56437995,4.99604222 C7.51345646,8.35382586 6.34432718,11.6728232 5.25092348,15.0176781 C5.04406332,15.6530343 4.74300792,16.0575198 4.07440633,16.3345646 C1.8469657,17.2562005 0.374934037,18.8704485 0.219788918,21.3620053 C0.103430079,23.2274406 0.155145119,25.1039578 0.177308707,26.974934 C0.18469657,27.6416887 0.685224274,28.0572559 1.40184697,28.0609499 C4.44010554,28.0720317 7.47836412,28.0720317 10.5166227,28.0609499 C11.3366755,28.0572559 11.7744063,27.6102902 11.791029,26.7957784 C11.8076517,26.0182058 11.8150396,25.2387863 11.7873351,24.4630607 C11.7319261,22.8912929 10.6588391,21.5799472 9.12401055,21.2197889 C8.72691293,21.1274406 8.30765172,21.107124 7.89762533,21.1034301 C6.15778364,21.0905013 4.41609499,21.0978892 2.62084433,21.0978892 C2.84063325,20.0986807 3.37810026,19.4079156 4.14459103,18.9591029 C4.89076517,18.521372 5.69050132,18.1316623 6.51609499,17.874934 C9.08522427,17.0751979 11.7540897,16.7944591 14.4229551,16.7150396 C19.9601583,16.5506596 25.5010554,16.4324538 31.0401055,16.4269129 C35.6556728,16.423219 40.2804749,16.530343 44.8461741,17.3042216 C46.360686,17.5609499 47.8511873,18.0596306 49.2955145,18.6007916 C50.344591,18.9941953 51.0870712,19.816095 51.3622691,21.0277045 C51.2385224,21.0627968 51.1923483,21.0868074 51.1461741,21.0868074 C49.3970976,21.0923483 47.6461741,21.0905013 45.8970976,21.0978892 C43.6253298,21.107124 42.1828496,22.5643799 42.1717678,24.8527704 C42.1699208,25.4364116 42.1680739,26.0200528 42.1717678,26.6036939 C42.1791557,27.6564644 42.5781003,28.0627968 43.6216359,28.0646438 C46.5379947,28.0683377 49.4543536,28.0683377 52.3725594,28.0646438 C53.3791557,28.0627968 53.7984169,27.6509235 53.8039578,26.6572559 C53.8113456,25.2720317 53.7762533,23.8849604 53.8131926,22.4997361 C53.8907652,19.4337731 52.498153,17.3522427 49.6686016,16.2292876 Z M5.32110818,23.3973615 C6.19472296,23.3973615 7.06649077,23.3955145 7.94010554,23.3973615 C9.12216359,23.4010554 9.49709763,23.7796834 9.49894459,24.9672823 C9.49894459,25.2036939 9.49894459,25.4419525 9.49894459,25.737467 C7.10712401,25.737467 4.8353562,25.737467 2.51187335,25.737467 C2.51187335,24.9728232 2.51187335,24.2358839 2.51187335,23.3955145 C3.44828496,23.3973615 4.38469657,23.3973615 5.32110818,23.3973615 Z M7.64274406,15.0472296 C7.98997361,14.0129288 8.34459103,12.9583113 8.69551451,11.901847 C9.43245383,9.69287599 10.1730871,7.48575198 10.9007916,5.27308707 C11.307124,4.03931398 12.1382586,3.32084433 13.4255937,3.17308707 C19.3488127,2.49340369 25.2905013,2.19604222 31.2469657,2.47124011 C34.2298153,2.60791557 37.2034301,2.9182058 40.1825858,3.12875989 C41.7229551,3.23773087 42.6778364,4.0060686 43.1525066,5.47810026 C44.1073879,8.43139842 45.1084433,11.3717678 46.0891821,14.3176781 C46.1722955,14.5688654 46.2369393,14.8255937 46.3034301,15.0527704 C33.4300792,13.7100264 20.5825858,13.7192612 7.64274406,15.0472296 Z M51.4601583,25.7189974 C49.1588391,25.7189974 46.8686016,25.7189974 44.474934,25.7189974 C44.474934,25.2831135 44.4490765,24.8970976 44.4804749,24.5166227 C44.5340369,23.8775726 44.905277,23.4324538 45.5350923,23.4195251 C47.494723,23.3788918 49.4543536,23.4047493 51.4601583,23.4047493 C51.4601583,24.1934037 51.4601583,24.93219 51.4601583,25.7189974 Z" id="Shape"></path>
                            <path d="M52.0456464,30.4343008 C35.3287599,30.4343008 18.6118734,30.4343008 1.89683377,30.4343008 C1.70290237,30.4343008 1.50712401,30.423219 1.31319261,30.4398417 C0.627968338,30.4952507 0.149604222,30.9902375 0.16580687,31.6145119 C0.182849604,32.2129288 0.646437995,32.682058 1.30026385,32.7263852 C1.67889182,32.7522427 2.06121372,32.7319261 2.49709763,32.7319261 C2.49709763,33.9398417 2.48601583,35.053562 2.49894459,36.1672823 C2.52110818,38.2192612 4.0005277,39.7060686 6.03957784,39.7356201 C6.67124011,39.7448549 7.30290237,39.737467 7.93456464,39.737467 C10.3725594,39.7337731 11.792876,38.3245383 11.7965699,35.9031662 C11.7984169,34.8670185 11.7965699,33.8308707 11.7965699,32.7744063 C21.9585752,32.7744063 32.0282322,32.7744063 42.1717678,32.7744063 C42.1717678,33.9730871 42.1514512,35.1348285 42.1754617,36.292876 C42.214248,38.2063325 43.7065963,39.6875989 45.6218997,39.7319261 C46.3255937,39.7485488 47.0311346,39.737467 47.7348285,39.7356201 C50.0102902,39.7282322 51.4638522,38.2709763 51.4693931,35.9918206 C51.4730871,34.9298153 51.4693931,33.8659631 51.4693931,32.8372032 C51.5894459,32.7854881 51.6300792,32.7540897 51.6744063,32.7503958 C51.7944591,32.739314 51.9163588,32.7356201 52.0382586,32.7337731 C53.253562,32.7116095 53.7965699,32.3588391 53.8003042,31.5849604 C53.8058047,30.8055409 53.2406332,30.4343008 52.0456464,30.4343008 Z M9.46569921,36.4277045 C9.43245383,37.0538259 8.96332454,37.4139842 8.31873351,37.4306069 C7.54116095,37.4509235 6.76358839,37.4527704 5.98601583,37.4306069 C5.31002639,37.4121372 4.84828496,37.0372032 4.81688654,36.3686016 C4.76332454,35.1865435 4.80211082,34.0007916 4.80211082,32.7707124 C6.4182058,32.7707124 7.91794195,32.7707124 9.48416887,32.7707124 C9.48416887,34.0137203 9.53034301,35.2234828 9.46569921,36.4277045 Z M49.0775726,36.5828496 C49.0480211,36.8949868 48.4385224,37.3327177 48.0451187,37.3936675 C47.2379947,37.5211082 46.3957784,37.4675462 45.5738786,37.4195251 C44.9034301,37.3788918 44.5007916,36.9540897 44.4823219,36.2781003 C44.4527704,35.1366755 44.474934,33.9952507 44.474934,32.7688654 C46.0540897,32.7688654 47.5538259,32.7688654 49.1292876,32.7688654 C49.1274406,34.0395778 49.1957784,35.3195251 49.0775726,36.5828496 Z" id="Shape"></path>
                            <path d="M16.4656992,26.817942 C16.6208443,24.7382586 18.0596306,23.4010554 20.1596306,23.3992084 C24.7050132,23.3955145 29.2485488,23.3955145 33.7939314,23.4010554 C34.1079156,23.4010554 34.4292876,23.4121372 34.7340369,23.4804749 C36.3390501,23.8461741 37.3788918,25.1058047 37.5026385,26.8013193 C37.5598945,27.5918206 38.0493404,28.0997361 38.716095,28.0609499 C39.3883905,28.0221636 39.8187335,27.4736148 39.8002639,26.6775726 C39.7965699,26.5316623 39.7854881,26.385752 39.7651715,26.2416887 C39.3292876,23.1849604 36.937467,21.105277 33.8456464,21.0978892 C31.5609499,21.0923483 29.2762533,21.0960422 26.9915567,21.0960422 C25.2240106,21.0960422 23.4546174,21.0849604 21.6870712,21.0886544 C21.0978892,21.0905013 20.5087071,21.0941953 19.9195251,21.0997361 C16.8295515,21.1329815 14.2474934,23.6448549 14.1680739,26.6609499 C14.1477573,27.460686 14.5670185,28.0073879 15.237467,28.0591029 C15.9060686,28.1108179 16.4065963,27.6029024 16.4656992,26.817942 Z" id="Path"></path>
                        </g>
                        <path d="M50.3907652,25.7817942 C48.2926121,25.3643799 46.7116095,23.5044855 46.7116095,21.2751979 C46.7116095,20.782058 47.1105541,20.3831135 47.6036939,20.3831135 C48.0968338,20.3831135 48.4957784,20.782058 48.4957784,21.2751979 C48.4957784,22.828496 49.7443272,24.0844327 51.2828496,24.0844327 C52.9007916,24.0844327 54.0699208,23.0427441 54.0699208,21.5836412 C54.0699208,20.3295515 53.0319261,19.5168865 51.0778364,19.0588391 C48.4126649,18.4327177 46.7097625,17.1010554 46.7097625,14.7978892 C46.7097625,12.601847 48.2686016,10.9525066 50.3889182,10.5886544 L50.3889182,9.55435356 C50.3889182,9.06121372 50.7878628,8.66226913 51.2810026,8.66226913 C51.7741425,8.66226913 52.1730871,9.06121372 52.1730871,9.55435356 L52.1730871,10.6034301 C53.9997361,10.9709763 55.4588391,12.437467 55.7783641,14.3416887 C55.8596306,14.8274406 55.5327177,15.2873351 55.0469657,15.3686016 C54.5612137,15.4498681 54.1013193,15.1229551 54.0200528,14.6372032 C53.792876,13.2870712 52.6348285,12.3007916 51.2810026,12.2970976 C49.6630607,12.2970976 48.4939314,13.3387863 48.4939314,14.7978892 C48.4939314,16.0519789 49.5319261,16.8646438 51.4860158,17.3226913 C54.1511873,17.9488127 55.8540897,19.2804749 55.8540897,21.5836412 C55.8540897,23.7796834 54.2952507,25.4308707 52.174934,25.794723 L52.174934,26.8290237 C52.174934,27.3221636 51.7759894,27.7211082 51.2828496,27.7211082 C50.7897098,27.7211082 50.3907652,27.3221636 50.3907652,26.8290237 L50.3907652,25.7817942 L50.3907652,25.7817942 Z" id="Combined-Shape_20_" fill="#3FAE29"></path>
                        <path d="M53.3551451,37.0187335 C52.8139842,37.0187335 52.3485488,36.614248 52.283905,36.0638522 C52.2155673,35.4728232 52.6403694,34.9372032 53.2313984,34.8670185 C58.1849604,34.2926121 62.5456464,31.5461741 65.1960422,27.3295515 C67.521372,23.6337731 68.2675462,19.2527704 67.2997361,14.9955145 C66.3300792,10.7382586 63.7609499,7.11266491 60.0633245,4.78733509 C56.3675462,2.46200528 51.9902375,1.71583113 47.7292876,2.68364116 C43.4720317,3.65329815 39.846438,6.22242744 37.5211082,9.92005277 C34.8577836,14.1532982 34.2778364,19.2915567 35.9253298,24.017942 C36.1211082,24.5812665 35.8237467,25.1963061 35.2622691,25.3920844 C34.6970976,25.5878628 34.083905,25.2905013 33.8862797,24.7290237 C32.0208443,19.3783641 32.6783641,13.5622691 35.6926121,8.76939314 C38.3245383,4.58416887 42.428496,1.67704485 47.2490765,0.578100264 C52.071504,-0.518997361 57.0287599,0.326912929 61.2121372,2.95883905 C65.3973615,5.59076517 68.3044855,9.69472296 69.4015831,14.5153034 C70.4986807,19.3358839 69.6546174,24.2949868 67.0226913,28.4783641 C64.021372,33.2490765 59.0844327,36.3593668 53.4788918,37.0094987 C53.4382586,37.0168865 53.3976253,37.0187335 53.3551451,37.0187335 Z" id="Path" fill="#333E48"></path>
                    </g>
                </g>
            </g>
        </g>
    </g>
</svg>