<?xml version="1.0" encoding="UTF-8"?>
<svg width="68px" height="70px" viewBox="0 0 68 70" version="1.1" xmlns="http://www.w3.org/2000/svg" xmlns:xlink="http://www.w3.org/1999/xlink">
    <title>Icons / business / circle</title>
    <g id="Page-1" stroke="none" stroke-width="1" fill="none" fill-rule="evenodd">
        <g id="4" transform="translate(-533.000000, -586.000000)" fill-rule="nonzero">
            <g id="Hero" transform="translate(0.000000, 185.000000)">
                <g id="Elements-/-Cards-/-Business-Category-/-Large-/-Standard----Personal-Loans" transform="translate(422.000000, 365.000000)">
                    <g id="Personal-Loans" transform="translate(111.875000, 36.000000)">
                        <g id="Icons_x2F_general_x2F_moneybag_1_" transform="translate(28.269231, 18.173077)" fill="#3FAE29">
                            <g id="illustrations_x2F_moneybag_1_" transform="translate(0.097222, 0.049383)">
                                <path d="M3.46111111,16.1779891 C1.51666667,15.7829222 0.0583333333,14.0446279 0.0583333333,11.9507734 C0.0583333333,11.4964465 0.427777778,11.1211329 0.875,11.1211329 C1.32222222,11.1211329 1.69166667,11.4964465 1.69166667,11.9507734 C1.69166667,13.4125209 2.83888889,14.5779682 4.25833333,14.5779682 C5.75555556,14.5779682 6.825,13.6100543 6.825,12.2273202 C6.825,11.0421196 5.87222222,10.2914925 4.06388889,9.8569189 C1.61388889,9.26431856 0.0388888889,8.01985786 0.0388888889,5.86674331 C0.0388888889,3.81239548 1.47777778,2.25188127 3.44166667,1.91607441 L3.44166667,0.948160535 C3.44166667,0.493833612 3.81111111,0.118520067 4.25833333,0.118520067 C4.70555556,0.118520067 5.075,0.493833612 5.075,0.948160535 L5.075,1.93582776 C6.76666667,2.27163462 8.10833333,3.65436873 8.4,5.43216973 C8.47777778,5.88649666 8.16666667,6.32107023 7.71944444,6.40008361 C7.27222222,6.47909699 6.84444444,6.16304348 6.76666667,5.70871656 C6.55277778,4.44450251 5.48333333,3.51609532 4.23888889,3.51609532 C2.74166667,3.51609532 1.67222222,4.4840092 1.67222222,5.86674331 C1.67222222,7.05194398 2.625,7.80257107 4.43333333,8.23714465 C6.88333333,8.82974498 8.45833333,10.0742057 8.45833333,12.2273202 C8.45833333,14.2816681 7.01944444,15.8421823 5.05555556,16.1779891 L5.05555556,17.145903 C5.05555556,17.6002299 4.68611111,17.9755435 4.23888889,17.9755435 C3.79166667,17.9755435 3.42222222,17.6002299 3.42222222,17.145903 L3.42222222,16.1779891 L3.46111111,16.1779891 Z" id="Combined-Shape_5_"></path>
                            </g>
                        </g>
                        <g id="Group" fill="#333E48">
                            <path d="M66.614901,67.3898305 L63.6380291,44.1355932 C63.5591716,43.5225989 62.9874545,43.0875706 62.3763086,43.1666667 L53.6231224,44.2937853 C53.0119766,44.3728814 52.5585457,44.9463277 52.6571177,45.559322 L53.0711197,48.7429379 L49.3451013,49.2372881 C48.6353835,49.3361582 47.9256657,49.1581921 47.3539486,48.7429379 C42.4647815,45.3418079 39.3893377,44.1751412 35.9984638,44.4717514 C34.3818844,44.6101695 32.7258762,45.0649718 30.2418639,46.0338983 C29.6504324,46.2711864 27.9155667,47.0028249 26.2201297,47.7146893 C24.7218366,48.3474576 23.3221154,48.940678 22.632112,49.2175141 C21.9815373,49.4943503 21.3901058,49.8700565 20.9169606,50.3446328 C20.8972462,50.3248588 20.8578175,50.3050847 20.8381031,50.3050847 L18.9258079,49.4548023 C17.4866579,48.8022599 16.0277936,48.1694915 14.6675011,47.5564972 L14.5492148,47.4971751 C10.133193,45.539548 8.37861288,44.7881356 8.08289713,44.7090395 C5.61859923,44.0762712 3.62744652,45.0056497 2.87829995,47.1016949 C2.28686846,48.7627119 2.62201297,50.799435 3.6471609,51.8672316 C3.68658967,51.9067797 3.70630405,51.9265537 3.74573282,51.9661017 L19.2412381,64.4039548 C20.3846723,65.5706215 22.0209661,66.1440678 23.6178311,65.9067797 L40.1384843,63.5734463 C40.3947713,63.5338983 40.6707726,63.5338983 40.9270596,63.5734463 L45.8753698,64.2655367 C45.9936561,64.2853107 46.092228,64.2853107 46.2105143,64.3050847 L55.1214156,64.9576271 L55.6142751,68.8333333 C55.6931327,69.4067797 56.1662779,69.8220339 56.737995,69.8220339 C56.7774238,69.8220339 56.8365669,69.8220339 56.8759957,69.8220339 L65.6291818,68.6949153 C66.2600421,68.5762712 66.6937585,68.0028249 66.614901,67.3898305 Z M24.9189804,58.9661017 L33.1990214,56 C33.4750228,55.9011299 33.7115954,55.6836158 33.8298817,55.4265537 C33.9678823,55.1497175 33.9678823,54.8531073 33.8693104,54.5564972 C33.7707385,54.279661 33.5538803,54.0423729 33.2975933,53.9237288 C33.0215919,53.7853107 32.7258762,53.7853107 32.4301604,53.8841808 L24.2881202,56.7909605 C24.2092626,56.8107345 24.0318332,56.7909605 23.7952606,56.7514124 C22.5926832,56.4943503 21.7449647,55.5254237 21.6463928,54.259887 C21.5281065,52.9548023 22.2378243,51.7881356 23.4404017,51.3135593 C24.1304051,51.0367232 25.6286982,50.4039548 27.0875626,49.7909605 C28.7435708,49.0988701 30.4587221,48.3672316 31.0107249,48.1497175 C33.2778789,47.259887 34.7564577,46.8446328 36.1364645,46.7259887 C38.9359069,46.4887006 41.617063,47.5367232 46.0133705,50.6016949 C47.0582328,51.3333333 48.3199533,51.6299435 49.5816739,51.4717514 L53.3076923,50.9774011 L54.8059854,62.6440678 L46.348515,62.0310734 C46.2893719,62.0310734 46.2105143,62.0112994 46.1513712,62.0112994 L41.203061,61.319209 C40.7299158,61.259887 40.2567706,61.259887 39.7836254,61.319209 L23.2629722,63.6525424 C22.3363962,63.7909605 21.4098202,63.4548023 20.7789599,62.7824859 C20.7395312,62.7429379 20.7001024,62.7033898 20.6606736,62.6836158 L5.20459718,50.2259887 C4.84973828,49.7909605 4.69202321,48.7033898 4.98773896,47.8333333 C5.34259786,46.8248588 6.13117319,46.5282486 7.49146563,46.8644068 C7.55060878,46.8841808 8.29975535,47.200565 9.44318958,47.6949153 C10.4683375,48.1497175 11.8286299,48.7429379 13.6226388,49.5338983 L13.7409251,49.5932203 C15.1012176,50.2062147 16.5403675,50.8389831 17.9795175,51.4915254 L19.6946689,52.2627119 C19.2215237,53.6468927 19.33981,55.2288136 20.0298134,56.5141243 C20.7198168,57.779661 21.9026798,58.6497175 23.3418298,58.9661017 C23.9332613,59.0847458 24.485264,59.0847458 24.9189804,58.9661017 Z M64.2294606,66.559322 L57.7039998,67.4096045 L55.0031293,46.3898305 L61.5285901,45.539548 L64.2294606,66.559322 Z" id="Shape"></path>
                            <path d="M2.76001365,9.57062147 C2.97687187,11.6864407 4.17944925,13.5847458 5.97345812,14.6920904 L6.26917387,16.7881356 C6.56488962,18.9435028 7.98432522,20.8022599 9.99519231,21.6525424 L13.0706361,22.9576271 C13.2086368,23.0169492 13.3466375,23.0367232 13.5043525,23.0367232 C13.9577833,23.0367232 14.3717854,22.759887 14.5492148,22.3446328 C14.7857874,21.7711864 14.5295005,21.0988701 13.9577833,20.8615819 L10.8823396,19.5564972 C9.62061903,19.0225989 8.7137574,17.8361582 8.51661356,16.4717514 L8.41804165,15.779661 L14.5492148,18.3305085 C14.6872155,18.3898305 14.8252162,18.4096045 14.9829313,18.4096045 C15.4363621,18.4096045 15.8503641,18.1327684 16.0277936,17.7175141 C16.1460799,17.440678 16.1460799,17.1242938 16.0277936,16.8474576 C15.9095073,16.5706215 15.6926491,16.3531073 15.4166477,16.2344633 L7.78718138,13.1101695 C7.72803823,13.0903955 7.6491807,13.0508475 7.59003755,13.0112994 C7.5308944,12.9717514 7.49146563,12.9519774 7.43232249,12.9322034 C6.05231566,12.220339 5.14545403,10.8757062 5.00745335,9.35310734 L4.98773896,9.07627119 L11.572343,11.8644068 C11.8483443,11.9830508 12.1637745,11.9830508 12.4397758,11.8644068 C12.7157772,11.7457627 12.9326354,11.5282486 13.0509217,11.2514124 C13.2874943,10.6779661 13.0312073,10.0056497 12.4594902,9.76836158 L4.96802458,6.62429379 C3.45001707,5.97175141 2.40515476,4.48870056 2.32629722,2.82768362 L2.32629722,2.78813559 L14.2929279,8.0480226 C15.1800751,8.44350282 15.8897929,9.15536723 16.2643662,10.0451977 C16.2643662,10.0451977 16.2643662,10.0649718 16.2840806,10.0649718 L19.8326695,16.4519774 C20.010099,16.8672316 20.424101,17.1242938 20.8578175,17.1242938 C21.0155325,17.1242938 21.1535332,17.0847458 21.2915339,17.0254237 C21.5675353,16.9067797 21.7843935,16.6892655 21.9026798,16.4124294 C22.0209661,16.1355932 22.0209661,15.819209 21.9026798,15.5423729 C21.9026798,15.5423729 21.9026798,15.5225989 21.8829654,15.5225989 L18.3343764,9.13559322 C17.7232305,7.71186441 16.6192251,6.58474576 15.1997895,5.97175141 L2.16858216,0.276836158 C1.69543696,0.0593220339 1.12371985,0.0988700565 0.690003414,0.395480226 C0.236572599,0.692090395 -0.0197143832,1.20621469 0.0197143832,1.74011299 L0.078857533,2.96610169 C0.177429449,4.86440678 1.08429108,6.62429379 2.58258421,7.81073446 L2.76001365,9.57062147 Z" id="Path"></path>
                            <path d="M43.1153562,17.0649718 C43.2533569,17.1242938 43.4110719,17.1638418 43.5490726,17.1638418 C44.0025034,17.1638418 44.3967911,16.9067797 44.5742205,16.4915254 L48.1228095,10.1045198 C48.1228095,10.1045198 48.1228095,10.0847458 48.1425239,10.0847458 C48.5170972,9.19491525 49.226815,8.48305085 50.1139622,8.08757062 L62.1003072,2.8079096 L62.1003072,2.84745763 C62.0214497,4.50847458 60.9765874,5.99152542 59.4585799,6.6440678 L51.9868286,9.78813559 C51.4151115,10.0254237 51.1391102,10.6977401 51.3953971,11.2711864 C51.6319697,11.8446328 52.3022588,12.1214689 52.8739759,11.8644068 L59.4782943,9.07627119 L59.4585799,9.35310734 C59.3008648,10.8954802 58.3940032,12.220339 57.0337107,12.9322034 C56.9745676,12.9519774 56.9351388,12.9717514 56.8759957,13.0112994 C56.8168525,13.0508475 56.737995,13.0706215 56.6788518,13.1101695 L49.0888143,16.2542373 C48.5170972,16.4915254 48.2410958,17.1440678 48.4776684,17.7372881 C48.6550979,18.1525424 49.0690999,18.4293785 49.5225307,18.4293785 C49.6605314,18.4293785 49.8182465,18.4096045 49.9562472,18.3502825 L56.0874203,15.799435 L55.9888484,16.4915254 C55.7917046,17.8559322 54.9045574,19.0423729 53.6231224,19.5762712 L50.5476787,20.8813559 C50.2716773,21 50.0548191,21.2175141 49.9365328,21.4943503 C49.8182465,21.7711864 49.8182465,22.0875706 49.9365328,22.3644068 C50.1139622,22.779661 50.5279643,23.0564972 50.9813951,23.0564972 C51.1391102,23.0564972 51.2771108,23.0169492 51.4151115,22.9774011 L54.4905553,21.6723164 C56.481708,20.8220339 57.920858,18.9632768 58.2165737,16.8079096 L58.5122895,14.7118644 C60.3062984,13.6045198 61.5088757,11.7062147 61.725734,9.59039548 L61.9031634,7.81073446 C63.4014565,6.62429379 64.3083182,4.86440678 64.4068901,2.96610169 L64.4660332,1.74011299 C64.4857476,1.20621469 64.249175,0.692090395 63.7957442,0.395480226 L63.7957442,0.395480226 C63.3620278,0.0988700565 62.810025,0.0593220339 62.3171655,0.276836158 L49.2859581,5.99152542 C47.8665225,6.60451977 46.7625171,7.73163842 46.1513712,9.15536723 L42.6027822,15.5423729 C42.6027822,15.5423729 42.6027822,15.5621469 42.5830678,15.5621469 C42.4647815,15.8389831 42.4647815,16.1553672 42.5830678,16.4322034 C42.6224966,16.7288136 42.8393548,16.9463277 43.1153562,17.0649718 Z" id="Path"></path>
                            <path d="M24.8204085,12.180791 C25.5498407,12.9322034 26.3581304,13.7033898 27.2255633,14.5141243 C27.2847064,14.5536723 27.3241352,14.6129944 27.3832783,14.6525424 C27.1467057,14.8700565 26.9101331,15.0875706 26.6735605,15.3248588 C25.3526969,16.6101695 24.1106907,18.0141243 23.0066853,19.5169492 C19.4383819,24.3220339 17.6246586,29.3248588 17.6246586,34.3672316 C17.6246586,38.1638418 20.7001024,41.2683616 24.4655496,41.2683616 L40.532772,41.2683616 C44.2982192,41.2683616 47.3736629,38.1638418 47.3736629,34.3672316 C47.3736629,29.3248588 45.5599397,24.3220339 41.9916363,19.5169492 C40.9862028,18.1723164 39.8821973,16.8870056 38.6993343,15.700565 C39.1527651,15.6412429 39.5470528,15.5225989 39.9019117,15.3644068 C40.4539144,15.1073446 40.7102014,14.4548023 40.4539144,13.9011299 C40.3356281,13.6242938 40.1187699,13.4265537 39.8427685,13.3276836 C39.5667672,13.2288136 39.2710514,13.2288136 38.9950501,13.3672316 C38.8767638,13.4265537 38.7584775,13.4661017 38.6401912,13.4858757 C39.5864816,12.4378531 40.3750569,11.4491525 40.946774,10.6186441 C41.4790624,9.82768362 41.7944925,9.21468927 41.9324932,8.70056497 C42.0704939,8.14689266 41.9916363,7.61299435 41.715635,7.23728814 C41.459348,6.90112994 41.0453459,6.70338983 40.5524863,6.70338983 C39.4484809,6.70338983 38.7979062,6.46610169 37.8910446,5.75423729 C37.8516158,5.73446328 37.7727583,5.65536723 37.6939008,5.5960452 C37.5559001,5.49717514 37.4178994,5.37853107 37.3587563,5.31920904 C36.4518946,4.60734463 35.7421768,4.33050847 34.8156008,4.33050847 C33.8890248,4.33050847 33.179307,4.60734463 32.252731,5.29943503 C32.1738735,5.35875706 31.9767296,5.49717514 31.8387289,5.61581921 L31.7007283,5.71468927 C30.7741523,6.42655367 30.143292,6.6440678 29.0787153,6.6440678 C28.6055701,6.6440678 27.8958523,6.44632768 26.6735605,5.9519774 C26.5552742,5.91242938 26.4172736,5.85310734 26.2595585,5.79378531 C24.6232647,5.14124294 24.1698339,4.96327684 23.4995448,4.84463277 C22.7306839,4.70621469 22.0801092,4.82485876 21.6463928,5.20056497 C21.2718195,5.51694915 21.0746757,6.01129944 21.0746757,6.60451977 C21.0746757,7.65254237 21.863251,8.97740113 23.7361174,11.0536723 C24.0515476,11.3898305 24.4261208,11.7853107 24.8204085,12.180791 Z M33.1990214,7.31638418 C33.3370221,7.21751412 33.4947371,7.09887006 33.5538803,7.03954802 C34.0861686,6.6440678 34.3818844,6.52542373 34.7958864,6.52542373 C35.1901741,6.52542373 35.4661755,6.6440678 35.959035,7.03954802 C36.0181782,7.07909605 36.1561789,7.19774011 36.2744652,7.29661017 C36.3730371,7.37570621 36.4518946,7.45480226 36.4913234,7.47457627 C37.4770426,8.26553672 38.3641898,8.68079096 39.4287665,8.81920904 C39.3301946,8.97740113 39.2316227,9.13559322 39.1133364,9.31355932 C38.423333,10.3418079 37.2996131,11.6666667 35.9787494,13.0508475 L35.80132,13.2485876 C35.7027481,13.3474576 35.6041761,13.4661017 35.5056042,13.5649718 L29.4927173,13.5649718 C29.2758591,13.3672316 29.0195721,13.1299435 28.7435708,12.8926554 C27.8958523,12.1016949 27.107277,11.3502825 26.4172736,10.6384181 C26.4172736,10.6384181 26.4172736,10.6384181 26.4172736,10.6384181 C26.0427003,10.2627119 25.6878414,9.88700565 25.3724112,9.53107345 C24.3866921,8.44350282 23.7952606,7.61299435 23.4995448,7.09887006 C23.8741181,7.21751412 24.3866921,7.41525424 25.4315544,7.83050847 L25.8455564,7.98870056 C27.1664201,8.50282486 28.1521393,8.81920904 29.0590009,8.81920904 C30.6361516,8.81920904 31.7007283,8.44350282 33.0215919,7.43502825 L33.1990214,7.31638418 Z M28.2112824,16.9265537 C28.6055701,16.5508475 28.9801434,16.1949153 29.3350023,15.8983051 C29.374431,15.8587571 29.4138598,15.819209 29.4532886,15.799435 L35.545033,15.799435 C35.5844618,15.8389831 35.6238905,15.8587571 35.6633193,15.8983051 C36.0181782,16.2146893 36.3927515,16.5508475 36.7870391,16.9265537 C38.0290453,18.1327684 39.1921939,19.4576271 40.2173418,20.8418079 C43.4899294,25.2514124 45.165652,29.799435 45.165652,34.3672316 C45.165652,36.9378531 43.0956418,39.0536723 40.532772,39.0536723 L24.4655496,39.0536723 C21.9223942,39.0536723 19.8326695,36.9576271 19.8326695,34.3672316 C19.8326695,29.819209 21.4886777,25.2711864 24.7809797,20.8418079 C25.8061277,19.4576271 26.9692763,18.1327684 28.2112824,16.9265537 Z" id="Shape"></path>
                        </g>
                    </g>
                </g>
            </g>
        </g>
    </g>
</svg>