<?xml version="1.0" encoding="utf-8"?>
<!-- Generator: Adobe Illustrator 23.0.4, SVG Export Plug-In . SVG Version: 6.00 Build 0)  -->
<svg version="1.1" id="Layer_1" xmlns="http://www.w3.org/2000/svg" xmlns:xlink="http://www.w3.org/1999/xlink" x="0px" y="0px"
	 viewBox="0 0 125 113" style="enable-background:new 0 0 125 113;" xml:space="preserve">
<style type="text/css">
	.st0{fill:#333E48;}
	.st1{fill-rule:evenodd;clip-rule:evenodd;fill:#0093C9;}
</style>
<title>illustrations/freeze_illustration</title>
<desc>Created with Sketch.</desc>
<g id="Disputes">
	<g id="EFX---Public-Page---Credit-Report---Desktop-WALLWALK" transform="translate(-430.000000, -3696.000000)">
		<g id="Other-Service" transform="translate(331.000000, 3361.000000)">
			<g id="Place-Freeze" transform="translate(0.000000, 275.000000)">
				<g id="Group-24" transform="translate(67.000000, 60.000000)">
					<g transform="translate(32.000000, 0.000000)">
						<g>
							<path id="snowflake" class="st0" d="M111.8,54c1.2,0,2.2,1,2.2,2.2s-1,2.2-2.2,2.2H100l6.9,8.4c0.8,0.9,0.6,2.3-0.3,3
								c-0.4,0.3-0.9,0.5-1.4,0.5c-0.6,0-1.3-0.3-1.7-0.8l-9.2-11.1H75.5c-0.5,3.1-2.2,5.9-4.6,7.8l9.4,16.1l14.3,2.3
								c1.2,0.2,2,1.3,1.8,2.5c-0.2,1.1-1.1,1.8-2.2,1.8c-0.1,0-0.2,0-0.4,0l-10.8-1.7l5.9,10.1c0.6,1,0.2,2.4-0.8,3
								c-0.3,0.2-0.7,0.3-1.1,0.3c-0.8,0-1.5-0.4-1.9-1.1l-5.9-10.1l-3.9,10.1c-0.3,0.9-1.2,1.4-2.1,1.4c-0.3,0-0.5,0-0.8-0.1
								c-1.1-0.4-1.7-1.7-1.3-2.8l5.1-13.4l-9.4-16.2c-1.4,0.5-3,0.8-4.6,0.8s-3.2-0.3-4.6-0.8l-9.4,16.1l5.1,13.4
								c0.4,1.1-0.1,2.4-1.3,2.8c-0.3,0.1-0.5,0.1-0.8,0.1c-0.9,0-1.7-0.5-2.1-1.4l-3.9-10.1l-5.9,10.1c-0.4,0.7-1.1,1.1-1.9,1.1
								c-0.4,0-0.7-0.1-1.1-0.3c-1-0.6-1.4-1.9-0.8-3l5.9-10.1L31,88.9c-0.1,0-0.2,0-0.4,0c-1.1,0-2-0.8-2.2-1.8
								c-0.2-1.2,0.6-2.3,1.8-2.5l14.3-2.3l9.4-16.1c-2.4-1.9-4-4.7-4.6-7.8H30.7l-9.2,11.1c-0.4,0.5-1.1,0.8-1.7,0.8
								c-0.5,0-1-0.2-1.4-0.5c-0.9-0.8-1.1-2.1-0.3-3l6.9-8.4H13.2c-1.2,0-2.2-1-2.2-2.2s1-2.2,2.2-2.2H25l-6.9-8.4
								c-0.8-0.9-0.6-2.3,0.3-3c0.9-0.8,2.3-0.6,3.1,0.3L30.7,54h18.9c0.5-3.1,2.2-5.9,4.6-7.8L44.7,30l-14.3-2.3
								c-1.2-0.2-2-1.3-1.8-2.5c0.2-1.2,1.3-2,2.5-1.8l10.8,1.7l-5.9-10.1c-0.6-1-0.2-2.4,0.8-3c1-0.6,2.4-0.2,3,0.8L45.7,23
								l3.9-10.1c0.4-1.1,1.7-1.7,2.8-1.3c1.1,0.4,1.7,1.7,1.3,2.8l-5.1,13.4L57.9,44c1.4-0.5,3-0.8,4.6-0.8s3.2,0.3,4.6,0.8
								l9.4-16.1l-5.1-13.4c-0.4-1.1,0.1-2.4,1.3-2.8c1.1-0.4,2.4,0.1,2.8,1.3L79.4,23l5.9-10.1c0.6-1,1.9-1.4,3-0.8
								c1,0.6,1.4,1.9,0.8,3l-5.9,10.1L94,23.4c1.2-0.2,2.3,0.6,2.5,1.8c0.2,1.2-0.6,2.3-1.8,2.5L80.3,30l-9.4,16.1
								c2.4,1.9,4,4.7,4.6,7.8h18.9l9.2-11.1c0.8-0.9,2.1-1.1,3.1-0.3c0.9,0.8,1.1,2.1,0.3,3L100,54H111.8z M62.5,65
								c4.9,0,8.9-3.9,8.9-8.8s-4-8.8-8.9-8.8c-4.9,0-8.9,3.9-8.9,8.8S57.6,65,62.5,65z"/>
							<path id="colors" class="st1" d="M40.7,35.4c1.2,0.7,1.6,2.2,0.9,3.3l-4.4,7.6c-0.7,1.2-2.2,1.6-3.3,0.9s-1.6-2.2-0.9-3.3
								l4.4-7.6C38.1,35.1,39.6,34.7,40.7,35.4L40.7,35.4z M69.8,26.8c0,1.3-1.1,2.4-2.4,2.4h-8.8c-1.3,0-2.4-1.1-2.4-2.4
								c0-1.3,1.1-2.4,2.4-2.4h8.8C68.7,24.4,69.8,25.5,69.8,26.8z M91.4,48.2c-1.2,0.7-2.7,0.3-3.3-0.9l-4.4-7.6
								c-0.7-1.2-0.3-2.7,0.9-3.3c1.2-0.7,2.7-0.3,3.3,0.9l4.4,7.6C93,46.1,92.6,47.6,91.4,48.2z M40.7,77.4
								c-1.2,0.7-2.7,0.3-3.3-0.9L33,68.9c-0.7-1.2-0.3-2.7,0.9-3.3c1.2-0.7,2.7-0.3,3.3,0.9l4.4,7.6C42.3,75.3,41.9,76.8,40.7,77.4
								L40.7,77.4z M69.8,86c0,1.3-1.1,2.4-2.4,2.4h-8.8c-1.3,0-2.4-1.1-2.4-2.4s1.1-2.4,2.4-2.4h8.8C68.7,83.6,69.8,84.6,69.8,86z
								 M91.4,64.6c1.2,0.7,1.6,2.2,0.9,3.3l-4.4,7.6c-0.7,1.2-2.2,1.6-3.3,0.9c-1.2-0.7-1.6-2.2-0.9-3.3l4.4-7.6
								C88.8,64.3,90.3,63.9,91.4,64.6z"/>
						</g>
					</g>
				</g>
			</g>
		</g>
	</g>
</g>
</svg>
