<?xml version="1.0" encoding="utf-8"?>
<!-- Generator: Adobe Illustrator 23.0.4, SVG Export Plug-In . SVG Version: 6.00 Build 0)  -->
<svg version="1.1" id="Layer_1" xmlns="http://www.w3.org/2000/svg" xmlns:xlink="http://www.w3.org/1999/xlink" x="0px" y="0px"
	 viewBox="0 0 125 113" style="enable-background:new 0 0 125 113;" xml:space="preserve">
<style type="text/css">
	.st0{fill-rule:evenodd;clip-rule:evenodd;fill:#FFFFFF;}
	.st1{fill:#333E48;}
	.st2{fill:#3FAE29;}
	.st3{fill-rule:evenodd;clip-rule:evenodd;fill:#3FAE29;}
</style>
<title>Equifax Complete</title>
<desc>Created with Sketch.</desc>
<g id="Disputes">
	<g id="EFX---Public-Page---Disputes---Desktop-WALLWALK" transform="translate(-447.000000, -4075.000000)">
		<g id="Other-Service" transform="translate(331.000000, 3742.000000)">
			<g id="View-Credit" transform="translate(0.000000, 275.000000)">
				<g id="Equifax-Complete" transform="translate(46.000000, 58.000000)">
					<g transform="translate(70.000000, 0.000000)">
						<g>
							<g>
								<path id="Combined-Shape" class="st0" d="M81.3,56.9c1.3-0.2,2.6-0.3,4-0.3c12.8,0,23.2,10.3,23.2,22.9
									s-10.4,22.9-23.2,22.9c-8.5,0-16-4.6-20-11.3C65,91.7,64.8,92,64.7,92H19.6C17,92,15,90,15,87.5V22c0-2.5,2-4.5,4.6-4.5h13
									c0.7-1.7,2.3-2.8,4.2-2.8H40c1.3-3.4,4.6-5.7,8.3-5.7s7,2.3,8.3,5.7h3.2c1.9,0,3.6,1.2,4.2,2.8h13c2.5,0,4.6,2,4.6,4.5v34.2
									C81.6,56.2,81.5,56.5,81.3,56.9z"/>
								<path class="st1" d="M62.4,88.6c-1.2-2.9-1.8-6-1.8-9.3c0-11.1,7.4-20.5,17.6-23.5V22c0-0.6-0.5-1.2-1.2-1.2H64.4v6.9
									c0,0.9-0.8,1.7-1.7,1.7H33.9c-0.9,0-1.7-0.8-1.7-1.7v-6.9H19.6c-0.7,0-1.2,0.5-1.2,1.2v65.5c0,0.6,0.5,1.2,1.2,1.2H62.4z
									 M64.1,92H19.6C17,92,15,90,15,87.5V22c0-2.5,2-4.5,4.6-4.5h13c0.7-1.7,2.3-2.8,4.2-2.8H40c1.3-3.4,4.6-5.7,8.3-5.7
									s7,2.3,8.3,5.7h3.2c1.9,0,3.6,1.2,4.2,2.8h13c2.5,0,4.6,2,4.6,4.5v33.2c1.2-0.2,2.4-0.3,3.7-0.3c13.6,0,24.7,11,24.7,24.5
									s-11.1,24.5-24.7,24.5C76.3,103.8,68.4,99.1,64.1,92z M61,19.1c0-0.6-0.5-1.2-1.2-1.2h-4.5c-0.8,0-1.5-0.6-1.7-1.3
									c-0.5-2.5-2.8-4.4-5.4-4.4c-2.6,0-4.9,1.8-5.4,4.4c-0.2,0.8-0.9,1.3-1.7,1.3h-4.5c-0.7,0-1.2,0.5-1.2,1.2V26H61V19.1z
									 M85.3,100.5c11.8,0,21.3-9.4,21.3-21.1S97,58.3,85.3,58.3S64,67.7,64,79.4S73.5,100.5,85.3,100.5z"/>
								<path class="st2" d="M31.2,37.4h34.6c2.3,0,2.3,3.4,0,3.4H31.2C28.9,40.8,28.9,37.4,31.2,37.4z M31.6,55.9h29.8
									c2.3,0,2.3,3.4,0,3.4H31.6C29.3,59.3,29.3,55.9,31.6,55.9z M31.6,46.6h34.6c2.3,0,2.3,3.4,0,3.4H31.6
									C29.3,50,29.3,46.6,31.6,46.6z M31.6,65.2H52c2.3,0,2.3,3.4,0,3.4H31.6C29.3,68.5,29.3,65.2,31.6,65.2z"/>
								<path id="Shape" class="st3" d="M96.5,70.6c0.6-0.7,1.7-0.7,2.4-0.1c0.7,0.6,0.7,1.7,0.1,2.4L83.9,89
									c-0.6,0.7-1.7,0.7-2.4,0.1l-9.4-8.9c-0.7-0.6-0.7-1.7-0.1-2.4c0.6-0.7,1.7-0.7,2.4-0.1l8.2,7.7L96.5,70.6z"/>
							</g>
						</g>
					</g>
				</g>
			</g>
		</g>
		<g id="Page">
		</g>
	</g>
</g>
</svg>
