<?xml version="1.0" encoding="utf-8"?>
<!-- Generator: Adobe Illustrator 23.0.4, SVG Export Plug-In . SVG Version: 6.00 Build 0)  -->
<svg version="1.1" id="Layer_1" xmlns="http://www.w3.org/2000/svg" xmlns:xlink="http://www.w3.org/1999/xlink" x="0px" y="0px"
	 viewBox="0 0 125 113" style="enable-background:new 0 0 125 113;" xml:space="preserve">
<style type="text/css">
	.st0{fill-rule:evenodd;clip-rule:evenodd;fill:#FFFFFF;}
	.st1{fill:#333E48;}
	.st2{fill:#E70033;}
</style>
<title>illustrations/dispute_illustration</title>
<desc>Created with Sketch.</desc>
<g id="Disputes">
	<g id="EFX---Public-Page---Credit-Report---Desktop-WALLWALK" transform="translate(-1083.000000, -3694.000000)">
		<g id="Other-Service" transform="translate(331.000000, 3361.000000)">
			<g id="Dispute" transform="translate(638.000000, 275.000000)">
				<g transform="translate(114.000000, 58.000000)">
					<g id="Combined-Shape">
						<path class="st0" d="M81.1,56.8c1.3-0.2,2.6-0.3,4-0.3c12.8,0,23.1,10.3,23.1,22.9s-10.4,22.9-23.1,22.9
							c-8.5,0-15.9-4.5-20-11.3c-0.3,0.6-0.5,0.9-0.6,0.9H19.5c-2.5,0-4.5-2-4.5-4.5V22c0-2.5,2-4.5,4.5-4.5h13
							c0.7-1.7,2.3-2.8,4.2-2.8h3.2c1.3-3.4,4.5-5.7,8.3-5.7s7,2.3,8.3,5.7h3.2c1.9,0,3.5,1.2,4.2,2.8h13c2.5,0,4.5,2,4.5,4.5v34.1
							C81.3,56.1,81.2,56.4,81.1,56.8L81.1,56.8z"/>
						<path class="st1" d="M63.9,91.9H19.5c-2.5,0-4.5-2-4.5-4.5V22c0-2.5,2-4.5,4.5-4.5h13c0.7-1.7,2.3-2.8,4.2-2.8h3.2
							c1.3-3.4,4.5-5.7,8.3-5.7s7,2.3,8.3,5.7h3.2c1.9,0,3.5,1.2,4.2,2.8h13c2.5,0,4.5,2,4.5,4.5v33.1c1.2-0.2,2.4-0.3,3.6-0.3
							c13.6,0,24.6,10.9,24.6,24.4s-11,24.4-24.6,24.4C76.1,103.7,68.2,98.9,63.9,91.9z M62.2,88.5c-1.2-2.9-1.8-6-1.8-9.2
							c0-11.1,7.4-20.4,17.6-23.4V22c0-0.6-0.5-1.2-1.2-1.2H64.2v6.8c0,0.9-0.8,1.7-1.7,1.7H33.9c-0.9,0-1.7-0.8-1.7-1.7v-6.8H19.5
							c-0.7,0-1.2,0.5-1.2,1.2v65.4c0,0.6,0.5,1.2,1.2,1.2H62.2z M60.8,19.1c0-0.6-0.5-1.2-1.2-1.2h-4.4c-0.8,0-1.5-0.6-1.6-1.3
							c-0.5-2.5-2.8-4.3-5.4-4.3c-2.6,0-4.8,1.8-5.4,4.3C42.6,17.4,42,18,41.2,18h-4.4c-0.7,0-1.2,0.5-1.2,1.2V26h25.3V19.1z
							 M85,100.3c11.7,0,21.2-9.4,21.2-21.1S96.7,58.2,85,58.2s-21.2,9.4-21.2,21.1S73.3,100.3,85,100.3z"/>
						<path class="st2" d="M31.1,37.3h34.4c2.2,0,2.2,3.4,0,3.4H31.1C28.9,40.7,28.9,37.3,31.1,37.3z M31.5,55.8h29.7
							c2.2,0,2.2,3.4,0,3.4H31.5C29.3,59.2,29.3,55.8,31.5,55.8z M31.5,46.5h34.4c2.2,0,2.2,3.4,0,3.4H31.5
							C29.3,49.9,29.3,46.5,31.5,46.5z M31.5,65.1h20.3c2.2,0,2.2,3.4,0,3.4H31.5C29.3,68.4,29.3,65.1,31.5,65.1z M83.1,66.6
							c0-0.9,0.8-1.7,1.7-1.7s1.7,0.8,1.7,1.7v16.8c0,0.9-0.8,1.7-1.7,1.7s-1.7-0.8-1.7-1.7V66.6z M84.8,93.6
							c-1.4,0-2.5-1.1-2.5-2.5c0-1.4,1.1-2.5,2.5-2.5s2.5,1.1,2.5,2.5C87.3,92.4,86.2,93.6,84.8,93.6z"/>
					</g>
				</g>
			</g>
		</g>
	</g>
</g>
</svg>
