<?xml version="1.0" encoding="utf-8"?>
<!-- Generator: Adobe Illustrator 23.0.4, SVG Export Plug-In . SVG Version: 6.00 Build 0)  -->
<svg version="1.1" id="Layer_1" xmlns="http://www.w3.org/2000/svg" xmlns:xlink="http://www.w3.org/1999/xlink" x="0px" y="0px"
	 viewBox="0 0 125 113" style="enable-background:new 0 0 125 113;" xml:space="preserve">
<style type="text/css">
	.st0{fill-rule:evenodd;clip-rule:evenodd;fill:#FFFFFF;}
	.st1{fill:#333E48;}
	.st2{fill-rule:evenodd;clip-rule:evenodd;fill:#FF661B;}
</style>
<title>illustrations/fraud_illustration</title>
<desc>Created with Sketch.</desc>
<g id="Disputes">
	<g id="EFX---Public-Page---Credit-Report---Desktop-WALLWALK" transform="translate(-743.000000, -3699.000000)">
		<g id="Other-Service" transform="translate(331.000000, 3361.000000)">
			<g id="Add-Alert" transform="translate(318.000000, 275.000000)">
				<g id="Group-24" transform="translate(33.000000, 63.000000)">
					<g transform="translate(61.000000, 0.000000)">
						<g>
							<path id="Shape" class="st0" d="M99.2,80.1c0,2.1-1,3.9-2.9,4.9c-4.4,2.4-10.8,5.5-16.7,5.5c-4.3,0-7.5-1.4-10.3-2.7
								c-2.4-1.1-4.6-2.1-7.1-2.1c-2.7,0-4.9,1-7.2,2.1c-2.8,1.3-5.7,2.6-10.1,2.6c-5.8,0-12.3-3.2-16.7-5.5c-1.8-1-2.9-2.8-2.9-4.9
								V63c15,2.2,26.1,3.2,36.9,3.2c10.8,0,21.9-0.9,36.9-3.2V80.1z"/>
							<path id="Path" class="st0" d="M62.3,61.8c-33.7,0-52.2-6.2-52.2-9.4c0-2,7-5.1,20.4-7.2c-0.3,2-0.6,4.2-0.9,6.6
								c0,0,1.2,0.2,3.6,0.5c0.7-5.4,1.3-9.7,1.9-13.9c0.5-3.9,1-7.8,1.7-12.5c17.1-4.7,34.3-4.8,51-0.2c-2.4,1.3-10.8,3.3-25,3.3
								c-8,0-15.5-0.7-20.6-1.8l-0.8,3.7c5.3,1.2,13.1,1.9,21.4,1.9c3.8,0,19.4-0.2,26.1-3.5c0.4,3.2,0.7,6.2,1.1,9.2
								c0.5,4.3,1,8.6,1.7,13.8l3.7-0.5c-0.3-2.3-0.5-4.4-0.8-6.4c13,2.1,19.9,5.2,19.9,7.1C114.5,55.6,96.1,61.8,62.3,61.8z"/>
							<path id="burglar" class="st1" d="M118.2,52.4c0,4.2-6.3,7.2-15.3,9.3v18.3c0,3.5-1.8,6.5-4.8,8.2c-4.7,2.6-11.7,6-18.4,6
								c-5.1,0-8.8-1.7-11.8-3c-2.1-0.9-3.9-1.7-5.6-1.7c-1.9,0-3.6,0.8-5.7,1.8c-2.9,1.3-6.4,3-11.7,3c-6.7,0-13.7-3.4-18.4-6
								c-3-1.6-4.8-4.7-4.8-8.2V61.7c-9-2.1-15.3-5.1-15.3-9.3c0-5.5,11-9,24.6-11c0.2-1.2,0.3-2.3,0.5-3.5
								c0.6-4.2,1.1-8.5,1.8-13.8l0.2-1.2l1.2-0.3c18.8-5.4,37.7-5.4,56,0l1.2,0.3l0.1,1.2c0.6,5.2,1.1,9.5,1.7,13.8
								c0.1,1.2,0.3,2.4,0.4,3.5C107.5,43.5,118.2,47,118.2,52.4z M99.2,80.1V63c-15,2.2-26.1,3.2-36.9,3.2
								c-10.8,0-21.9-0.9-36.9-3.2v17c0,2.1,1,3.9,2.9,4.9c4.3,2.4,10.8,5.5,16.7,5.5c4.4,0,7.3-1.3,10.1-2.6
								c2.3-1.1,4.5-2.1,7.2-2.1c2.5,0,4.7,1,7.1,2.1c2.8,1.3,6,2.7,10.3,2.7c5.8,0,12.3-3.2,16.7-5.5
								C98.2,83.9,99.2,82.2,99.2,80.1z M62.3,61.8c33.7,0,52.2-6.2,52.2-9.4c0-1.9-6.9-5-19.9-7.1c0.2,2,0.5,4.1,0.8,6.4l-3.7,0.5
								c-0.6-5.2-1.1-9.5-1.7-13.8c-0.4-3-0.7-5.9-1.1-9.2c-6.7,3.3-22.3,3.5-26.1,3.5c-8.2,0-16-0.7-21.4-1.9l0.8-3.7
								c5.1,1.2,12.6,1.8,20.6,1.8c14.2,0,22.7-2,25-3.3c-16.7-4.6-33.9-4.5-51,0.2c-0.6,4.8-1.2,8.7-1.7,12.5
								c-0.6,4.3-1.1,8.5-1.9,13.9c-2.4-0.3-3.6-0.5-3.6-0.5c0.3-2.4,0.6-4.5,0.9-6.6c-13.3,2.1-20.4,5.2-20.4,7.2
								C10.2,55.6,28.6,61.8,62.3,61.8z"/>
							<path id="colors" class="st2" d="M45.3,68.6c5.2,0.3,9.6,2.7,11.2,6.2l0.4,0.8l-0.5,0.8c-1.8,3-6.1,5-10.9,5
								c-0.3,0-0.6,0-1,0c-5.2-0.3-9.6-2.7-11.2-6.2L33,74.4l0.5-0.8C35.4,70.4,40.1,68.3,45.3,68.6z M44.8,77.9
								c3.3,0.2,6.3-0.8,7.9-2.4c-1.4-1.8-4.3-3.1-7.6-3.3c-3.3-0.2-6.3,0.8-7.9,2.4C38.5,76.4,41.5,77.7,44.8,77.9z M78.4,81.4
								c-5.1,0-9.5-2.1-11.3-5.4l-0.4-0.8l0.4-0.8c1.7-3.4,6.2-5.7,11.4-5.8l0.3,0c5.1,0,9.5,2.1,11.3,5.4l0.4,0.8l-0.4,0.8
								c-1.7,3.4-6.2,5.7-11.4,5.8L78.4,81.4z M78.6,72.1c-3.3,0.1-6.3,1.2-7.7,3c1.5,1.7,4.4,2.7,7.6,2.7l0.2,0
								c3.3-0.1,6.3-1.2,7.7-3c-1.5-1.7-4.4-2.7-7.6-2.7L78.6,72.1z"/>
						</g>
					</g>
				</g>
			</g>
		</g>
	</g>
</g>
</svg>
