<?xml version="1.0" encoding="utf-8"?>
<!-- Generator: Adobe Illustrator 27.0.0, SVG Export Plug-In . SVG Version: 6.00 Build 0)  -->
<svg version="1.1" id="Layer_1" xmlns="http://www.w3.org/2000/svg" xmlns:xlink="http://www.w3.org/1999/xlink" x="0px" y="0px"
	 viewBox="0 0 163 44" style="enable-background:new 0 0 163 44;" xml:space="preserve">
<style type="text/css">
	.st0{fill:#9E1B32;}
</style>
<path class="st0" d="M27.8,30.1v-8.3c0-1-0.1-1.8-0.4-2.3c-0.3-0.5-0.7-0.8-1.3-0.8c-0.8,0-1.4,0.3-1.8,1c-0.4,0.7-0.6,1.8-0.6,3.3
	v7.1h-5.3v-8.3c0-1-0.1-1.8-0.4-2.3c-0.3-0.5-0.7-0.8-1.3-0.8c-0.8,0-1.4,0.4-1.8,1.1c-0.4,0.7-0.6,1.9-0.6,3.6v6.7H9V14.8h4
	l0.7,1.9H14c0.4-0.7,1-1.2,1.8-1.6c0.8-0.4,1.6-0.6,2.6-0.6c2.2,0,3.8,0.7,4.6,2h0.4c0.4-0.6,1-1.1,1.8-1.5c0.8-0.4,1.6-0.5,2.5-0.5
	c1.8,0,3.1,0.5,4,1.4c0.9,0.9,1.3,2.3,1.3,4.2v10L27.8,30.1L27.8,30.1z"/>
<path class="st0" d="M34.5,14.8h5.6l2.6,8.8c0.1,0.5,0.2,1,0.3,1.7H43c0.1-0.6,0.2-1.2,0.3-1.6l2.7-8.8h5.4L45.4,31
	c-0.8,2.1-1.7,3.5-2.9,4.4c-1.1,0.9-2.6,1.3-4.4,1.3c-0.7,0-1.4-0.1-2.2-0.2v-4.1c0.5,0.1,1,0.2,1.6,0.2c0.5,0,0.9-0.1,1.2-0.3
	c0.4-0.2,0.7-0.4,0.9-0.8c0.3-0.3,0.5-0.9,0.8-1.6L34.5,14.8L34.5,14.8z"/>
<path class="st0" d="M65.6,30.1H54.5V10.3h11.2V13h-7.9v5.4h7.4v2.7h-7.4v6.2h7.9C65.6,27.3,65.6,30.1,65.6,30.1z"/>
<path class="st0" d="M73.9,30.3c-1.8,0-3.3-0.7-4.3-2c-1-1.4-1.6-3.2-1.6-5.7s0.5-4.3,1.6-5.7c1.1-1.4,2.5-2.1,4.4-2.1
	c0.9,0,1.8,0.2,2.5,0.5c0.7,0.3,1.4,0.9,2,1.7h0.1l0.4-2h2.6v21.6h-3.2v-6.3c0-0.4,0-0.8,0.1-1.3c0-0.4,0.1-0.8,0.1-1h-0.2
	C77.4,29.6,75.9,30.3,73.9,30.3L73.9,30.3z M74.8,27.8c1.3,0,2.3-0.4,2.9-1.2c0.6-0.8,0.9-1.9,0.9-3.5v-0.5c0-1.8-0.3-3.2-0.9-4
	c-0.6-0.8-1.6-1.2-2.9-1.2c-1.1,0-2,0.5-2.6,1.4s-0.9,2.2-0.9,3.9C71.2,26.1,72.4,27.8,74.8,27.8L74.8,27.8z"/>
<path class="st0" d="M95.8,30.1l-0.4-2h-0.2c-0.4,0.7-1.1,1.2-1.9,1.6c-0.8,0.4-1.7,0.6-2.8,0.6c-1.8,0-3.2-0.5-4.1-1.4
	c-0.9-0.9-1.3-2.3-1.3-4.1v-9.8h3.2v9.2c0,1.1,0.2,2,0.7,2.6c0.5,0.6,1.2,0.9,2.2,0.9c1.3,0,2.3-0.4,2.9-1.2c0.6-0.8,0.9-2.1,0.9-4
	v-7.4h3.2v14.9C98.3,30.1,95.8,30.1,95.8,30.1z"/>
<path class="st0" d="M102.5,11.2c0-0.6,0.2-1,0.5-1.3c0.3-0.3,0.8-0.5,1.3-0.5c0.6,0,1,0.2,1.3,0.5c0.3,0.3,0.5,0.7,0.5,1.3
	c0,0.6-0.2,1-0.5,1.3c-0.3,0.3-0.7,0.5-1.3,0.5c-0.6,0-1-0.2-1.3-0.5S102.5,11.7,102.5,11.2z M105.9,30.1h-3.2V15.1h3.2V30.1z"/>
<path class="st0" d="M117.8,17.5h-3.6v12.5h-3.2V17.5h-2.5V16l2.5-1v-1c0-1.8,0.4-3.1,1.2-3.9c0.8-0.9,2.1-1.3,3.8-1.3
	c1.1,0,2.2,0.2,3.3,0.6l-0.8,2.4c-0.8-0.3-1.5-0.4-2.2-0.4c-0.7,0-1.2,0.2-1.6,0.7c-0.3,0.4-0.5,1.1-0.5,2v1h3.6L117.8,17.5
	L117.8,17.5z"/>
<path class="st0" d="M129.1,30.1l-0.6-2.1h-0.1c-0.7,0.9-1.4,1.5-2.2,1.9c-0.7,0.3-1.7,0.5-2.8,0.5c-1.5,0-2.6-0.4-3.4-1.2
	c-0.8-0.8-1.2-1.9-1.2-3.4c0-1.5,0.6-2.7,1.7-3.5c1.1-0.8,2.9-1.2,5.2-1.3l2.6-0.1v-0.8c0-1-0.2-1.7-0.7-2.1
	c-0.4-0.5-1.1-0.7-2.1-0.7c-0.8,0-1.5,0.1-2.2,0.3c-0.7,0.2-1.4,0.5-2,0.8l-1-2.3c0.8-0.4,1.7-0.7,2.7-1c1-0.2,1.9-0.3,2.7-0.3
	c1.9,0,3.3,0.4,4.3,1.2c1,0.8,1.5,2.1,1.5,3.9v10.1L129.1,30.1L129.1,30.1z M124.4,27.9c1.2,0,2.1-0.3,2.8-1c0.7-0.6,1-1.5,1-2.7
	v-1.3l-1.9,0.1c-1.5,0.1-2.6,0.3-3.3,0.7c-0.7,0.4-1,1.1-1,2c0,0.7,0.2,1.2,0.6,1.5C123,27.7,123.6,27.9,124.4,27.9L124.4,27.9z"/>
<path class="st0" d="M138.6,22.4l-5-7.3h3.6l3.4,5.2l3.4-5.2h3.6l-5,7.3l5.3,7.6h-3.6l-3.7-5.6l-3.7,5.6h-3.6L138.6,22.4L138.6,22.4
	z"/>
<path class="st0" d="M151.1,18.9h-0.6v-3.2h-1.1v-0.6h2.8v0.6h-1.1V18.9z M154.2,18.9l-1-2.9h0l0,0.7v2.2h-0.6v-3.7h1l1,2.9l1.1-2.9
	h0.9v3.7h-0.7v-2.2l0-0.7h0l-1.1,2.9L154.2,18.9L154.2,18.9z"/>
</svg>
